<mxfile host="app.diagrams.net" modified="2021-05-27T03:57:16.530Z" agent="5.0 (Macintosh; Intel Mac OS X 10_15_5) AppleWebKit/537.36 (KHTML, like Gecko) Chrome/90.0.4430.212 Safari/537.36" etag="-LnA69d4L_xFVEAVUT2n" version="14.7.1" type="github">
  <diagram id="x9Guic9ENbKkp5CHO880" name="Page-1">
    <mxGraphModel dx="6007" dy="4086" grid="1" gridSize="10" guides="1" tooltips="1" connect="1" arrows="1" fold="1" page="1" pageScale="1" pageWidth="827" pageHeight="1169" math="0" shadow="0">
      <root>
        <mxCell id="0" />
        <mxCell id="1" parent="0" />
        <mxCell id="Cau-QvMtGqhSYi-_3m7i-50" value="" style="rounded=0;whiteSpace=wrap;html=1;labelBackgroundColor=none;fontSize=17;fillColor=#eeeeee;strokeColor=none;" vertex="1" parent="1">
          <mxGeometry x="-75" y="-30" width="2130" height="1030" as="geometry" />
        </mxCell>
        <mxCell id="Cau-QvMtGqhSYi-_3m7i-1" value="" style="shape=image;verticalLabelPosition=bottom;labelBackgroundColor=#ffffff;verticalAlign=top;aspect=fixed;imageAspect=0;image=data:image/png,iVBORw0KGgoAAAANSUhEUgAABuwAAAMCCAYAAACCwOA4AAAgAElEQVR4AezdCbT9Y70/8ChDGRtQxh8ZIipFA6GBUlEqEpGuutwiDervXkOXJEOF0IDKUMrUQCgNupVUyJipVNc8ZLgNEnGf/3o/d32t4zi/8zu78zv7u/f+vvZae53fb5/v/j7P83q+vsvv+16f53lc8SJAgAABAgQIECBAgAABAgQIECBAgAABAgQIECBAoDWBx7XWsoYJECBAgAABAgQIECBAgAABAgQIECBAgAABAgQIECgCOxcBAQIECBAgQIAAAQIECBAgQIAAAQIECBAgQIAAgRYFBHYt4muaAAECBAgQIECAAAECBAgQIECAAAECBAgQIECAgMDONUCAAAECBAgQIECAAAECBAgQIECAAAECBAgQIECgRQGBXYv4miZAgAABAgQIECBAgAABAgQIECBAgAABAgQIECAgsHMNECBAgAABAgQIECBAgAABAgQIECBAgAABAgQIEGhRQGDXIr6mCRAgQIAAAQIECBAgQIAAAQIECBAgQIAAAQIECAjsXAMECBAgQIAAAQIECBAgQIAAAQIECBAgQIAAAQIEWhQQ2LWIr2kCBAgQIECAAAECBAgQIECAAAECBAgQIECAAAECAjvXAAECBAgQIECAAAECBAgQIECAAAECBAgQIECAAIEWBQR2LeJrmgABAgQIECBAgAABAgQIECBAgAABAgQIECBAgIDAzjVAgAABAgQIECBAgAABAgQIECBAgAABAgQIECBAoEUBgV2L+JomQIAAAQIECBAgQIAAAQIECBAgQIAAAQIECBAgILBzDRAgQIAAAQIECBAgQIAAAQIECBAgQIAAAQIECBBoUUBg1yK+pgkQIECAAAECBAgQIECAAAECBAgQIECAAAECBAgI7FwDBAgQIECAAAECBAgQIECAAAECBAgQIECAAAECBFoUENi1iK9pAgQIECBAgAABAgQIECBAgAABAgQIECBAgAABAgI71wABAgQIECBAgAABAgQIECBAgAABAgQIECBAgACBFgUEdi3ia5oAAQIECBAgQIAAAQIECBAgQIAAAQIECBAgQICAwM41QIAAAQIECBAgQIAAAQIECBAgQIAAAQIECBAgQKBFAYFdi/iaJkCAAAECBAgQIECAAAECBAgQIECAAAECBAgQICCwcw0QIECAAAECBAgQIECAAAECBAgQIECAAAECBAgQaFFAYNcivqYJECBAgAABAgQIECBAgAABAgQIECBAgAABAgQICOxcAwQIECBAgAABAgQIECBAgAABAgQIECBAgAABAgRaFBDYtYivaQIECBAgQIAAAQIECBAgQIAAAQIECBAgQIAAAQICO9cAAQIECBAgQIAAAQIECBAgQIAAAQIECBAgQIAAgRYFBHYt4muaAAECBAgQIECAAAECBAgQIECAAAECBAgQIECAgMDONUCAAAECBAgQIECAAAECBAgQIECAAAECBAgQIECgRQGBXYv4miZAgAABAgQIECBAgAABAgQIECBAgAABAgQIECAgsHMNECBAgAABAgQIECBAgAABAgQIECBAgAABAgQIEGhRQGDXIr6mCRAgQIAAAQIECBAgQIAAAQIECBAgQIAAAQIECAjsXAMECBAgQIAAAQIECBAgQIAAAQIECBAgQIAAAQIEWhQQ2LWIr2kCBAgQIECAAAECBAgQIECAAAECBAgQIECAAAECAjvXAAECBAgQIECAAAECBAgQIECAAAECBAgQIECAAIEWBQR2LeJrmgABAgQIECBAgAABAgQIECBAgAABAgQIECBAgIDAzjVAgAABAgQIECBAgAABAgQIECBAgAABAgQIECBAoEUBgV2L+JomQIAAAQIECBAgQIAAAQIECBAgQIAAAQIECBAgILBzDRAgQIAAAQIECBAgQIAAAQIECBAgQIAAAQIECBBoUUBg1yK+pgkQIECAAAECBAgQIECAAAECBAgQIECAAAECBAgI7FwDBAgQIECAAAECBAgQIECAAAECBAgQIECAAAECBFoUENi1iK9pAgQIECBAgAABAgQIECBAgAABAgQIECBAgAABAgI71wABAgQIECBAgAABAgQIECBAgAABAgQIECBAgACBFgUEdi3ia5oAAQIECBAgQIAAAQIECBAgQIAAAQIECBAgQICAwM41QIAAAQIECBAgQIAAAQIECBAgQIAAAQIECBAgQKBFAYFdi/iaJkCAAAECBAgQIECAAAECBAgQIECAAAECBAgQICCwcw0QIECAAAECBAgQIECAAAECBAgQIECAAAECBAgQaFFAYNcivqYJECBAgAABAgQIECBAgAABAgQIECBAgAABAgQICOxcAwQIECBAgAABAgQIECBAgAABAgQIECBAgAABAgRaFBDYtYivaQIECBAgQIAAAQIECBAgQIAAAQIECBAgQIAAAQICO9cAAQIECBAgQIAAAQIECBAgQIAAAQIECBAgQIAAgRYFBHYt4muaAAECBAgQIECAAAECBAgQIECAAAECBAgQIECAgMDONUCAAAECBAgQIECAAAECBAgQIECAAAECBAgQIECgRQGBXYv4miZAgAABAgQIECBAgAABAgQIECBAgAABAgQIECAgsHMNECBAgAABAgQIECBAgAABAgQIECBAgAABAgQIEGhRQGDXIr6mCRAgQIAAAQIECBAgQIAAAQIECBAgQIAAAQIECAjsXAMECBAgQIAAAQIECBAgQIAAAQIECBAgQIAAAQIEWhQQ2LWIr2kCBAgQIECAAAECBAgQIECAAAECBAgQIECAAAECAjvXAAECBAgQIECAAAECBAgQIECAAAECBAgQIECAAIEWBQR2LeJrmgABAgQIECBAgAABAgQIECBAgAABAgQIECBAgIDAzjVAgAABAgQIECBAgAABAgQIECBAgAABAgQIECBAoEUBgV2L+JomQIAAAQIECBAgQIAAAQIECBAgQIAAAQIECBAgILBzDRAgQIAAAQIECBAgQIAAAQIECBAgQIAAAQIECBBoUUBg1yK+pgkQIECAAAECBAgQIECAAAECBAgQIECAAAECBAgI7FwDBAgQIECAAAECBAgQIECAAAECBAgQIECAAAECBFoUENi1iK9pAgQIECBAgAABAgQIECBAgAABAgQIECBAgAABAgI71wABAgQIECBAgAABAgQIECBAgAABAgQIECBAgACBFgUEdi3ia5oAAQIECBAgQIAAAQIECBAgQIAAAQIECBAgQICAwM41QIAAAQIECBAgQIAAAQIECBAgQIAAAQIECBAgQKBFAYFdi/iaJkCAAAECBAgQIECAAAECBAgQIECAAAECBAgQICCwcw0QIECAAAECBAgQIECAAAECBAgQIECAAAECBAgQaFFAYNcivqYJECBAgAABAgQIECBAgAABAgQIECBAgAABAgQICOxcAwQIECBAgAABAgQIECBAgAABAgQIECBAgAABAgRaFBDYtYivaQIECBAgQIAAAQIECBAgQIAAAQIECBAgQIAAAQICO9cAAQIECBAgQIAAAQIECBAgQIAAAQIECBAgQIAAgRYFBHYt4muaAAECBAgQIECAAAECBAgQIECAAAECBAgQIECAgMDONUCAAAECBAgQIECAAAECBAgQIECAAAECBAgQIECgRQGBXYv4miZAgAABAgQIECBAgAABAgQIECBAgAABAgQIECAgsHMNECBAgAABAgQIECBAgAABAgQIECBAgAABAgQIEGhRQGDXIr6mCRAgQIAAAQIECBAgQIAAAQIECBAgQIAAAQIECAjsXAMECBAgQIAAAQIECBAgQIAAAQIECBAgQIAAAQIEWhQQ2LWIr2kCBAgQIECAAAECBAgQIECAAAECBAgQIECAAAECAjvXAAECBAgQIECAAAECBAgQIECAAAECBAgQIECAAIEWBQR2LeJrmgABAgQIECBAgAABAgQIECBAgAABAgQIECBAgIDAzjVAgAABAgQIECBAgAABAgQIECBAgAABAgQIECBAoEUBgV2L+JomQIAAAQIECBAgQIAAAQIECBAgQIAAAQIECBAgILBzDRAgQIAAAQIECBAgQIAAAQIECBAgQIAAAQIECBBoUUBg1yK+pgkQIECAAAECBAgQIECAAAECBAgQIECAAAECBAgI7FwDBAgQIECAAAECBAgQIECAAAECBAgQIECAAAECBFoUENi1iK9pAgQIECBAgAABAgQIECBAgAABAgQIECBAgAABAgI71wABAgQIECBAgAABAgQIECBAgAABAgQIECBAgACBFgUEdi3ia5oAAQIECBAgQIAAAQIECBAgQIAAAQIECBAgQICAwM41QIAAAQIECBAgQIAAAQIECBAgQIAAAQIECBAgQKBFAYFdi/iaJkCAAAECBAgQIECAAAECBAgQIECAAAECBAgQICCwcw0QIECAAAECBAgQIECAAAECBAgQIECAAAECBAgQaFFAYNcivqYJECBAgAABAgQIECBAgAABAgQIECBAgAABAgQICOxcAwQIECBAgAABAgQIECBAgAABAgQIECBAgAABAgRaFBDYtYivaQIECBAgQIAAAQIECBAgQIAAAQIECBAgQIAAAQICO9cAAQIECBAgQIAAAQIECBAgQIAAAQIECBAgQIAAgRYFBHYt4muaAAECBAgQIECAAAECBAgQIECAAAECBAgQIECAgMDONUCAAAECBAgQIECAAAECBAgQIECAAAECBAgQIECgRQGBXYv4miZAgAABAgQIECBAgAABAgQIECBAgAABAgQIECAgsHMNECBAgAABAgQIECBAgAABAgQIECBAgAABAgQIEGhRQGDXIr6mCRAgQIAAAQIECBAgQIAAAQIECBAgQIAAAQIECAjsXAMECBAgQIAAAQIECBAgQIAAAQIECBAgQIAAAQIEWhQQ2LWIr2kCBAgQIECAAAECBAgQIECAAAECBAgQIECAAAECAjvXAAECBAgQIECAAAECBAgQIECAAAECBAgQIECAAIEWBQR2LeJrmgABAgQIECBAgAABAgQIECBAgAABAgQIECBAgIDAzjVAgAABAgQIECBAgAABAgQIECBAgAABAgQIECBAoEUBgV2L+JomQIAAAQIECBAgQIAAAQIECBAgQIAAAQIECBAgILBzDRAgQIAAAQIECBAgQIAAAQIECBAgQIAAAQIECBBoUUBg1yK+pgkQIECAAAECBAgQIECAAAECBAgQIECAAAECBAgI7FwDBAgQIECAAAECBAgQIECAAAECBAgQIECAAAECBFoUENi1iK9pAgQIECBAgAABAgQIECBAgAABAgQIECBAgAABAgI71wABAgQIECBAgAABAgQIECBAgAABAgQIECBAgACBFgUEdi3ia5oAAQIECBAgQIAAAQIECBAgQIAAAQIECBAgQICAwM41QIAAAQIECBAgQIAAAQIECBAgQIAAAQIECBAgQKBFAYFdi/iaJkCAAAECBAgQIECAAAECBAgQIECAAAECBAgQICCwcw0QIECAAAECBAgQIECAAAECBAgQIECAAAECBAgQaFFAYNcivqYJECBAgAABAgQIECBAgAABAgQIECBAgAABAgQICOxcAwQIECBAgAABAgQIECBAgAABAgQIECBAgAABAgRaFBDYtYivaQIECBAgQIAAAQIECBAgQIAAAQIECBAgQIAAAQICO9cAAQIECBAgQIAAAQIECBAgQIAAAQIECBAgQIAAgRYFBHYt4muaAAECBAgQIECAAAECBAgQIECAAAECBAgQIECAgMDONUCAAAECBAgQIECAAAECBAgQIECAAAECBAgQIECgRQGBXYv4miZAgACBbgg89NBD5fbbby+33HJL+e///m9vBq4B10Cr10DuRbkn5d7kRYAAAQIECBAgQIAAAQIECAyGgMBuMOZBLwgQIEBghAXyYHybbbYpG2ywQVl55ZXLCius4M3ANeAaaOUayD0o96Lck3Jv8iJAgAABAgQIECBAgAABAgQGQ0BgNxjzoBcECBAgMMICN998c9lwww3LSiutVGbNmtXKQ3ohoZDUNeAayDWQe1DuRbkn5d7kRYAAAQIECBAgQIAAAQIECAyGgMBuMOZBLwgQIEBghAWyDGaqWlZcccVy/vnnt7oUniU5LUnqGuj2NZB7UO5FuSflWvAiQIAAAQIECBAgQIAAAQIEBkNAYDcY86AXBAgQIDDCAnko3lQ3eUA+whNtaASGQMD9aAgmSRcJECBAgAABAgQIECBAoJMCArtOTrtBEyBAgEA/BTwg76e2tggQmEzA/WgyHb8jQIAAAQIECBAgQIAAAQLtCQjs2rPXMgECBAh0RMAD8o5MtGESGAIB96MhmCRdJECAAAECBAgQIECAAIFOCgjsOjntBk2AAAEC/RTwgLyf2toiQGAyAfejyXT8jgABAgQIECBAgAABAgQItCcgsGvPXssECBAg0BEBD8g7MtGGSWAIBNyPhmCSdJEAAQIECBAgQIAAAQIEOikgsOvktBs0AQIECPRTwAPyfmpriwCByQTcjybT8TsCBAgQIECAAAECBAgQINCegMCuPXstEyBAgEBHBDwg78hEGyaBIRBwPxqCSdJFAgQIECBAgAABAgQIEOikgMCuk9Nu0AQIECDQTwEPyPuprS0CBCYTcD+aTMfvCBAgQIAAAQIECBAgQIBAewICu/bstUyAAAECHRHwgLwjE22YBIZAwP1oCCZJFwkQIECAAAECBAgQIECgkwICu05Ou0ETIECAQD8FPCDvp7a2CBCYTMD9aDIdvyNAgAABAgQIECBAgAABAu0JCOzas9cyAQIECHREwAPyjky0YRIYAgH3oyGYJF0kQIAAAQIECBAgQIAAgU4KCOw6Oe0GTYAAAQL9FPCAvJ/a2iJAYDIB96PJdPyOAAECBAgQIECAAAECBAi0JyCwa89eywQIECDQEQEPyDsy0YZJYAgE3I+GYJJ0kQABAgQIECBAgAABAgQ6KSCw6+S0GzQBAgQI9FPAA/J+amuLAIHJBNyPJtPxOwIECBAgQIAAAQIECBAg0J6AwK49ey0TIECAQEcEPCDvyEQbJoEhEHA/GoJJ0kUCBAgQIECAAAECBAgQ6KSAwK6T027QBAgQINBPAQ/I+6mtLQIEJhNwP5pMx+8IECBAgAABAgQIECBAgEB7AgK79uy1TIAAAQIdEfCAvCMTbZgEhkDA/WgIJkkXCRAgQIAAAQIECBAgQKCTAgK7Tk67QRMgQIBAPwU8IO+ntrYIEJhMwP1oMh2/I0CAAAECBAgQIECAAAEC7QkI7Nqz1zIBAgQIdETAA/KOTLRhEhgCAfejIZgkXSRAgAABAgQIECBAgACBTgoI7Do57QZNgAABAv0U8IC8n9raIkBgMgH3o8l0/I4AAQIECBAgQIAAAQIECLQnILBrz17LBAgQINARAQ/IOzLRhklgCATcj4ZgknSRAAECBAgQIECAAAECBDopILDr5LQbNAECBAj0U8AD8n5qa4sAgckE3I8m0/E7AgQIECBAgAABAgQIECDQnoDArj17LRMgQIBARwQ8IO/IRBsmgSEQcD8agknSRQIECBAgQIAAAQIECBDopIDArpPTbtAECBAg0E8BD8j7qa0tAgQmE3A/mkzH7wgQIECAAAECBAgQIECAQHsCArv27LVMgAABAh0R8IC8IxNtmASGQMD9aAgmSRcJECBAgAABAgQIECBAoJMCArtOTrtBEyBAgEA/BTwg76e2tggQmEzA/WgyHb8jQIAAAQIECBAgQIAAAQLtCQjs2rPXMgECBAh0RMAD8o5MtGESGAIB96MhmCRdJECAAAECBAgQIECAAIFOCgjsOjntBk2AAAEC/RTwgLyf2toiQGAyAfejyXT8jgABAgQIECBAgAABAgQItCcgsGvPXssECBAg0BEBD8g7MtGGSWAIBNyPhmCSdJEAAQIECBAgQIAAAQIEOikgsOvktBs0AQIECPRTwAPyfmpriwCByQTcjybT8TsCBAgQIECAAAECBAgQINCegMCuPXstEyBAgEBHBDwg78hEGyaBIRBwPxqCSdJFAgQIECBAgAABAgQIEOikgMCuk9Nu0AQIECDQTwEPyPuprS0CBCYTcD+aTMfvCBAgQIAAAQIECBAgQIBAewICu/bstUyAAAECHRHwgLwjE22YBIZAwP1oCCZJFwkQIECAAAECBAgQIECgkwICu05Ou0ETIECAQD8FPCDvp7a2CBCYTMD9aDIdvyNAgAABAgQIECBAgAABAu0JCOzas9cyAQIECHREwAPyjky0YRIYAgH3oyGYJF0kQIAAAQIECBAgQIAAgU4KCOw6Oe0GTYAAAQL9FPCAvJ/a2iJAYDIB96PJdPyOAAECBAgQIECAAAECBAi0JyCwa89eywQIECDQEQEPyDsy0YZJYAgE3I+GYJJ0kQABAgQIECBAgAABAgQ6KSCw6+S0GzQBAgQI9FPAA/J+amuLAIHJBNyPJtPxOwIECBAgQIAAAQIECBAg0J6AwK49ey0TIECAQEcEuvaA/H//93/Ln/70p3LvvfeWu+++u9xzzz3loYceKvl8Tq9//OMf5YEHHqjfueuuu0re+X4+f/jhh+f09Xpc8/20/Ze//KXcd9999Zx///vf67nyeT67//77p9SnOTY6Awc0Dhn/HXfcUW655ZZy8803l1tvvbX+PWPJMV4EehXo2v2oVx/HEyBAgAABAgQIECBAgACBtgQEdm3Ja5cAAQIEOiPQtQfkf/7zn8vxxx9fDjvssLLHHnuU/fffv4ZNCckmC+0SQN10003liiuuKPvuu2/Zfffd6zvfv+GGG0rO28v399xzz3LyySeXs88+u1x99dXl0ksvrefde++9y7e+9a3y4x//uIZ2g3YhNg6XX3559XvnO99ZNtlkk/Lyl7+8vO51ryvveMc7ymWXXVbDuwShXgR6Eeja/agXG8cSIECAAAECBAgQIECAAIE2BQR2beprmwABAgQ6IdC1B+T/8z//U4444oiyzz77lG233bbsvPPO5brrrqvVbZNVyT344IM1WEuQ9q53vatsueWW9b3TTjuVq666qtx55521Um92F02+f80115Sf/OQn9ftvf/vby7HHHltOO+20cskll5Tzzz+/fr7DDjuU4447rpx11lm10m5252vr81TPXXzxxeWcc84p22yzTQ3r1lxzzbL66quXddZZp2y22WblV7/6lcCurQka8na7dj8a8unSfQIECBAgQIAAAQIECBDokIDArkOTbagECBAg0I5A1x6QZynMgw8+uOyyyy5l6aWXLs985jPL6aefXi688MKSMGp2r1TQJUjbb7/9ynLLLVcWXnjh+l5xxRVr8HbuueeWv/3tb7P7el3+8qSTTioHHnhgWX755csKK6xQjjrqqBrYnXfeefVn+rLMMsvUyrXPfOYzJeHioL1uu+228pa3vKW8+MUvLosvvnh9v+AFLyjrrbderbJ761vfWisOYzlZxeGgjUt/BkOga/ejwVDXCwIECBAgQIAAAQIECBAgMGcBgd2cjRxBgAABAgSmJdC1B+QJwbIc5vvf//4aNi255JI1iEtoNlnglqCv+d4SSyxR5p9//jLPPPOUpz3taeWTn/xkDdyyJ93sXtk377Of/WwN45785CeXtHvMMceUM888s/z0pz8t3/zmN8taa61VVl111ZJlMY8++ui6197sztfG5wngsizohhtuWGbNmlUWWWSR8tSnPrUuhbnVVlvVisX3ve99JaGePezamKHhb7Nr96PhnzEjIECAAAECBAgQIECAAIGuCAjsujLTxkmAAAECrQl07QF5QrlUwyUsS2iWKrHsZZcwbbKKtjvuuKNkucrs1/ac5zynBmuLLbZYWWqppcr2229f9tprr3L33XfPdh7/+Mc/ll133bVsvvnmZaGFFirLLrts+fnPf173z7v99ttrVVr2rvv6179e97PLMp1ZRnNQXgnrss9f9ttLJWDCugR3WVb0yiuvLBlDgrosDTrZ0qKDMh79GEyBrt2PBnMW9IoAAQIECBAgQIAAAQIECDxWQGD3WBOfECBAgACBuSrQtQfk999/fw3KTj755PL0pz+9Bnbvec976jKZqaKb6JWw6tZbby1bbLFFXQryJS95Sd2v7RnPeEYN3t7whjfUMC5h1exeCfyyb91GG21U21x55ZXLZZddVvfOS1CYQC97v1100UXlD3/4Q097wD300EOT7p83vk8ZT969fC/Hp0rwiiuuqEt6PulJTyqbbrpp3QNwsnGPbzt/76XdHJ8AMO9evzdR22M/a87XeIz93UR/bo6f6He9fNacpxlXL98d9WO7dj8a9fk0PgIECBAgQIAAAQIECBAYHQGB3ejMpZEQIECAwIAKdO0B+djgaZVVVqnh2ate9aryr//6ryWh2vhXjk9l2TXXXFNWX331GvK9853vLAn5Um330pe+tOQ8+XnzzTeP//ojf89Sktn3LXvXpULvta99bT2+CW0S4mTft7xTWTfVJSXz/bvuuqu+8+c5vZrxZPnOhIT57lS+l/7dcsst5YILLqghZaoE3/zmN5cPfvCD9Txzarf5fa/9zfEJUtPPVPBljtKX6b6afsQgFpnj2MzulTbTdt6Zo6nOz/jzjW03QW32Rpys3fHfH/W/d+1+NOrzaXwECBAgQIAAAQIECBAgMDoCArvRmUsjIUCAAIEBFejiA/IELr/5zW/qnnFZFjMVc1tvvXVd1nH8NCVgyVKXl1xySVlxxRXrnnXZ/27PPfes33nNa15TlltuufL85z+/XH/99eWBBx4Yf4oawP3ud78rz33uc2vgt9566z2qvfQngVECqVTyJchJiNQEOQmLct7m9wl58vuERwkJL7300tq/zGW+PzZQyjma82fZyhyf8PHXv/51ufjii+v3UtGXz++5555aRde0m4Hkz2krgVkqALPXXioTU2H3uj1UB60AACAASURBVNe9rlbYpepubL9TxTh2PPl+3jnmhhtuqG3GM22mOq8J4GKdIKwJ6BJypm+XX355bfsXv/hFrUCM5Y033liDwvQ53x/b5/S7mbcEck0wmeVQm37l++lDDGJx7bXXVt+MM+fL93NsrBNUph+pfrzwwgvrtZO/57zpa46d3Sv9SmVi+pnzZI6adjOutB2HzE3ay1yNH8vszj2Kn3fxfjSK82hMBAgQIECAAAECBAgQIDB6AgK70ZtTIyJAgACBARPo4gPyBCIJj974xjc+srTl2muvXUOg8dOT8On8888vJ510Ut2vLgHfCSecUM4444zyqU99qu5/99SnPrWGdt/5znfqHm9j955LABXjH//4x/WY7Jm30047lQMOOKCGOAniEtr84Ac/qPvbvfrVry6f/vSnyymnnFJDroRHCeYS7mRJzgSEaT/9SVVgqtyyvGYq9zKGVO4lWMv48t0EQAmazj777LLddtuVnD/HL7/88rVSrqn422CDDcqBBx5Yjj/++NqvpoIsQVv6cvjhh5eXv/zltTpw/vnnL/POO29ZYokl6jle+MIX1vOm31/+8pdLgrVmPOlPPsv79a9/fVl//fXLrFmz6j54GUvGkNAuc5JwLEFaXD/84Q+XBJupRszxCUWz71/6/axnPau84AUvqFWO+++/fw28EnaNDboSsn7kIx+pS5Vm78DsUxiD7BP4pje9qWS8CWBz3vx89rOfXd7xjnfUIDZBYcK47373u9Xjla98ZbWNVY5PRWWsd99993LooYfW0G78dZO/xzBBXUxj+7KXveyR82QsOVf2A8z53/rWt9ZrKvsaZs66+uri/airc23cBAgQIECAAAECBAgQIDBcAgK74ZovvSVAgACBIRTo6gPyhGA77LBDDaESuGW5y9/+9rePqZBLEJSg57Of/WxJWJd961Jl9pOf/KR88YtfrMFbvp+qs1NPPbX88pe/fFTgkvDuqquuKuecc05Zeuml6xKcH/rQh8qRRx5ZK+kSziRgSwCYEGiNNdYo++67b/nCF75QK7MSuqUyK+ddd911a7CUsO/ggw+u4VyqA5/85CeXRRZZpJ4/x6QKLN/561//Wivj0t/Pfe5zdaxNld/Tnva0Op6lllqqBkcZ/7vf/e7y0Y9+tFx33XWPVL4lRPvKV75SDjnkkPKiF72ohlXzzTdfDewSPsZkzTXXrEuCfuITn6gm//Vf//XIeBKEffzjH6+BVUK2lVZaqSy66KK1z1ki9C1veUutbEu4lcq5jPN973tfDbASzCUki23aSUCYd/qewGuzzTar4WcqDFOlFqvmlRAwy5ZutdVWNejcdttty+c///ly1FFH1eAsQWDOm7lLf3LeV7ziFTXUTMCZEPXYY48tH/vYx2o4mGAtxzzlKU+px8ct586SoAkZU703NjBM1V36EMuEirHN3CZwzHeb8eR6it+GG25Yr4nTTjutzlmC4rHna8Y16j+7ej8a9Xk1PgIECBAgQIAAAQIECBAYfgGB3fDPoREQIECAwIALdPUBeZYyPOyww0qWt0zwtMwyy5Tvf//7dbnDsRVyqZBKiPWud72rBjwJka6++upaOZVQJ0FcQpeEZnvvvXcNebIEYvNKhVpCmE9+8pM1HEpQkwq5hFoJeRLYparq5JNPriFUwqiEQKlWy9KYCaFS8ZUqv1SaZSnKhE0J9/L3VMuliq2pXksVXo5Puz/72c9qdVxCulRzJTxLwJdAMJVhCQUTRO6444612jDjSBCWse63336PVABmCcfzzjuvHHTQQTVMW2yxxUqq7J73vOfVkCuhVgLBVBFmLPnZjGfBBResVWRxS2CVvqSyLv1MYJpKuixDmQA17aYCMEFa04/8PkFbwtGEbQkqM9ZUyCVsS58ThqWCLXPVvLLEZEK6jTbaqBrFKmFhDFLVF+OMJ3Ob/sQl10HOufnmm9f+JUjLGN/73vfWyrsEj/vss0+tEsx5Muc5Z/qWayfz2bzSl7jsvPPOdSwJ6bJXYpZeTbXi0UcfXccztvIuYV58UtGYuUto17VXV+9HXZtn4yVAgAABAgQIECBAgACB4RMQ2A3fnOkxAQIECAyZQFcfkCdUS9CSZRMTvCT4SSVawqmx+9BlacQsfZhKsAQq2avu97//fQ1TYpdwKlVgCXqy9GKqzBIGNq9UqDXtNAFT007CuoQyTWCXUCehUULEhIkJ7FJ51gR2CRWf8IQnPLKUYsKdBE3/9m//VtvOsooJr1LZleq6008/vQZz+V5CtlRxZTnIL33pS+XrX/96DZnOOuusGuClGi3HpQ+bbrpprVxrgr/s95cqwHwvIVSqzBLEpe2EZ/k8S01edtllJfvZpfowgV3O9fjHP75WpiUwzJKazb53u+22W/n3f//3GsAlXMuecAnO1lprrfq9BGEJx4444oiSpUazxOa3v/3tet44Zz4yplTHZWnTmGWumlfOmXAsy2pmXAlK04eEcNl/MAHq1772tRqeJlSLy8ILL1zHlTA0y3ymL6kCTFCXYDPLkCbkTGVdlrd84hOfWOc950oom5A0r8xr7DIXGW8q8xJCbr/99vVayvxnuc2MJ+fcZpttysYbb/xIcJwwNXOXOezaq6v3o67Ns/ESIECAAAECBAgQIECAwPAJCOyGb870mAABAgSGTKCrD8jHVrYlTEkIlaUms/xjQrbmlaUls8dYgp6EKm9/+9tLwqC8UomX8C6hTvZBS4iTfeKa3+eYVI8l8EvIk9CoqdBLGJMlD3sN7OaZZ55aZZclGs8888waMN522201pEu7CesythtuuKFssskmdanPBI3rrLNODdKy7GTCyrSfirAs+Zn93rIcaPqZkCv9zPlTPZgqwgRROT7BXSrJsrTnQgstVKvQErylrZwn7ebcYwPILJ+52mqrVcMs1ZnlI9PHhGtpN32++OKLa1ia4DMVhtlLLmFdQryEljl309f0JePNspUJLDN3Wc4z1WuZq+aV82YsmZv0NWHp//t//68uO5k+5Lw5V+Y6y2mmz6uuumo9NmFkwr3jjjuuBoU5V3N8+pz+fuMb36htZynS9Pc///M/63iaPQljl+rHhHVNSHnNNdfUcY8dT9rPNZQKyiw5musolYiZu7g2ewk24xr1n129H436vBofAQIECBAgQIAAAQIECAy/gMBu+OfQCAgQIEBgwAW6+oC8CVayP10qsBLopOIrSzs2S1qODeQSvqSSK8sjjq3kSkiUvc8SGiUUS8VZPmv2H0s4lSUYU7WWZR5TvZWApglieg3s5p133lpVllAnwVGWkhy7d1vaTSB07bXX1rYSaCUkTNiYUC6/a/o29tJMVWAqxTK+VK6lOi4VaBdccEENFcdX+qUabcstt6whX0LJ5jV+PAsssEDdAy4VbKk6a8bdHJ+QL1WNCR9TvZilJhPWZcnIZh6aY5ufmbsEjwm4YppwMUtfJnhrXmMDuwRwCQJTuZbKwvGVa+lDwshU1KVir6liTGVflj8du0TqRA6pbNxjjz0e2XsuZrGL4fhAr+lf87OZr+uvv75eIwmGU+2Z6yT73yWonGi+mu+P2s+u3o9GbR6NhwABAgQIECBAgAABAgRGT0BgN3pzakQECBAgMGACXX1A3gQlqXpKSJRgK1VwqTJLIJdgJjbNkpeplMrymVnecmyQlGOzHGMCqRyTcCznbIKxhEjrr79+rbZKBd7b3va2R1XgjQ+45rQkZsKnVI2leizB4NiwLpdWwqwsTXnGGWfUMCvLfb7zne+se7WlOmx24U8TnGW5xlikHx/4wAfqfmsTLc051cAu4d8uu+xSDjnkkEctFdr8Z5D+pO1UuyUcu+qqq+q4EnQ+/PDDzWGP/MzxqUpLIJmqugRcqUqL8WSBXYK9X/7yl9V+vFnOmaq7LPGZyroEZuuuu24NBeM5/pVrIwFbKgLHO8Qqe9TFLoaxPPXUU2vbGedEr7SfPe+yp16W0Uy1Z/oxUWA40fdH6bOu3o9GaQ6NhQABAgQIECBAgAABAgRGU0BgN5rzalQECBAgMEACXX5AnuAlyy6mMi7hS/ZQSzVcwqKxFXgJcFKh1exVNrZCKyFYlkPMsogJxxIepWIsn+ccqaZL5VgCmM0337xkr7icv3n1Gthl37RU9P3Lv/xLra5rztP8HH++VHjtuOOONWxMGJZQa6J3HBJOZk+1VIal0ix7u2X/toRJE1WWTaXCLiapPssecGODzqa/zc8miEvglWq/tBnDvFNFmIq5BJQJ1rJM5w9/+MNaVZfKxqkEdlkW9Morr6xhX9oa/2qC1VwHOTbhXSoCZ/dq/rsZH9il39nnL9dRDGN54oknlvPOO69eaxPZ57OElfle9iPM9xL0ZdnN7B04u6Bvdn0b5s8b18xD/uxFgAABAgQIECBAgAABAgQIDIaAwG4w5kEvCBAgQGCEBbr+gDxhUPalyz51CX+apRVTxZWgZf/9968VT9m3LSFRKqvGLpGYyrDTTjuthnlZVjMBzQknnFCPTViXvdESPiTw23PPPR+z1OP4gG1OFXbZjy3VfKngGrs0Z3OJJkxMlVyqvNJms7xjlvRMZV4q0SZ6r7feejW4zLKQ888/f60cSxVf9n3Lkpf/bGAXk4MPPricfPLJtYqu6edEPxNwJrD73ve+V6vS9ttvv9p+Asdtt922zk2zz1vmI+Hlk570pFpJOKcKu8xB5mOiqr30ZWxgN2vWrGr0zwR2CWMTymbfuvQtlqkCfMELXlBiPJF9PsvcrLLKKjUszJylWvOoo44q3/72t2u15kReo/hZ1+9HozinxkSAAAECBAgQIECAAAECoyEgsBuNeTQKAgQIEBhgga4/IE/olX3bsj9dKrWyFGKqzRJSHXnkkeVDH/pQDb4S4iR8u/XWWx+1DGX2GDv33HPLMcccU5ZccskatOR7qY664ooranDX7JGXZSFPOeWURwVXvQZ24yu6xl9aCeyaADGB3eMf//i6xGOqxrLvXcKj2b0TWK666qp1P7/0eYcddih77713rXL7ZwO72VUmju13QrSEoAnNspxolh391Kc+VXbaaaey/fbbl80226xssskm5XnPe14NVRPWJdBKYJcAM8tdTiWwm6xiqwnsMs9NYJfPZvdq/rsZPx8JgFNdl+U607/55puvLoca29m55/Msy5q9+NJ2lsTMn1OVKLCb3Qz4nAABAgQIECBAgAABAgQIEOingMCun9raIkCAAIFOCjTBQ1eXoMsyjQmIsj9dwqU4JJi7/PLL61KSr33ta2uIlUAoVgmuxr6yH1qqqi666KIatqSiLPuQ7bPPPrVCL+FdzpuQ6bvf/W4NpMZW6M10YJfQKFWDWY7zfe97Xw0gE0JO9M7+fXlnT75U1h1//PF1L7yEgDMV2DVLYf72t78t2223Xck+fwkLswxpgqwsV/qGN7yh7tmXfqVK8bjjjiuf+9znalVkKtdWWmmlgQrsEnRmHLHP8pYJ8OI6kfnYzz74wQ+WvDPOvfbaq/zoRz+q+xFOtI/e2GtwlP7c9fvRKM2lsRAgQIAAAQIECBAgQIDAaAkI7EZrPo2GAAECBAZQoOsPyMcvaZmwKPuNXXDBBeXNb35z2WCDDWpl16tf/eq6h9r4KWwCp+yr9qxnPasuiZmqsIRjRxxxRDnggAPqZwkCzz///Lov2tjQbyYCu1T3HXbYYTUozLKMCeuy7OdBBx1UP8/vJntnr770PdVd2dcufZypwC6BZ/amu/DCC2uwmGUhm6VFX/rSl5a4v+td76pVkJ/4xCdq1VmWJk3fsuxklshMNdogVdhlCc8ssZrALnv4/cd//EdJdeVk5vldqgqbd6rrLr744vKb3/zmUUuwjr/+Ru3vXb8fjdp8Gg8BAgQIECBAgAABAgQIjI6AwG505tJICBAgQGBABbr+gDzVbldddVU555xzahVcllo8+uijy7HHHltWW221uqfYNtts88hebhNNY5Z0zPKJqcZLxdfLX/7ysummm5Z3vvOdNSjLMpPZoyxLbY4N63KuuR3YZYnOBI6pQssSndkTL/vdJRC68cYb6x5x2Sdu/Pvee++tS19mSceERKl4yz5+6V9CyZkK7FLhGOssvZn+NhWKCTqzPGaWIE2fsnRp+ph+p0/Zj67ZdzBLmQ5KYHf33XfXKsC3ve1tZZFFFqmVgt/61rfKJZdcUscw3r35+z333FOvoRtuuKFeJ5mr++67r3Spui7/PXT9fjTR/cVnBAgQIECAAAECBAgQIEBgEAQEdoMwC/pAgAABAiMt0PUH5AmiYpBKslTBLbXUUuXAAw+s1WjLLbdcefrTn16XuMxnCVVm97r99tvLW9/61lol9pKXvKSkOmzLLbesVXrPfe5za7iUSrLxr7kd2I09X5aVTIXXrrvuWlKdlv4nfJvoldAxgVjGkcquX/3qVzVgSmg3k4Fd2kxFX/YRXGyxxer+bf/5n/9ZvvSlL9XAcKK+JmRN+Lnhhhs+su/boAR2Mf74xz9edt5557ocZq6fVDzG8+9///tEw6mf5TpMCHnttdfWZTBTsZnAbnzAO9sTjMgvun4/GpFpNAwCBAgQIECAAAECBAgQGEEBgd0ITqohESBAgMBgCXhAXuqSgwlLUgWX/dA23njjWiWX5SRT9ZWKu+w/lwBldq8ENVlycpdddimp+EpQkz3Y1l133ZIKvexhliqx8a+xAVvCwlTEZQ+zVMSl+mqqlW3NeRO8pS+XXXZZWWONNWrFWvrxmte8plx//fV1DBOFdlka9Ktf/WpdujHHP/vZz67B5Ze//OUanE21H+PHk/37EsiddtppJXvhjX/dddddZY899qhh58ILL1wr0s4+++ySwGqi6rL0I+PIspizZs2qy04uu+yyA1Nhl2sk/c+SlqnWzB52Ce8S4mVeZvfKPojvec97yutf//qy8sor1+smeynedNNNnQrt3I9md4X4nAABAgQIECBAgAABAgQItCsgsGvXX+sECBAg0AEBD8j/b5JT/faKV7yirL766mWdddYpqYpbYIEFavB28sknl4QnCaNm98rSjglp/v3f/70uo5nKtgRKa621Vtlpp53KfvvtN2FgMz7gmm5glzAuoVGWtVxvvfVqH9KP7PWWPfQSTCacS7sJxPJOFV2WYMw+a6nGy7KUCSo/+tGPlhNOOGHGA7vs8bbtttuWBHZjK9LSz1TTJaTLzwR+Cfh++tOflpNOOqke+4QnPKGGfAlbE241r1QKbr311jWEXXDBBWv1ZK712b2ypGmq9GKV9/iKvfHfa/67SZ9TSZlANn2L689+9rPyta99rV4HT3nKU8ob3/jGWkGYZUZTUZhlS1Ntl3f+nGU0syxrwrrnP//5tcowy6jmPAK78fL+ToAAAQIECBAgQIAAAQIECLQhILBrQ12bBAgQINApgSZ4yHKQkwUao46S6reEVZtvvnkNTBLW5Z1qp0svvbSGbalem90rQU2CpK985Ss1QJp33nnLfPPNV/98+OGHl29+85sTVpjN7cAu/Utol2AoVXqp1kuVW/ZTy55vCcbSlywBmiq2VOKdeOKJ5eCDDy4JiRLULbPMMrXC68ILL6x7yD300ENTrvQbP545Vdgl6PzCF75Q9tlnn7p850ILLVTe9KY31YDrF7/4RbnuuutqmJiquvT785//fF12NBWAWUIzVZBxfuYzn/mo67etwC72MciSnW9+85vLC1/4whqAxjTX18c+9rEanGZPu/j+6Ec/KnvttVfd7zAVeQn4Etzl2Ntuu61T1XW5dt2PZneH8TkBAgQIECBAgAABAgQIEGhXQGDXrr/WCRAgQKADAh6Q/98kp8opwcl2221Xw6155pmnLmeY5SGvueaa2S4l2VwiqVRL+HXGGWfUwCuB3eMe97gagGU/tizhmGqq8a/xAdd0K+ya86c67ZRTTqnLUSZ0zHKbqfbLvm+f/vSna0iXpRvT3/33378GZEsvvXQNzVLl9YY3vKGGZTO9h12q5k4//fRy6KGH1iq4VPdl/7+Edqeeemr53ve+V4PQ+B155JFl3333rRWQCRebPQYf//jH1++mqrBZRrOtwK7xTwC82267lS222KJeAwlCM6ZUW6Y6MOFjlgk9/vjjy/bbb1+XLM0cJdjL0phZXnWyJTSbdkbtp/vRqM2o8RAgQIAAAQIECBAgQIDAqAgI7EZlJo2DAAECBAZWwAPy/5uaBFwJULLfWkKjVNelOmqrrbaqVWYT7fs2dlKbpSgT7qX6KxVtqfzK8ooXXXRRyR5lqVQb/5qpwC79yZiy1GeW6kwYmeU+E8olGMr7Gc94Rn2nqiuBUpbNTHXXOeecU1IBlr41VYUztYddzp+9+lJB1+zhlr6lei7LY6a/CbESzmVPvix9uffee5cDDjigfOhDH6qVadknLsd95zvfKVdffXVdPrPtwC5eN9xwQ/nVr35V/u3f/q0GoBlDqugyvowt7/w511v24UtYnP38cg3lemnsx18zo/x396NRnl1jI0CAAAECBAgQIECAAIFhFhDYDfPs6TsBAgQIDIWAB+T/N02pfvv+979fjjvuuLqP2GqrrVaXNHzf+95XUi01lVcT0rz61a8uqcxLZdsGG2xQA5imUm38ebKPWcKxM888s1aOpQou+9198YtfLFkuMiHfrbfeWpdPTFiV0CoBUJZWnEoFVvazy7mPPvrouiTm2muvXfdWSwjWhEYJklZZZZU63izFeMUVVzyyFGbT36n2Y/x40l7aTjVf+jLRK24JqFJV9t73vrcGngk6Eyimj+lrlmzN3oKbbLJJ+dznPlf31jviiCOqVcwSrqYarwnscr6MJRVuqcbLnnRj97gb348sP5klLHNc3vlzPpvdK+fKcbObjybAzd54Bx54YB1X9kXMNZHxJGBswsh8Fqfs5XfUUUfVvfBi0sWX+1EXZ92YCRAgQIAAAQIECBAgQGAYBAR2wzBL+kiAAAECQy3gAfn/TV8CloR2qUq78cYba3VUApteK50SbKWqLeeIbYKdBx98cLbVUmk3IVfCrHwn7wRxCevyu7wS3uSYnCtVWwkQc8xUKrByjiw7mfOlX9lb7fzzz69LdCbI+/a3v13DwIR0CZcy3iwrOVFgNJV+TDSehJUZXzOeif6DyVgypjvuuKNcddVVtTLtrLPOqmFjlsNMn9P3jCFjyTylMi/fiVlsMn/Nkpg5X8aSOYxZfj9RhWPTl/wux8Yg7/x5TsfPaT4y3pyjGVf247vyyivLD37wg3LuuefWd8aWkDEVhnfddVcd01Tmten3qP10Pxq1GTUeAgQIECBAgAABAgQIEBgVAYHdqMykcRAgQIDAwAp4QD6wUzMjHUvolqDpd7/7Xd1zL0FdQrJ77713SgHgjHRqzEkTciXgS3iVcCv7Aqav6fNEIeKYrw70HzOuhJYJG3/729+Wa6+9tr4T1CVQTSDrVWrInWrKvHNv8iJAgAABAgQIECBAgAABAgQGQ0BgNxjzoBcECBAgMMICArsRntzZDC3BV1Mtl6AoFV2DVNXV9Cd9y7vp72yGMzQfJ7TLOxWXY9/N50MzkBnsqPvRDOI6NQECBAgQIECAAAECBAgQmIaAwG4aeL5KgAABAgSmIuAB+VSUHEOAQD8E3I/6oawNAgQIECBAgAABAgQIECDQu4DArncz3yBAgAABAj0JeEDeE5eDCRCYQQH3oxnEdWoCBAgQIECAAAECBAgQIDANAYHdNPB8lQABAgQITEXAA/KpKDmGAIF+CLgf9UNZGwQIECBAgAABAgQIECBAoHcBgV3vZr5BgAABAgR6EvCAvCcuBxMgMIMC7kcziOvUBAgQIECAAAECBAgQIEBgGgICu2ng+SoBAgQIEJiKgAfkU1FyDAEC/RBwP+qHsjYIECBAgAABAgQIECBAgEDvAgK73s18gwABAgQI9CTgAXlPXA4mQGAGBdyPZhDXqQkQIECAAAECBAgQIECAwDQEBHbTwPNVAgQIECAwFQEPyKei5BgCBPoh4H7UD2VtECBAgAABAgQIECBAgACB3gUEdr2b+QYBAgQIEOhJwAPynrgcTIDADAq4H80grlMTIECAAAECBAgQIECAAIFpCAjspoHnqwQIECBAYCoCHpBPRckxBAj0Q8D9qB/K2iBAgAABAgQIECBAgAABAr0LCOx6N/MNAgQIECDQk4AH5D1xOZgAgRkUcD+aQVynJkCAAAECBAgQIECAAAEC0xAQ2E0Dz1cJECBAgMBUBDwgn4qSYwgQ6IeA+1E/lLVBgAABAgQIECBAgAABAgR6FxDY9W7mGwQIECBAoCcBD8h74nIwAQIzKOB+NIO4Tk2AAAECBAgQIECAAAECBKYhILCbBp6vEiBAgACBqQh4QD4VJccQINAPAfejfihrgwABAgQIECBAgAABAgQI9C4gsOvdzDcIECBAgEBPAh6Q98TlYAIEZlDA/WgGcZ2aAAECBAgQIECAAAECBAhMQ0BgNw08XyVAgAABAlMR8IB8KkqOIUCgHwLuR/1Q1gYBAgQIECBAgAABAgQIEOhdQGDXu5lvECBAgACBngQ8IO+Jy8EECMyggPvRDOI6NQECBAgQIECAAAECBAgQmIaAwG4aeL5KgAABAgSmIuAB+VSUHEOAQD8E3I/6oawNAgQIECBAgAABAgQIECDQu4DArncz3yBAgAABAj0JeEDeE5eDCRCYQQH3oxnEdWoCBAgQIECAAAECBAgQIDANAYHdNPB8lQABAgQITEXAA/KpKDmGAIF+CLgf9UNZGwQIECBAgAABAgQIECBAoHcBgV3vZr5BgAABAgR6EvCAvCcuBxMgMIMC7kcziOvUBAgQIECAAAECBAgQIEBgGgICu2ng+SoBAgQIEJiKgAfkU1FyDAEC/RBwP+qHsjYIECBAgAABAgQIECBAgEDvAgK73s18gwABAgQI9CTgAXlPXA4mQGAGBdyPTfbJOgAAIABJREFUZhDXqQkQIECAAAECBAgQIECAwDQEBHbTwPNVAgQIECAwFQEPyKei5BgCBPoh4H7UD2VtECBAgAABAgQIECBAgACB3gUEdr2b+QYBAgQIEOhJwAPynrgcTIDADAq4H80grlMTIECAAAECBAgQIECAAIFpCAjspoHnqwQIECBAYCoCHpBPRckxBAj0Q8D9qB/K2iBAgAABAgQIECBAgAABAr0LCOx6N/MNAgQIECDQk4AH5D1xOZgAgRkUcD+aQVynJkCAAAECBAgQIECAAAEC0xAQ2E0Dz1cJECBAgMBUBDwgn4qSYwgQ6IeA+1E/lLVBgAABAgQIECBAgAABAgR6FxDY9W7mGwQIECBAoCcBD8h74nIwAQIzKOB+NIO4Tk2AAAECBAgQIECAAAECBKYhILCbBp6vEiBAgACBqQh4QD4VJccQINAPAfejfihrgwABAgQIECBAgAABAgQI9C4gsOvdzDcIECBAgEBPAh6Q98TlYAIEZlDA/WgGcZ2aAAECBAgQIECAAAECBAhMQ0BgNw08XyVAgAABAlMR8IB8KkqOIUCgHwLuR/1Q1gYBAgQIECBAgAABAgQIEOhdQGDXu5lvECBAgACBngQ8IO+Jy8EECMyggPvRDOI6NQECBAgQIECAAAECBAgQmIaAwG4aeL5KgAABAgSmIuAB+VSUHEOAQD8E3I/6oawNAgQIECBAgAABAgQIECDQu4DArncz3yBAgAABAj0JeEDeE5eDCRCYQQH3oxnEdWoCBAgQIECAAAECBAgQIDANAYHdNPB8lQABAgQITEXAA/KpKDmGAIF+CLgf9UNZGwQIECBAgAABAgQIECBAoHcBgV3vZr5BgAABAgR6EvCAvCcuBxMgMIMC7kcziOvUBAgQIECAAAECBAgQIEBgGgICu2ng+SoBAgQIEJiKgAfkU1FyDAEC/RBwP+qHsjYIECBAgAABAgQIECBAgEDvAgK73s18gwABAgQI9CTgAXlPXA4mQGAGBdyPZhDXqQkQIECAAAECBAgQIECAwDQEBHbTwPNVAgQIECAwFYE8IF9ppZXKCiusUM4///ySv3szcA24Btq4BnIPyr0o96S070WAAAECBAgMn8BDDz1Ubr/99nLLLbf4d4V/W7kGXAOtXwO5F+WelHuTFwEC0xMQ2E3Pz7cJECBAgMAcBW688cby/Oc/vyy55JJl+eWXrw/L88Dcm4FrwDXQ72sg96Dci3JPyr3JiwABAgQIEBg+gTwY32abbcoGG2xQVl55Zf+u8G8r14BroLVrIPeg3ItyT8q9yYsAgekJCOym5+fbBAgQIEBgjgK33npr2Xzzzcvaa6/9SKVdvx/Sa294g6EELE9+8pPLoosuWuadd976zp/zmQB4eOe1rf8mU1mXe1HuSbk3eREgQIAAAQLDJ3DzzTeXDTfcsP7bYtasWa09qG/r/2e06/+BXQODcw3kHpR/Y+SelHuTFwEC0xMQ2E3Pz7cJECBAgMAcBbIsRB6M33TTTa0vVdHGEnzanN7Sj1dccUX5yEc+Unbcccca2iWsy5/zWX7Hd3q+XfTLvSj3JEvWzPH27QACBAgQIDCQAvn/l1S1rLjiipbctxyifw+4Blq9BrLkfu5FuSfl3uRFgMD0BAR20/PzbQIECBAgQIDAjAr8z//8TznssMPK+9///rL44ovXd/6cz/I7LwIECBAgQIAAgW4J5KF4U2HkAXm35t5oCQyagPvRoM2I/gy7gMBu2GdQ/wkQIECAAIGRFhDYjfT0GhwBAgQIECBAoGcBD8h7JvMFAgRmSMD9aIZgnbazAgK7zk69gRMgQIAAAQLDICCwG4ZZ0kcCBAgQIECAQP8EPCDvn7WWCBCYXMD9aHIfvyXQq4DArlcxxxMgQIAAAQIE+iggsOsjtqYIECBAgAABAkMg4AH5EEySLhLoiID7UUcm2jD7JiCw6xu1hggQIECAAAECvQsI7Ho38w0CBAgQIECAwCgLeEA+yrNrbASGS8D9aLjmS28HX0BgN/hzpIcECBAgQIBAhwUEdh2efEMnQIAAAQIECEwg4AH5BCg+IkCgFQH3o1bYNTrCAgK7EZ5cQyNAgAABAgSGX0BgN/xzaAQECBAgQIAAgbkp4AH53NR0LgIEpiPgfjQdPd8l8FgBgd1jTXxCgAABAgQIEBgYAYHdwEyFjhAgQIAAAQIEBkLAA/KBmAadIECglOJ+5DIgMHcFBHZz19PZCBAgQIAAAQJzVUBgN1c5nYwAAQIECBAgMPQCHpAP/RQaAIGREXA/GpmpNJABERDYDchE6AYBAgQIECBAYCIBgd1EKj4jQIAAAQIECHRXwAPy7s69kRMYNAH3o0GbEf0ZdgGB3bDPoP4TIECAAAECIy0gsBvp6TU4AgQIECBAgEDPAh6Q90zmCwQIzJCA+9EMwTptZwUEdp2degMnQIAAAQIEhkFAYDcMs6SPBAgQIECAAIH+CXhA3j9rLREgMLmA+9HkPn5LoFcBgV2vYo4nQIAAAQIECPRRQGDXR2xNESBAgAABAgSGQMAD8iGYJF0k0BEB96OOTLRh9k1AYNc3ag0RIECAAAECBHoXENj1buYbBAgQIECAAIFRFvCAfJRn19gIDJeA+9FwzZfeDr6AwG7w50gPCRAgQIAAgQ4LCOw6PPmGToAAAQIECBCYQMAD8glQfESAQCsC7ketsGt0hAUEdiM8uYZGgAABAgQIDL+AwG7459AICBAgQIAAAQJzU8AD8rmp6VwECExHwP1oOnq+S+CxAgK7x5r4hAABAgQIECAwMAICu4GZCh0hQIAAAQIECAyEgAfkAzENOkGAQCnF/chlQGDuCgjs5q6nsxEgQIAAAQIE5qqAwG6ucjoZAQIECBAgQGDoBTwgH/opNAACIyPgfjQyU2kgAyIgsBuQidANAgQIECBAgMBEAgK7iVR8RoAAAQIECBDoroAH5N2deyMnMGgC7keDNiP6M+wCArthn0H9J0CAAAECBEZaQGA30tNrcAQIECBAgACBngU8IO+ZzBcIEJghAfejGYJ12s4KCOw6O/UGToAAAQIECAyDgMBuGGZJHwkQIECAAAEC/RPwgLx/1loiQGByAfejyX38lkCvAgK7XsUcT4AAAQIECBDoo4DAro/YmiJAgAABAgQIDIGAB+RDMEm6SKAjAu5HHZlow+ybgMCub9QaIkCAAAECBAj0LiCw693MNwgQIECAAAECoyzgAfkoz66xERguAfej4ZovvR18AYHd4M+RHhIgQIAAAQIdFhDYdXjyDZ0AAQIECBAgMIGAB+QToPiIAIFWBNyPWmHX6AgLCOxGeHINjQABAgQIEBh+AYHd8M+hERAgQIAAAQIE5qaAB+RzU9O5CBCYjoD70XT0fJfAYwUEdo818QkBAgQIECBAYGAEBHYDMxU6QoAAAQIECBAYCAEPyAdiGnSCAIFSivuRy4DA3BUQ2M1dT2cjQIAAAQIECMxVAYHdXOV0MgIECBAgQIDA0At4QD70U2gABEZGwP1oZKbSQAZEQGA3IBOhGwQIECBAgACBiQQEdhOp+IwAAQIECBAg0F0BD8i7O/dGTmDQBNyPBm1G9GfYBQR2wz6D+k+AAAECBAiMtIDAbqSn1+AIECBAgAABAj0LeEDeM5kvECAwQwLuRzME67SdFRDYdXbqDZwAAQIECBAYBgGB3TDMkj4SIECAAAECBPon4AF5/6y1RIDA5ALuR5P7+C2BXgUEdr2KOZ4AAQIECBAg0EcBgV0fsTVFgAABAgQIEBgCAQ/Ih2CSdJFARwTcjzoy0YbZNwGBXd+oNUSAAAECBAgQ6F1AYNe7mW8QIECAAAECBEZZwAPyUZ5dYyMwXALuR8M1X3o7+AICu8GfIz0kQIAAAQIEOiwgsOvw5Bs6AQIECBAgQGACAQ/IJ0DxEQECrQi4H7XCrtERFhDYjfDkGhoBAgQIECAw/AICu+GfQyMgQIAAAQIECMxNAQ/I56amcxEgMB0B96Pp6PkugccKCOwea+ITAgQIECBAgMDACAjsBmYqdIQAAQIECBAgMBACHpAPxDToBAECpRT3I5cBgbkrILCbu57ORoAAAQIECBCYqwICu7nK6WQECBAgQIAAgaEX8IB86KfQAAiMjID70chMpYEMiIDAbkAmQjcIECBAgAABAhMJCOwmUvEZAQIECBAgQKC7Ah6Qd3fujZzAoAm4Hw3ajOjPsAsI7IZ9BvWfAAECBAgQGGkBgd1IT6/BESBAgAABAgR6FvCAvGcyXyBAYIYE3I9mCNZpOysgsOvs1Bs4AQIECBAgMAwCArthmCV9JECAAAECBAj0T8AD8v5Z99LSww8/XPL/7vfcc0+56667pv3OeXLOfr7S3kRt5rN//OMfdWx33313ue+++8r9999f/vd//3fC7s3uPBMe7MOhFnA/Gurp0/kBFBDYDeCk6BIBAgQIECBAoBEQ2DUSfhIgQIAAAQIECETAA/LBvA7y/+1HHXVU2X///cuHP/zhsvvuu0/r/bGPfawGZP0abcK3P//5z/U9NohL+HbvvfeW3//+9+WjH/1o2Xvvvcu3vvWt8uMf/7iGduP71xyf7+TPXqMt4H402vNrdP0XENj131yLBAgQIECAAIEpCwjspkzlQAIECBAgQIBAJwQ8IB/MaU7lWcKsnXfeuWy99dZlyy23nNb73e9+d7nzzjtnfLAJ1VLNl7Zybd144421mq5pOL//4x//WK6++uo6th122KEcd9xx5ayzzqqVds1xCfn+9re/lT/96U/l17/+dbnqqqvKgw8+2PzazxEVcD8a0Yk1rNYEBHat0WuYAAECBAgQIDBnAYHdnI0cQYAAAQIECBDokoAH5IM527fcckvZeOONy6qrrloWX3zxsvDCC0/rvcYaa5QbbrhhxgebsO6ggw4qe+yxR/nABz5Qq+jyWfN66KGHys0331wuuOCCstpqq5VlllmmHvuZz3ymLgHaHJew7kc/+lE56aSTyktf+tKyySablJh4jbaA+9Foz6/R9V9AYNd/cy0SIECAAAECBKYsILCbMpUDCRAgQIAAAQKdEPCAfDCnOaHW+uuvX5Zddtmy4IILlgUWWKD+eYUVVij/zDvnuummm2Z8sKme23XXXcs222xTUj2XpTyzB1/zSmCX4O0Xv/hFWXvttWsgmUrCo48+ulbTNcf99a9/Ld/4xjfK4YcfXlZcccWy5ppr9iVwbNr3sx0B96N23LU6ugICu9GdWyMjQIAAAQIERkBAYDcCk2gIBAgQIECAAIG5KOAB+VzEnIunagK7hHPLLbdcWXfddcvPf/7zusxk5qzXd8K6hGUz/UoVX6r5llpqqbLVVls9JrDLUpf33XdfXRbzjDPOKF//+tfLpZdeWq677rpHLXmZJUH32muvst1225XFFlushnYZs9doC7gfjfb8Gl3/BQR2/TfXIgECBAgQIEBgygICuylTOZAAAQIECBAg0AkBD8gHc5qbwG7WrFkl71TI5bN+vrLf3Nj3VNpurqcs4Zl998ZX2OUcf//732s13SWXXFIuuuii8oc//KHceuutjwoUU5WX7+YcOVeCS4HdVGZguI9prh/zPdzzqPeDIyCwG5y50BMCBAgQIECAwGMEBHaPIfEBAQIECBAgQKDTAh6QD+b0tx3YJai79957S/afy78h/vznP5dUx83p1VxPkwV2OU/On+Au7wcffLD84x//eNSpBXaP4ujMX5rrR2DXmSk30BkWENjNMLDTEyBAgAABAgSmIyCwm46e7xIgQIAAAQIERk/AA/LBnNOZDuwSmGXZyew5l3cCsr/97W91ucrbbrut3HjjjeXyyy+vy1Xm569//eta4XfHHXfUYxK0Na/8Octc5nvZmy777j3pSU8qr3vd68rOO+9crrjiilpB95e//KW2kXDugQceqMensi7/RsnvEuRl2c4777yzXHXVVfW7OUfOlXPm3Nn/Lv1OmNgEijlH2k7/c97JXmnjT3/6Uw0im+/lO/1YLnSyfvnd/wm4H7kSCMxdAYHd3PV0NgIECBAgQIDAXBUQ2M1VTicjQIAAAQIECAy9gAfkgzmFMx3YJfT6yEc+Unbdddf63mOPPcq5555bzjrrrPKmN72pbLDBBmWllVaq++dlD71nPvOZ5dWvfnXZfvvty3nnnVcDvARdeSfM+8EPflA233zzss4665QFFligzDvvvGWJJZaoQdsLX/jC8trXvrZ87Wtfq8flmksIuMUWW9RzfvrTny6nnHJKDe0S1r373e8um222WV0GM+fIuXLOnHvjjTcue++9d/n4xz9eDj300HLAAQeUTTbZpLz+9a8vP/nJT8pvfvObR+2FN352Uyl4/PHHl4MOOqi86lWvqn1IXxJECu3Ga/X/7+5H/TfX4mgLCOxGe36NjgABAgQIEBhyAYHdkE+g7hMgQIAAAQIE5rKAB+RzGXQunW6mA7sEY+95z3vKVlttVUOrbbfdtnzhC18on//858uGG25Y1lxzzfL0pz+9PPWpTy2LL754/bnGGmuUjTbaqJxwwgnl+9///iOVdgm8vvvd75ZXvvKVJcfMP//8NWTL95Zccsl6rpe97GXlxBNPrMddf/315Ze//GVZd9116/H77rtvbTuVbwnO3vGOd9RzPeMZz6htJ7DLOXPul7zkJeXDH/5wyXcS2u25557187XXXrt885vfrHvija3+Gz8dWeIzYd173/vestZaa9W9AbOXnsBuvFQ7f3c/asddq6MrILAb3bk1MgIECBAgQGAEBAR2IzCJhkCAAAECBAgQmIsCHpDPRcy5eKqZDuxuv/32kpAuAdyznvWssvLKK9eKuoRi2223Xa1yO/DAAx8Jt1JZl/Bt0UUXLauvvnqtjPv9739fQ7ssLXndddeVY445plbtPeUpT6kB2/Oe97zyile8onzsYx+rQeCvfvWrcs0115R87/zzzy+zZs0qT3va08oHP/jBkiq7ZmnMU089tf49AWDOkbAu50xF4Gc+85laBZhqwB/96Efl5JNPLssss0wNFN///veXww47rC6VObupyJKaOe+zn/3s8qIXvai88Y1vrEt9qq6bnVh/P3c/6q+31kZfQGA3+nNshAQIECBAgMAQCwjshnjydJ0AAQIECBAgMJcFElL87ne/q0sPrrDCCiUPy70GQ6AJ7DIvWZIy1WgXXXRRDZfyu6m+x+8R14wugd3WW29dK8yWX375kmq2tJMwLgFaQraTTjqpLmP5yU9+svzHf/xHWXHFFWtwlmUqU9GWfeby74vsgZc977797W+Xz372s3UpzAUXXLBWw2Wpyi996UvljDPOqKHeH/7wh5J3ArsEbanCa4K2nCv70DVB3Bve8IZ6jpwrbebcqaK74IILyoUXXlhSGXf22WeX9D+BXoLGvfbaq+5x14yz+Zm961J5l+q+LK0Z14SJb3/722t1XXOcn+0KCOza9df66AkI7EZvTo2IAAECBAgQGCEBgd0ITaahECBAgAABAgSmIfDwww+Xu+66q6TqKUGNwG4amDPw1Sawy9wstNBCtbItod3666/f0zv7zo3dI67pahPYvfjFL67nz9KXu+++ezn88MNrcJulI//yl7/Ud/4Nkaq47HOXqrzFFlus7k33rW99q1x66aU1ZPvHP/5Rq+2uvvrqGqClz9mjbrfddis33HBD/d2DDz5Y7r///nLTTTfNNrBLsJbQLgFgvptz5FwJ5XLu++67r54j4VveCZyzhGf22FtttdVqCJfQJ/0Z+8qxCTxPP/30GhQmAEzF3he/+MWSfe28BkNAYDcY86AXoyMgsBuduTQSAgQIECBAYAQFBHYjOKmGRIAAAQIECBDoQSCBSIKYu+++u1xxxRV1ecFUVwnsekDsw6FNYLfsssuWJz7xifWdJSSzdGUv7+c///m1Wu644457VDA1NrBLBVsCu1TSnXbaafX6GD/Ee++9txxyyCFll112qYHdUkstVZej/PnPf14DtOb4JnBZeOGFy5ZbbllDwATDzStB2mSBXXNcvpMAMefIuWZ3faaCcPPNN68Vf7FK9dy1115b/vrXv5Zc680rIeD3vve9cuyxx5b0PYHdkUceWc4888x6bHOcn+0KNNfP7Oa73d5pncDwCQjshm/O9JgAAQIECBDokIDArkOTbagECBAgQIAAgXECCUvy/4OpMjriiCPqcoOrrLJKmW+++WYbiIw7hb/2SWBsYDe2wu6lL31p6eW96aab1rnOvnAJapvX+MAuYdcvfvGLctttt5WJ9nPLd7/61a+W7GuXcG9s4JWqt+bVBC79CuwSJCZofO9731uXxcwym7m+U02XqrrmlYB6n332qUtgZt+8hJ455s477yypNvUaDIHm+hHYDcZ86MXwCwjshn8OjYAAAQIECBAYYQGB3QhPrqERIECAAAECBGYj8MADD9RlBm+55Za6rOChhx5aq5ey3OIiiyxS5plnHoHdbOza+rgJ7DJHiy66aEnIlP3gsu9cL+8dd9yxHH/88XWvt7HB2vjALktOXnnllbUKb2xlWjP+VKyl+i7hWPqSd5bPzJ5y+V3zagKXfgV2Wc4y49tvv/1qYLfkkkvWKrpU06WqLq+M54477ijvec97ajXe0ksvXZ7znOfUSryYTDTeZjx+9leguX4Edv1119roCgjsRndujYwAAQIECBAYAQGB3QhMoiEQIECAAAECBHoQyL5h2fvrv/7rv2p10ate9aqSJTAXX3zx8oQnPKHMO++85XGPe5zArgfTfhzaBHYJLhKmvehFLyqXXHJJSdDWyztBVarjxgdT4wO7tJN96mZXbTZRYNcsodlmYJeq0euvv7788Ic/rNfwk5/85Hqdp5ouVXV5pdLut7/9bV0uM+N87WtfW3beeeca4gnr+nE1T70Ngd3UrRxJYCoCArupKDmGAAECBAgQINCSgMCuJXjNEiBAgAABAgT6KJDQJUFGlgvMHl/nnntuOeGEE8pGG21UVl999bof2vzzz/9IpVRCOxUtfZygKTTVBHbZty7v9ddfv+SzufWaKLBLWDK716AGdlm+M6Fklrd81rOeVVJht9lmm9Vqunye3+e/g8svv7ysttpqdf+67bbbruy5556PBHqzG7PP+y8gsOu/uRZHW0BgN9rza3QECBAgQIDAkAsI7IZ8AnWfAAECBAgQIDAHgVQMZZnAG2+8sRx88MFlt912qyFdlgF84hOfWN+psFtzzTXLIYcc8sieZAK7OcD2+dcCu7vqsq1bbrllyfKak12fCeWy3Ou2225bNthgg5JlRNdZZ51aVXfPPfeU7373u+Xoo4+uYd5SSy1VjjnmmBpiN0tm9nlqNTeJgMBuEhy/IvBPCAjs/gk0XyFAgAABAgQI9EtAYNcvae0QIECAAAECBPorkKAuyx7m//euu+66csEFF9Qqoy222KIstthiZb755qt7oS2xxBI1zMiygKeccko58cQTa9XRZIFIf0eitQgI7KYe2MXrj3/8Y9l1113rPn+5xlNNd8UVV1THL3/5y+XjH/94DeyWWWaZcvrpp9eKvCyV6TVYAgK7wZoPvRl+AYHd8M+hERAgQIAAAQIjLCCwG+HJNTQCBAgQIECg0wIJ67L05fHHH19e/vKXl7XWWqs85SlPqdVJCeuyt1eWAtxjjz1qWJF9v7K32bXXXlv3SBPYDdblI7DrLbAbu2RnArtU0h177LHlpJNOKjvssENdJjNLi6byLtd+wjr71w3WNZ/eCOwGb070aLgFBHbDPX96T4AAAQIECIy4gMBuxCfY8AgQIECAAIFOCTz44IM1eLjzzjvL7373uxpQ7LvvvmWVVVYpT33qU+vyl0960pNKqoqyBGb27frMZz5TbrvttlqNl8DCA/LBvGSGPbBbaKGFSpaz3H333Wv1W6OcvRVvuummcv7559frcvHFFy/vf//7y2GHHVarQ5vj7rqrt8Auy1ued9555bjjjitPf/rTS0K7LPl6xBFHlNe97nV1qcxnP/vZ5RWveEVdPrNpx8/BEnA/Gqz50JvhFxDYDf8cGgEBAgQIECAwwgICuxGeXEMjQIAAAQIEOiWQ4CMPty+++OKyyy67lDe96U11765U1aWiLvvVPfe5zy2vetWr6hKAP/3pT8sdd9xR/vSnP5Xs+dVUF3lAPpiXzSgEdrkmP/CBD/QlsHv44Ydr4HfllVfW6tKE1Gk/7+zZuOyyy5Z3vetdZb/99ivZ185rMAXcjwZzXvRqeAUEdsM7d3pOgAABAgQIdEBAYNeBSTZEAgQIECBAYGQFErIlbEvolvAtIdzXv/71utzfuuuuW0O6JzzhCXUpzAQUm222WfnXf/3XugRmHoQn5Bv/8oB8vMhg/L0J7LJU6fLLL19e9KIX1T3ZUnn2z7wTUmUZyFRl5nX77beXrbfeurz4xS8uCy64YJnTkqhjl5x82tOeVvL+5Cc/WU477bSS3zWvXE8rrrhiXYr1Na95Tdl5553rEpS5ZtN+lm6daoXdhz70obLVVlvVcy233HLlsssuq2FblnLNeZrQuWk7589yl+uvv35ZeeWV69KwG264Yd3DMVV3WQ72s5/9bP3vp/mOn4Ml4H40WPOhN8MvILAb/jk0AgIECBAgQGCEBQR2Izy5hkaAAAECBAiMvEACiSx/ecwxx5SPfOQjdZnLBHNZ9jIVddmnLmHJPvvsUz73uc/V8CLH33///Y8ENeORPCAfLzIYf28CuwRVqZrMPO+00051icksM9nrO0ulXnrppbUqM8HtTAV2N9xwQ70us9RlqtyyDGWq2j7/+c/XatCrr766/P73v5/SkphZwvVtb3tbDewWW2yxWkmacZxyyil1v8aEdmNfCfD++Mc/lgR9b3nLW2pl3SKLLFLmnXfesvTSS5dzzjmnXHXVVeWBBx4Y+zV/HiAB96MBmgxdGQkBgd1ITKNBECBDC6eUAAAgAElEQVRAgAABAqMqILAb1Zk1LgIECBAgQGBUBRJCJKhLFVMeZid02Wuvvco73vGOGtBl+cvsF5aAJOHIRhttVPeyO/vss2sV0pxcPCCfk1A7vx8b2C266KK1oi17sWVfuH/mneUgs2/cddddV8PbmQrsUj2XCrdUBWYfxfxM2wnffvCDH5Rf/vKXNUie0x52qQg84IADakiZIDoGW2yxRdlxxx3LoYceWk488cTy5z//+TGTc++995aDDjqovPvd767tp+J0gQUWKCuttFIdf/o3UaXpY07kg1YE3I9aYdfoCAsI7EZ4cg2NAAECBAgQGH4Bgd3wz6ERECBAgAABAt0SSFj385//vHzzm98sCWzWWWedssQSS9QAY5555qlh3eabb16XHvzZz35Wrr322rqX10RLBk4k5wH5RCrtf9YEdqmsSyibKrEEswsvvPA/9X7mM59Zl69MYJZraqYCuwRmn/rUp8puu+1Wr9Mst5mwLUtuJrQ78sgja5XbnAK7VIXmuj/11FPLGmusUQPLnCchYJZ/ffOb31xuu+22x0xU872TTz65LLXUUmX++eevezm+/vWvLzfeeKOw7jFig/WB+9FgzYfeDL+AwG7459AICBAgQIAAgREWENiN8OQaGgECBAgQIDAyAtmnLnuNZa+yLDGY0OLwww8va621Vl3mL8tf5p3gLkHMrrvuWg488MB6bKqOxu/tNRmMB+ST6bT3u4RRCaWyd13mOIHXdN4Jes8888xyySWX1MAuS6XmuknV2qqrrlqr4lJ9NrtXAuBUbR599NFl7bXXru/8eXwlZ/aX++pXv1o+8YlP1GOyRGtCx9VXX70ujZnlXBMqX3jhhXX/vFzTWTLzi1/84qP2lsv1n+Uzf/jDH5ZNN920nivVerNmzSove9nLynbbbVdDx/H9zXKXl19+eR3rM57xjPrfSapO3/72t9d9H8cf7++DJeB+NFjzoTfDLyCwG/45NAICBAgQIEBghAUEdiM8uYZGgAABAgQIjIRAwro77rijhhUf/vCH6x5eCT0SzqVaKEHdKqusUtZbb71y3HHHle985zsl1VhZQjBL/T388MM9OXhA3hNX3w7OdZDQLnP7/9k7F7irpvz//0npflMpEqGZxuVXSRhEaOTWmIwxhJFcGpNGzCByybjFkGuYzBiDQWhCGoxLIvfccgmJV0VJ95vu8/2/3susHLtznnOe8+xz2Wd99ut1Xs95ztl77bXea5/PWuv7Xd+1qKOavoguw+lGdB0OXZ4TnHbcA6cwzjrumengGq7HIUxavHgfjeTkPD5fsGCBW37z/ffft1deecU56LjfkiVLnDOafHBP0uHZ5fOooxnn27fffmuzZ8+2L774wl577TUXdTd16lS3D166pS25hn3q2K8Ohx37/7HfIw5B8qWjvAlIj8q7fpS75BGQwy55daYci4AIiIAIiIAIBERADruAKltFFQEREAEREAERSBQB7+ggqu6tt95yjrhf//rXtt9++zknXa1atdw+dTghDjzwQDvuuOPs+eeftw8++MBwUuR7yECeLzldVxWBVAffV1995ZxuVTkEq0qL77gWxx1ppXMU+utxBBK99/DDDzuHHY5uluEkupB9IHWUNwHpUXnXj3KXPAJy2CWvzpRjERABERABERCBgAjIYRdQZauoIiACIiACIiACiSFApBB7f/mlBPfYYw/bcccdrVGjRla/fn23dxmOusGDB7ulBokgwnHhI6ZqUlAZyGtCT9dWRQCnHS+e73TRcFVdm+47n45PN905ROtdeeWVbk/H1q1b249//GObPHmyiyasbvRpuvT1WWEJSI8Ky1eph0dADrvw6lwlFgEREAEREAERSBABOewSVFnKqgiIgAiIgAiIQMUTIBoIpxvLHhIpN3z4cBs0aJCLDGrQoIFz1DVu3Ng573DijRgxwkaPHu2ce3E4QAAsA3nFP2YVXUCccESlstzm119/7ZaS5TfE/n/bb7+9devWzS3NGV26s6KhJLhw0qMEV56yXpYE5LAry2pRpkRABERABERABETgOwJy2OlJEAEREAEREAEREIHyIMAylu+++649/fTTxtKXPXr0sC233NKaNGliLH9JZF3Pnj3txBNPtKeeesotk8m+YMuWLdtor6+alEgG8prQ07WlJsBvYujQoS6ijt9Knz593O+IiNT+/fvbsGHDnEOPqDwd5U9AelT+daQcJouAHHbJqq8a5Za1o5m5whIMiKleYqBnQM9AKZ8BtAhNqsma+DUSxSJeLP3Vb60mv7UpU6a4TdcZvDJbmxfv2Yid72qStq4N89kMSX8LLfXS9zB/Q9JO1Xu5PgPS98KoPtFARMaxbB9RdePGjbNRo0bZXnvtZTvssIPVrVvX6tSpY+y7RXTQySef7JwRU6dOtblz5xZkvMMzuO2227oX73WIQJIIEFl32mmnWe/evZ3Te88997QtttjCttlmG7vooovc72vJkiVJKlLQeZUeBV39KnwBCMhhVwCo5ZokhnE2OO7evbtbmsF37vT3u06uOIiDnoHiPQPs7YAWoUloU6Uf0t/iPVuV+Dtu166dNWvWzDnqNt10U+OF047P+K4Sy6wyFe43E5r+Frp9kb4X7lmVDoitnoHqPQPS98IoPs469qn7/PPP7aqrrrIzzzzTOelwzuGoq1evnrVt29Y6d+5sN910kz300EM2c+ZMI4JozZo1BXHWUVIZyAtT30q1OARmz57tnHWdOnWyFi1auOVkibJjWcxPPvnE/X60d11x6iKOu0iP4qCoNETgewJy2H3PouLfMRNsv/32czO+tttuOxn4/jcbTQPB6g0ExUu84ngG0CBmn6JJaFOlH9Jf/W7i+N0oDT1HcTwDoelvodsX6bt+l3H8LpWGnqM4ngHpe7yKz1J8y5cvd8469qmbOHGiW76PiKCGDRtumECF445IuyOPPNLGjh1rr776qrHHXaEPGcgLTVjpF5IAkacnnXSSWz525513ti5duthZZ51l1157rc2bN89FtBby/ko7XgLSo3h5KjURkMMuoGcAAWXWXfv27W3SpElaQkvLguoZ0DNQsmcADUKL0CS0qdIP6a+WzuIZ0EsMyuEZCE1/C92+SN/1uy6H37XyoOeQZ0D6Hq/ir1ixwh5//HG74447bP/99zecCk2bNrUGDRq4yDqigvr16+eWvnznnXdcPw8HH866Yuy7RZ17Ry/vdYhAkgiwpDhOOyLtZsyY4aJS58+f7xzkiqxLUk1+l1fpUfLqTDkubwJy2JV3/cSaOwlorDiVmAiIQA0IhKZHoZW3Bo+GLhUBESgwAelRvIDFM16eSk0ERCB/AtKj/Nn5K1nCcuXKlcb+Wp999pndeuutduGFF7qJhixFzvKXOOxwlLGU36WXXur22uL8YkTV+XzyV/WdSkPvRUAESklAelRK+rp3JRKQw64SazVDmSSgGcDoYxEQgaITCE2PQitv0R8o3VAERCBnAtKjnFHldKJ45oRJJ4mACBSBgPSoZpDXrl3rnHQsaXnyySfbIYccYltvvbXbM3izzTZzzrpu3bq5fbceffRRe+WVV5xjb8mSJW6fumJE1aWWUPWdSkPvRUAESklAelRK+rp3JRKQw64SazVDmSSgGcDoYxEQgaITCE2PQitv0R8o3VAERCBnAtKjnFHldKJ45oRJJ4mACBSBgPSo+pBxsrE03+LFi+3rr7+2CRMm2IMPPmgHHnigWwKTiLratWvbFltsYe3atbOjjjrKBg4caCyBOWvWrJLus6X6rn596woREIHCEJAeFYarUg2XgBx2AdW9BDSgylZRRaDMCYSmR6GVt8wfP2VPBIImID2Kt/rFM16eSk0ERCB/AtKj6rHDWcc+deyhdcstt9iQIUOck46ouvr167uIOhx1HTp0sMsvv9zuuusumz59uouqW716dUmddZRU9V29+tbZIiAChSMgPSocW6UcJgE57AKqdwloQJWtoopAmRMITY9CK2+ZP37KnggETUB6FG/1i2e8PJWaCIhA/gSkR7mxw1H37bff2tKlS23atGn2+uuv27nnnmt9+/a1pk2buoi6Ro0auai6XXfd1UXb3XPPPfbMM8+463K7S+HPUn0XnrHuIAIikBsB6VFunHSWCORKQA67XElVwHkS0AqoRBVBBCqEQGh6FFp5K+QxVTFEoCIJSI/irVbxjJenUhMBEcifgPQoN3Y461j68v7777devXrZbrvt5pxzOOlY/hKn3THHHGODBw829rP75JNPjH3quK7Y+9RVVSLVd1V09J0IiEAxCUiPiklb9wqBgBx2IdTy/8ooAQ2oslVUEShzAqHpUWjlLfPHT9kTgaAJSI/irX7xjJenUhMBEcifgPQoM7u1a9cay1jOmzfPPv/8cyNibvjw4daxY0dr1aqVWwKTZTC32mor22mnneyPf/yj3XDDDW6fOiLxyslR50up+vYk9FcERKDUBKRHpa4B3b/SCMhhV2k1WkV5JKBVwNFXIiACRSUQmh6FVt6iPky6mQiIQLUISI+qhSvryeKZFZFOEAERKBIB6VF60OvWrXP71E2ZMsXOOuss+9WvfmXt2rVzUXVE1NWrV8/tXXfAAQc4R97TTz9tc+bMscWLF7t96tavX58+4RJ/qvoucQXo9iIgAhsISI82oNAbEYiFgBx2sWBMRiIS0GTUk3IpAiEQCE2PQitvCM+wyigCSSUgPYq35sQzXp5KTQREIH8C0qPv2RERh6ONpSy/+eYbe/PNN+2JJ56wX/ziF7bXXns5J91mm21mzZo1s6233toOOeQQ69evn02cONE++ugjW7NmzfeJlek71XeZVoyyJQIBEpAeBVjpKnJBCchhV1C85ZW4BLS86kO5EYGQCYSmR6GVN+RnW2UXgXInID2Kt4bEM16eSk0ERCB/AtKj79mtWrXKLX95991325VXXmmdO3e2bbfd1ho2bOicdY0bN7ZtttnGzjvvPLvpppts6tSpLgqPfepYOjMJh+o7CbWkPIpAGASkR2HUs0pZPAJy2BWPdcnvJAEteRUoAyIgAv8jEJoehVZePegiIALlS0B6FG/diGe8PJWaCIhA/gRC1yOi6nDULV++3GbMmGHvvfeeXXbZZXb66adby5YtrW7dum6vuiZNmtiPf/xj23vvvW3kyJE2duzYDctf5k+/+FeGXt/FJ647ioAIZCIgPcpERp+LQH4E5LDLj1sir5KAJrLalGkRqEgCoelRaOWtyIdWhRKBCiEgPYq3IsUzXp5KTQREIH8CoesRzjq/9GWfPn1sn332sVatWhnRdLVq1bIGDRpYr1697OSTT7YXXnjBPvjgA1u0aJFz8OHsS9oRen0nrb6UXxGoZALSo0quXZWtFATksCsF9RLdUwJaIvC6rQiIwEYEQtOj0Mq7UYXrAxEQgbIhID2KtyrEM16eSk0ERCB/AiHq0bp169x+cwsWLLCZM2fav/71Lxc117VrV7cEZr169WzzzTd3EXY77LCDnXrqqXbppZfa559/7px17HOX1CPE+k5qXSnfIlDpBKRHlV7DKl+xCchhV2ziJbyfBLSE8HVrERCBHxAITY9CK+8PKlv/iIAIlBUB6VG81SGe8fJUaiIgAvkTCE2PcLbNnz/fpk2b5pxwOONwyrH8JU46nHXsW7f77rvb7bffbo8++qjNmjXLcO6tXbvWkuys4ykJrb7z/2XoShEQgUITkB4VmrDSD42AHHYB1bgENKDKVlFFoMwJhKZHoZW3zB8/ZU8EgiYgPYq3+sUzXp5KTQREIH8CoegRy1cuW7bMOd6mTJlizz//vPXr188td8mylyx/yT51W265pe2777521FFH2ZNPPmlvv/222+Muf8LldWUo9V1e1JUbERCBdASkR+mo6DMRyJ+AHHb5s0vclRLQxFWZMiwCFUsgND0KrbwV++CqYCJQAQSkR/FWonjGy1OpiYAI5E8gBD0iMm7x4sX2yCOP2M0332w//elP7Uc/+pFz0NWvX9/q1q3rIuzOOOMMu/LKK+399993UXUrVqxwzrok7lWX6YkIob4zlV2fi4AIlBcB6VF51Ydyk3wCctglvw5zLoEENGdUOlEERKDABELTo9DKW+DHR8mLgAjUgID0qAbw0lwqnmmg6CMREIGSEKhkPVq9erV9++239tVXX9lHH31kI0aMsD/84Q+2zTbbWOPGjd3ylw0bNnRLYHbu3NmGDx9u9957ry1cuNAtf1mSCinwTSu5vguMTsmLgAjETEB6FDNQJRc8ATnsAnoEJKABVbaKKgJlTiA0PQqtvGX++Cl7IhA0AelRvNUvnvHyVGoiIAL5E6hUPVqzZo1z0r3wwgv2m9/8xg4++GBr06aNNW3a1DbbbDMjsm6fffaxX/7ylzZ+/Hh78803bd68ebZ06VKrpIi66JNRqfUdLaf+FwERKH8C0qPyryPlMFkE5LBLVn3VKLcS0Brh08UiIAIxEghNj0Irb4yPipISARGImYD0KF6g4hkvT6UmAiKQP4FK0qP169e7yLhFixbZ7Nmz7emnn7Z//OMftv/++9tPfvITF1FXp04da9GihW233XZ27LHH2jnnnOOWwOT8devW5Q8yIVdWUn0nBLmyKQIikIGA9CgDGH0sAnkSkMMuT3BJvEwCmsRaU55FoDIJhKZHoZW3Mp9alUoEKoOA9CjeehTPeHkqNREQgfwJVIoeERVHdNzMmTPtmmuusd///vfOSbfVVls5R129evVchN0uu+xi1157rd133332xRdfuKg6ls5kn7sQjkqp7xDqSmUUgUonID2q9BpW+YpNQA67YhMv4f0koCWEr1uLgAj8gEBoehRaeX9Q2fpHBESgrAhIj+KtDvGMl6dSEwERyJ9A0vUIR92KFSts8eLF9sknn9grr7xiv/vd7+wXv/iFNWnSxGrXru32q2vZsqXtvvvudthhh9no0aNt4sSJtnLlyvzBJfTKpNd3QrEr2yIgAmkISI/SQNFHIlADAnLY1QBe0i6VgCatxpRfEahcAqHpUWjlrdwnVyUTgeQTkB7FW4fiGS9PpSYCIpA/gaTrEc46lr68++677YADDrBdd93Vmjdvbg0bNnTOumbNmtkJJ5xg559/vtun7rPPPrNly5Y5Z10l71WX6YlIen1nKpc+FwERSB4B6VHy6kw5Lm8CctiVd/3EmjsJaKw4lZgIiEANCISmR6GVtwaPhi4VAREoMAHpUbyAxTNenkpNBEQgfwJJ1KM1a9bYqlWr7JtvvrHp06fbnXfeacOGDbMOHTrYFlts4ZbArF+/vm299dbGEpgXXnihjRw50ubMmeOi8UJ01PknJIn17fOuvyIgApVFQHpUWfWp0pSegBx2pa+DouVAAlo01LqRCIhAFgKh6VFo5c1S/fpaBESghASkR/HCF894eSo1ERCB/AkkTY/Ya448T5482QYOHGhHHXWUbbPNNi6qjuUv2auuU6dOdvDBB9uDDz5oEyZMsLlz59qSJUts3bp1FrKzjqckafWd/5OtK0VABMqdgPSo3GtI+UsaATnsklZjNcivBLQG8HSpCIhArARC06PQyhvrw6LEREAEYiUgPYoVpwym8eJUaiIgAjUgkAR9x8mGsw2nG863l156ycaMGWNHHHGEdevWzTnpNttsM+e0a9u2rfv8tNNOs1dffdVYAhMnn47vCCShvlVXIiACYRCQHoVRzypl8QjIYVc81iW/kwS05FWgDIiACPyPQGh6FFp59aCLgAiULwHpUbx1I57x8lRqIiAC+RNIgh755S9HjRpll1xyiVvmEsccy14SUcc+de3bt7eLL77Ybr/9duekY7nMlStXGstn6vieQBLq+/vc6p0IiEAlE5AeVXLtqmylICCHXSmol+ieEtASgddtRUAENiIQmh6FVt6NKlwfiIAIlA0B6VG8VSGe8fJUaiIgAvkTKFc9IqoOR93y5ctdVPI777xjQ4cOtX79+jkHHctfNmjQwJo2bWo777yz7b///m4vu/Hjx7t96vInUtlXlmt9VzZ1lU4ERCAdAelROir6TATyJyCHXf7sEnelBDRxVaYMi0DFEghNj0Irb8U+uCqYCFQAAelRvJUonvHyVGoiIAL5EyhXPcJZx5KWY8eOtcMPP9x23313a9mypTVu3Ng22WQT56zr3bu3DRgwwF5++WX7+OOPbfHixc5ZF/o+dVU9DeVa31XlWd+JgAhUJgHpUWXWq0pVOgJy2JWOfdHvLAEtOnLdUAREIAOB0PQotPJmqHZ9LAIiUAYEpEfxVoJ4xstTqYmACORPoJz0iH3qWMJy/vz5NmPGDHvooYfsxhtvtF133dXatGnjlr9kCUwcdzvssIOdeeaZdvXVV7tzly5danLUZX8Oyqm+s+dWZ4iACFQyAelRJdeuylYKAnLYlYJ6ie4pAS0ReN1WBERgIwKh6VFo5d2owvWBCIhA2RCQHsVbFeIZL0+lJgIikD+BctEjnHVz5861qVOn2pAhQ+w3v/mNbb/99s45V6dOHees69Chg+29997297//3Z588kn78ssvbeHChbZ27Vpbv359/hACurJc6jsg5CqqCIhABgLSowxg9LEI5ElADrs8wSXxMgloEmtNeRaByiQQmh6FVt7KfGpVKhGoDALSo3jrUTzj5anUREAE8idQaj0iKo7oOKLq3nrrLXvqqaesb9++dsABB1j9+vWtVq1abp86IuwOPPBAO+644+z555+3Dz74wFavXp1/wQO9stT1HSh2FVsERCANAelRGij6SARqQEAOuxrAS9qlEtCk1ZjyKwKVSyA0PQqtvJX75KpkIpB8AtKjeOtQPOPlqdREQATyJ1BKPSIybtGiRXb//ffbn//8Z9tjjz1sxx13tEaNGjlnXYMGDdxSmIMHD3bff/jhh/bVV1+5ferY405H9QmUsr6rn1tdIQIiUMkEpEeVXLsqWykIyGFXCuoluqcEtETgdVsREIGNCISmR6GVd6MK1wciIAJlQ0B6FG9ViGe8PJWaCIhA/gRKoUc421asWOGWtCRSbvjw4TZo0CDnnMNJx6tx48bOeYcTb8SIETZ69Gjn3MPJpyN/AtQ3S41uu+22NmnSJON/vcRAz4CegVI8A2gQWoQmcX8dIiACNSMgh13N+CXqakQTAeUlAU1U1SmzIlBxBELTo9DKW3EPrAokAhVEQHoUb2WKZ7w8lZoIiED+BIqtRyxjiZPuueees1//+tfWo0cP23LLLa1JkyZu+UuWwezZs6edeOKJbnlMlslcsGCBLVu2zFg+U0fNCMycOdN22203a9WqlbVr126DrcfbfPT3O9uXOIiDnoHCPwNoEFqEJqFNOkRABGpGQA67mvFL1NXF7sAnCo4yKwIiUFQCoelRaOUt6sOkm4mACFSLgPSoWriyniyeWRHpBBEQgSIRKIYerV+/3oiMW7hwoYuqe/LJJ+2uu+6yvfbay3bYYQerW7eu1alTx1q2bOkiLU4++WQbOnSoTZ061ebOnWvr1q0rEo3Kv83s2bOtd+/e1qVLlw2RdnJMFN4xIcZirGdg42eAyDq0CE1Cm3SIgAjUjIAcdjXjl6iri9GBTxQQZVYERKBkBELTo9DKW7IHSzcWARHISkB6lBVRtU4Qz2rh0skiIAIFJFBoPcJZxz51n3/+uV111VV25plnOicdzjkcdfXq1bO2bdta586d7aabbrKHHnrIRVoQVbdmzRo562Kue5yfGMZnzZqlpTC1HKieAT0DJX8G0CI0SRMzYhZ7JRckATnsAqr2QnfgA0KpooqACNSQQGh6FFp5a/h46HIREIECEpAexQtXPOPlqdREQATyJ1AoPWL5yuXLlztnHUtgTpw40QYMGOAiKRo2bGibbrqp26cOxx2RdkceeaSNHTvWXn31VWOPOx0iIAIiIAIiIAIiIAK5E5DDLndWiT+zUB34xINRAURABIpOIDQ9Cq28RX+gdEMREIGcCUiPckaV04nimRMmnSQCIlAEAoXSoxUrVtjjjz9ud9xxh+2///628847W9OmTa1BgwYusq5FixbWr18/t/TlO++846I8cPDhrNNedUWoeN1CBERABERABESgogjIYVdR1Vl1YQrVga/6rvq2OgQY0BA+zp4A8+fPd38XL15sLD+S70GabOy9ZMkSt8k3abMkCXsPMJBaunTphs/5rCb3yjePui48AqHpUWjlzfZEozNe59C6XF6czzJMaBbahV5puY1spEv3PXWj+ikd/6ruLD2qik71vxPP9Mzof6LX9GNZDg8NL1U/kzZH/dv09VSdT8WxOrRKc26cesR4ceXKlfbNN9/YZ599ZrfeeqtdeOGF1r59e2vWrJlb/hKHHXs5derUyS699FIbNWqUO19RdaWpf91VBERABERABESgMgjIYVcZ9ZhTKeLswOd0Q51ULQIYNpi9+OWXX9rll19u5557rvvL4AhjR74HzrrRo0e7GZFDhgyxP/3pTzZt2jS3n8Cjjz5q//jHP9zgi8/ZjwCDuIwa+dLWdbkSCE2PQitvtucAw+0VV1xhf/jDH3J6oYcYgq688kq7++67bcyYMTZjxgzn6JNeZaNd/O+pE++EVf0Un3+2O0qPshGq3vfimZ4Xzrp7773Xbr75Zjv//PNd/7PY/UwchKtXr3Z9W/Vv09dTrp96Byz1ynsd5UkgLj3it4OTjiUtTzvtNDviiCNs6623do66zTbbzDnrunXr5pbEZDz5yiuvOEcdE0SZrKNnpDyfD+VKBERABERABEQgGQTksEtGPcWSy7g68LFkRolsRMA77DBC//73v7cTTjjBDZAuuOAC+/rrr92s5I0uyvIBaWIYv+GGG9wSJSeeeKINHDjQPv74Y/viiy+c4fv6669392Ifgo8++sjmzZsnh10Wrvq65gRC06PQypvtCWG29hlnnGFHH310Tq9jjjnGLbV0+oviE7QAACAASURBVOmn22WXXWYjRoywl156yd577z0XwaEll7IRL873tDkY63DWscfNhx9+6CK6i3N33SVXAtKjXEnldp54pueEg4z+JxE5xx13nNvvqlj9TB8Z9NVXX7kJajNnzjTeK+o3fV1V9anXdaIkp0+f7ib34czRUZ4EaqJH1DW/ESaKMvacMGGCPfjgg3bwwQe7CLp69epZ7dq1bYsttrB27drZUUcd5caVLIE5a9asvMaq5UlRuRIBERABERABERCB0hKQw660/It695p04Iua0YBvxkBpzpw5duyxx9ree+9tbNzdsWNHe/nll6s9ECItIvY++eQTt/n3dtttZ507d3YzJBlUzZ071xlRcAxuueWW9uMf/9jNjiTCTwaNgB/CIhU9ND0KrbzZHiMmJuy0007WsGHDnF+NGze2Jk2aWPPmzZ02dujQwfbZZx9jZvebb77p9knJdl99X1gCRF4QATl8+HA77LDD7Ne//rVr0wp7V6VeXQLSo+oSq/p88UzPh37mSSedZAcccICxv1Wx+pk4k6iTN954w90fZ+Hf/vY3GzdunOsXp8+tPs1EgEkY8Lvmmmscz0GDBrnJfZnO1+elJZCvHvlx4+zZs+2WW24xVmVhnzqi6urXr+8i6nDU0fdiJZi77rrLOXCZgEUUq5y4pa133V0EREAEREAERKCyCMhhV1n1WWVp8u3AV5movoydgDdw9OjRww2O2rRpY//+979dpAIDolwPliEjWu6tt95yRhL2Gujatav16dPHGVCZKTts2DA75ZRTbPvtt7cuXbrYa6+9phnIuQLWeTUiEJoehVbebA+H57HJJpvY5ptv7oxB22yzjdsHhb1Q0r2Yzc05GH5x2uHs4zyWDX788cfdvnYYnHSUjgARNTjrMOjutttuduCBB7plnkuXI905HQH/++P3w3sdNSMgnun5EaGD036vvfayunXrOsP/pEmTqj0BLX3qmT8luo5IvmeffdYOOugg6969u91000328MMPu3Yi85X6Jh0BVupgOWpW/2AixvHHH++ir9Kdq89KT6C6ekS/iX3q2EKBLRNef/11ty1D3759rWnTpi6ijv4W/a5dd93Vtev33HOPPfPMM/btt9+WvsDKgQiIgAiIgAiIgAhUIAE57CqwUjMVqbod+Ezp6PPCEvARCiz7xuAIRxt7f9x2221uqbFc70503RNPPGEjR460Vq1a/SAdljrB+ccSJkTvPfLII/bYY485Bx/XyeidK2Wdly+B0PQotPJmey48D5x1TBbo3bu3i5Lj83QvlvD99NNP7e2337Ybb7zRGZOIQGbWN1EbLNfE3kgsjamjdARYco66YFY+E0H23XdfOexKVx0Z7+x/f3LYZURUrS/EMz2uUjnsli9f7vq07J231VZbudd1110nh136asr6qdf1Tp06OecnTljqVkd5EqiuHuGsmzhxolv68pBDDnGTbYika9SokXPWsbIBy5fjsGWfOlZuIeoSZ53Gi+X5DChXIiACIiACIiACyScgh13y6zDnElS3A59zwjoxVgJRRxsDJaLg/vSnP7n96HK9GY6/f/zjH+46Bl5EpXiDBbMo/ZJBDLxYNghDOAOw6hi8SYMXAzYN2nKtGZ0HgdD0KLTyZnvKPQ+iLoi+yMUAiDYRGTx27FgXLdG+fXu3RCbahtOPPdPQsGxaRPQxr+rqlte7bGXL9r2/P0sPx7H8cNzp+fx7Pj59/3lVf1lSmWVKWYKZF+/5rDqHv19cfPIpR3Xym8Rz/e9PDrt4ak8803OM02FXHf3FYUc0HX1e2ofU/i/fVeeozn1zSbe6uub1MO58VCc9r+s77rijm4SRS3sdZeHL4f9Gv6/u/17X/d/qXl/J5+eiR9Q/EzdZiYUJUffdd59de+219pOf/MRN8mQyFC8c3nx2zjnnGHuesxck40u46xABERABERABERABESgcATnsCse27FLOpQNfdpkOMEMMZllW7L333nORIzjsiCD52c9+5parzBUJewqcdtppLtqBKL0ddtjB/FJE3kjMskEM2DCE8+LeuQ7CSIN9DnjhZKyOoy/XMui8yiUQmh6FVt5sT67nUR2HHdqERmFwJZrO743EUk3ssYKBlskHVWkRaWBs4sWs8qrO9WXAsMV5Xu+8fvrvq/PX6zuORzR6/vz5rkzVSSP1XF8eoqYxvNU0PZ826aLrTO5gOTTaJPKe7fCG3XwddoUoD3VHXft65x6hH/73J4ddPE+CeKbnGJfDLrW/ye8ZTa7qiMthV937VpUnviM9lr3nlUs74vUQ/SXKjTYol/JXlY9oe5ZLel7X83XYpbZ7tH25tieZyuHbJ+qZl1YG+SGpbHrkn+spU6bYWWedZb/61a/c8uI4tmvXru22YyBKnr0nWfry6aefds8e9cbzk0tf4Ic50n8iIAIiIAIiIAIiIALVJSCHXXWJJfj8bB34BBet4rLOAPqzzz6z3Xff3Vq3bm1t27Z1USh8xnfZDgZjDLBZwmTPPfe0Lbfc0u07wODMD5QZcGHkZfCMIWDOnDnOeZfOiMC5DNIw3GIUZobl9OnT3Z53r776qtsrhH0PSIPvcQKmGlRIk8/4nnuRDpEw6QZ9fiCOcdUbyP356QytfIZRmbJwflXlyMZN3xePQGh6FFp5sz1Jnkd1HHapaaIzLM905JFHWoMGDZzGYVhiWSecM2gODjEMxt5AiPbh0GJvo/fff98t64SOoR9c4/UF7UKvOJfrcQ4SiYzWsc8n16CB5AFtqsqAFdWzGTNmuMkYRDS/+eabLrKZ2e2zZs1y+UTH0umiLzvp0QZgoCRv6DyRhUzwmDx5sksPtugs5UVHfbl8Gvzls6huegcm3Lj+448/dmmzdDLpk3c0FgNpKi/SgzfaS5m6devm2izaLd7zGddRNu6Zmh/es6wWn3M9HDKVJ931vkyp7RlcMIiTT9Klvqg/6vzDDz909Zqp/fHpVfpf//uTwy6emhbP9Bz5Leayh53XD68T6Ba/d/QVjUOD0V40mKWR0Ux0iu+51muK1wH0edSoUXbxxRe75eCZtMb7v/zlL04L0BquSz34n0lspJmun4uGkA/KRNsQ7ef6tEjH93cpD2VBh9Ak9A2dRhMpA99zrs8L5UCbyAPfUQ708N1333VLEVJ+nw/KkK6/7fPh/0bbM+4LQ9JK5Un+aCthQH5Sy+F1nYkYaPrPf/5zt6S+r690uo7+UhbOSW33aPtS2xPO4Vxfhz7f/PX1Sb68rnMvrqEMtOVoOkyoEz5Pl05qmiG8z6RH/vnit0Odsm3CL37xCze+rFevnm222Wbu98IEKJbG7Nevn+tTwZnnQocIiIAIiIAIiIAIiEDxCMhhVzzWJb9Tpg58yTOmDGxEgEEVA6rBgwdbnz593LJv22yzjduTg4E7A/xMB4NsBt4MxoiqY8Nw9hQ69dRTnUHUG4Mxhtx666120UUXWc+ePd2gjUE013rjAffgfAy/GCpYlvN3v/udde3a1Tp27GjkCaMsS9OxZAqGGYzoGHgxTGAo8PkhbQaGRAqSDsYUBtfRA0M0szlZzvPQQw91eR8+fLjdfffdzvARPZ+BPnvwURYGmNwjXTmi1+n/0hIITY9CK2+2p8vzyNdhhyaxfNPAgQM3LIt5yy232OOPP+6Mf+jnGWecYX379rVLL73UrrrqKhsxYoTTnv/7v/9zmtWhQwdnqLr//vs3OPrQLLQLnf3jH/9oJ5544ob92NA6XlzXuXNnlz5ahjaSH6+tqWVHz8aPH29/+9vf3D59LBGJXnrtxGFCfvh86NChTscwPJKPdAfOOoys7Dl67LHH2kEHHeR0PjU9lgft0aOH43Pvvfc64280PYyeo0ePdkuL9urVyzk+MYhjTIbpL3/5S/vRj35k7dq1c3klz+QRB+mYMWPc3qc47fyB8ZhrMOY2btzYqFdevOcz7nHTTTe5e3Jvf+CsmzBhgts7B+3u3r272/vOlwcDMRNXaDfQeLQezY8evj2jrqnzk08+2Z1L3bLkKpEhlIWogUsuuSRj+xNNt1L/978/OeziqWHxTM8xV4ed1w+vE3/961/d7x3d3nvvvd3v1mtCqv5efvnlzqHnI6y8DlxwwQVuHy720cQJwYv39FPRA7SKe/oD7UZ3mXiGptN2oPHcy+s+16MftAnnnnuumwCAMyq1vxzt79KHpS/LcoP9+/d3/VP65fzu0OnDDjvMtTX0u9F2HHX0denz0m9nwp1vL3CikBfysdNOO6Xtb/vy+L/khzzi9BsyZIhzwLAPXWq5eM9nLL3PeABHGPmBj++3p+o6q36wf2xVuo5Gs3T17bff7vrlqeWgHikTn9Fn5xzOzUXXcSA99NBDjifXk3d4kH/qjXY23bjC8wjlbzo9og/gn68rr7zSPd88h6xQgLOOtpq6Oe+881xbPXXqVPfs0EZXNeYMhanKKQIiIAIiIAIiIALFJiCHXbGJl/B+6TrwJcyObp2FAAMrBlWnn366G0gRJcfA/4UXXnDRDZkuZxYkkXjPPfec23uAwRiG3fPPP98ZJPx1pI+xY8CAAW7JTQbfr7/+uous8AYIHIcM1Ii0eOmll5zTr3fv3m6w3aZNGxf9R75atWrlDAn77ruvHXXUUTZu3Di3NB0DcIwQDP6ZVfvTn/7UGTx++9vfunuTh+iBMfeBBx6wP//5z7bLLrs4xyBLtvA/RvHoweCcAT+GBgzf3IN7RR2P0ev0f2kJhKZHoZU329PleeTrsEM7MGpiWMXQhAFx5MiRbsY4xluMjUx22H///d3SwGeeeaabAMHEBQyfXNOoUSNn7Pv73//u9JJICDSLZTWZec4EBJaEwkhK+midf2HoQgtZdhhtRCPRSj+7n79oH45DojqGDRvmDJw4wdBONJMX6ZE+n2MIRqd9tECqA5D0MJwRUcHSnzgn99tvP6eRRGGzlBXp8R7HFAbdQYMGOUclBliuS00P3cQoTr44F+Mx6T766KMbyk0+2f+USR/Nmzd3RmaM2DfccIMzmqLH3hGIURjjNGnR5tSpU8e9eM9ntA1oOIZrH/UHa+oJpyLOVwywLP9MGeDty4NBlvtiSOTeRJ2Q/9Ty+PaMCSXUOZNQOJd7YhzGyMx+PKTNXjw33niji+DJ9pxW6vf+9yeHXTw1LJ7pOebqsGOSBI40HGpMlMDxjtMN3UY/0DQ0Dh1Cj/gdH3744a5/zAQxovDot6JJTMzgN851aH2tWrXci/dowa677uq0Cs3iQEfQaiK16F+j6Wg79/QajU6jSWg1bQJtw1NPPeX6mrQ3vs/MX6KT6UvTp8bBRz/+mmuucQ44PiPaj7aH/Oyxxx721ltvOR2EFVpNv5xJE2gyDqlUPSQ/XM9fHJlMcmBCCGlQhtSDctFm0B8mr0xkQBcpl2/H+EtaOGpwEP7mN79xDIhGRme5ls+9rm+++eYuop08ULaornNPtJlrb775ZleHaDca7hn6ttTrOvXMubnqOpp+9dVXb9B1z5L2gUkdOG1DP7weUdf0J3hG+Y1Rrzg2GVdSD/S/aBdpH+mDMH6iH4UDFY6+fQ+dp8ovAiIgAiIgAiIgAqUgIIddKaiX6J6+Ay8DTYkqoJq3JXqBSIoHH3zQDXQxMGNIuOKKK9wsyUzJYQxllilRBBg3GIzz/7PPPusG7/46ZhMzS/iYY45xBhAiGVL3uMNAzCCP6BHOwThAWhgZmInLtXfddZdzIjILmv8ZwHuDCIN8jAgYRTBkMxgnSgInHIYIjC3eYOLzxF/yhcGGPRUwzGDwZRCJ0xGDRvTgM4wMRJpw/wMPPNAtv+MNKNHz9X95EAhNj0Irb7anzPPI12HH7/6EE05wEVmkgXMJJxsGKfQGAy4OLR89gJEW7cKAhVagT0QKY8B8/vnnnbGWZbvQLL7z5xMNgdGY5dRw7PHCqYYW8x2GTrQRjUQr0UzvrCPK+V//+pczdm611VYurywlhiOJCGP0EwPjcccd5yLQvOE0neERw+szzzzjrkHnKAtaStTbZZdd5ozUOOAwtuH4O+KIIxwTyovjDodY6oQHjHFEvGHYxhDODHuMskSzYQSGLYY9tJ3yMrEDYzWGWgzIu+22m2uffCS1b3dwAGKIpe3hxXs+Y1IFy5ViAKZ+4EQ0JPklWpv6I030G2MsXGi3+B4+RGLAkPaFuohGaPv2jHO5J+dSP6SNURknHlGHtDs4O3FOpkb6ZXteK+17//tTfzCemhXP9BzR6VyWxIQfv1e03P9u+e2i0X/4wx+cAw9dwJFHFB7OffQF3WDSBt/htKffjM4QBYxTwi+ZzLLJvCfyFucZ2uInDvAXR5nv56Jv6GZqP5eoN3SMyWPki98NbQRtBdHYfoIY/U40kb40fWqcIegq5/I/kb5E1dEO0D4R6UdbhX7haDz77LNdm0K5+I48MLngjjvucBM/cGzxGZNR/GQK0kGvU/vHOM7Qe5YyhBdtBWmin/Aimpu2jDaIvjvRf7QpONXQYPrUMKEsd955pys7ukpbwV+0mvYhqus462677TbnqOM8WFJX5IEJNmgvL977euQczsVxx7Wk4Q+v6/T/YU7+qBs4oue05URlM1mEa2lv00Xq+fRC+ev1CLZEpdM3YjIlbSH9DMaTOLL5XVAPRC7SD2LbBH5HMKQfo0MEREAEREAEREAERKB0BOSwKx37ot/Zd+BloCk6+rxuSKQcg+0nn3zSDVRxXjHgYkBPtESmg0G6jzxhQI+RldmSGEpTZ+AyEMYQwj53OMUYrHuHHbMqMTxgAMCAjVGYATUDfmZh4gxk0E0UHzOS//nPf7oZsqkRHxgomNXLrGXKgnMOgwkGYYzonMszGZ3BieEDYziGEPKFIRkDNUYOZi6nDiIxSmDswPjBzGWMCJkcgZl46fPSEPB6hPEFIwEOhEp+UUbKKv397nnz9c+MfSIrMOp65w+aEH2hIegXjiu0iyW+cEqxFJaPlEOPiC7mWnQB3cJIigEY/cK5hn6ddNJJTmMwevKeiDqMkyz/hWZh3MQwiE6hK+gpzjAMWtwDwyDGSr+0JulzL7QSzUQ7vYON6zCQYRhDvzGWYkxm2V/SIhoZBx0GMx9Vhv4RZYHhjAPNw4hJJBoTNkiPMuOEQr8xvJImDj0Mcxg+MeritKIclBNDMxoMRw5+azgOWXaZtoUl43g+0VquZdIERmq0nfJyX8pLe0KdcS6sWDaLNHHAEemBYZkoGfLIi/d8RuQehm0447Dj/kQeXnjhhe48Zvij+RieWcYSLkwySeVDWXhhdMdwT1vh2w/fnmF0J4+0fbRpGHb5DAM0L6K7KRP8yXOoh//9haK/hW5bpO/pf0nVcdjRNm666abOKYR2MbEL59H111/v9BddwMGEPjKpAM3gRb+Spdj9fm7oDFrNEpDoO1rJi/foGjqKVvH7R6tpK4iI8/1cr4Op/VyW7UVnr7vuOjdBA13DGUI/F90lwhodRI+8ww79wSlCWWiH/AoQaBCTQI4//nj3F0ZEYtMfZ6Kaj5YmWhidwwnFOAC9ZSlk2h6uRwspF20aE0+4L31iDvLBb5zob+7LueSBaDci/tBe357Rl2cSBO0Y59EGoMW0h0xiQYO9rjMGwGEJKxx5qboOT8qCM5BJI5SDCR70z2lTqD8mafDiPZ/xHedwLtdwLWn4dsrrOly4t4+uJK9MzqAtoM3AOcvKHNQFbW/oh9d3uDIxh4kvOL/5jTGmog2nvwFHVh3gOWM5WHj7Zyh0hiq/CIiACIiACIiACJSagBx2pa6BIt7fd+BlMC4i9BreCsMmURsYLRiUM+BmoMym8d5QGb0FRllmmzJIx0hN9Mf06dOdsTvV2eUHwpkcdsw6xkDBrGIG8RhfGUwzcMcwgAGMgTEzmjkXYwnGAYyhGDwYDGJY8RGBfskyBocYU5npSwQh+cVo4g/SxkiOMYR7MuDEcYeRAOMwRgHK4WcQY1Twy6hFDd0+Tf0tPwJejzDWYBjDeVDJL8pIWaW/3z2Lvv4xHOFox3DHpAJ+/+leaB4TCjC0EvGF8RVtwGDpHfoYF72hzzvscN5goEJPMFTec889zpCJs4flGPmLhmEkxHmEEZV00TCWIMZQizEVhxnn8UL7mDzAXjoYcEkbjUQr0Uz0MFXvmM2O8RZ9JI9EdqGdvNAztJiJDRglMbxiuCTqgc85cFTSDvAdhmK0k6gFePA5eWNGfGp6LINFZB3OOvKGRmKg9Q5NypDqsENjcWxhNMapxr0pB3nlXOqEqDaWHuY5RsOJvkPvOQdNpizcl4ho+PHivV+Si3Lw4jzuQVtGWcgbzkciEuFKepyTWh60H+MshmQM4BjKMbL79iO1PYM3hnzqEqM996eeeVGXPv3U9rD8FLKwOfK/v1D0t9Bti/Q9/fOKruYaYUfbuMkmmzi9pu+KY4flLvlto3H8bvnLbx6toJ+IvqMz9HPRKA40hmtYfhfNR6t48R5nHTqAvvD7R9twZjBpgj4rWo6ms78nWsT36BC6z73RjxdffNGljQ7x+8FZRNpoftRhR3nQIzTu3//+t5ucRLtDfxk25IV7oP8403BKURbaAibsLViwwGl7qh5yHxyERJ2hoaSP4wVHJRP26BuTJtF46Dllpw0ggo9oK/jxPWWibLxHD3DaEGnn2z/aN/Y15X5e16kXNJ1xA+MK8uU1nTRgQxsFS5b7pP2hDrmn112u4T2f8R3ncC7XcG1qO5VO12kfaau9rnuOvg0MWdf9r9DrOw5wuPKir0VfiN8ZEyeJjsThyu+G54y+U+pYzKelvyIgAiIgAiIgAiIgAqUhIIddabiX5K6+Ay+DcUnw531TvxcTAywG3TjiGMgz4I0OTBk4M4hmEM/AmugTItMYGEeP1IFwugg7Bv4so8ZeGhgluDeRFn5mcjQ9DBUYgxlsE5nCAJFZ0H7mM0YBljnDEM0sWYwdPiLGG9nJP4ZcIly4J0YIysEySRh2GdxjPMAgwcASg8orr7ziHJkYGUhbe1hEa6Y8//d6hLEJIxGRPpX8ooyUVfr73fPo65+9znC4sbQVBlqcUOlePpIXDcJQifPKR1jwntn6GD/9keqwq127ttMvIsZwwGGkjB5cy2QCHEIYOInMIsILPfL6lHoNxs6XX37ZRQpgZEWviHrwe21iACNqgagunIoYlikXxjFv5ExNDwMuy1PilOJ34Cc6oPEYiokoJOKEe+GsYlIGekta0XaAdNFJ0mASA88d12GcQ0N9hFuqw45ziPzwS8ul5o33GEOJ7sAIjNZSXspHBCH584fnzuQSP8GEz/yBdtP24JxlqTjSYuY/RlvYZJqIwjUY1TH+035gpKd+iAqgfqLtGc8GHCkjbZmOHxLwv79Q9LfQbYv0/YfPl/8vH4cdzyTagFMOXY46EdAInl+WRKSPiIbQ12XZdX+gVyx7i/ON73nxns/4zh/oNBMt0F3fLyX6C21H46OH7+fSd6VPig7SzyWCGQ3ne3QMrWeSBg4T2hOccWgvOoUG+gPtZmIEExKYtEDfF2cdzyvppTu4Bq48c7SbOGGIHp88ebK7hvRT2x/ySPvD8vpMkqOfHT3QcCLmcNoxOQ6eRPYRfc75XtdpF1lWER0mD/6gTaGNYnxAW8NSoCxjzFLKjD/S6Tqf8R3tDu0Z13At7QzOR9KM6jp1hBOSdogxhY70BLy+/7//9/+MF45j+iGMyxgfEu1P1GZ05ZX0qelTERABERABERABERCBUhCQw64U1Et0T9+Bl8G4RBWQ520ZlGKkJqrE79lBlAj7dKQaFBjcMshlsMvgHSNBqgE5evvoQBjjgjcoM5DGUcigjlnM3lHIrN5MBmLSx3BKBAnRMkTNkA9mzmLAIK8411i2hvSiBpTUAT95wciAs5AXxleu8QYH0iIfDDiJ+GMQyvekzT1SuUTLrf/Lg4DXIwxaGOgwxFTyizJSVunvd8+fr3+MScz8xlhHdAO//XQvHPx8T9QtEwzQBIy6GCwxnvqlGf3T7Q2MGCpZjpJJBOxvh3E0nYMLYy+OIx+9xUQH8ogupTtIA53BocckCvKGIczvtYlus/cQSxjzXGMsw3mHjjOpAa1Gw7whEyMrBloM1Gizn5iAsRSjKYZmuNAGeF3nnHRlIb/kDT0nAg5tjDrYyF+qww6uON8yLSkGB/ix5CZGVcqEg5HltlINp557JocdzlLKTyQizCgPTGjjUtOJMocVS7MxIQO9p31LjfCLtmek7duLdAbqaPqh/e9/f6Hob6HbFul7+l9QdR12tAX0GXFaoSVRZ52/C+mipzi5aDtwnvFM+yNXhx0OI5bUpL+KrjEpAk1HPzNpK/1c7oVDiskTTCrDiUV+0fNUhx2TzcgjeWWCWbryoP3oK9HS3JtJCJlW0SBPaCHf42T0DjvaOZyMnhnl8v1w+hxEZDPBAy1MVy4/AY4Jf+gzE2Roi3Dkcb7X9UwOO9pVxiUs5Yym07/HqcZ4JNVB6uvH/43qOtfiNGTpU9KM6jp15Jf4z9Q2+7RD/uv1PdVZh5MVZyerkvCMwj7T8xAyO5VdBERABERABERABMqFgBx25VITRciH78DLYFwE2DHegki61JnCGCsxkhItkToQxhDKIJtl3DC+MvC97LLL3D5EDHyjR3QgjDE41WGHceFnP/uZm23LPZn5i+GYgXtVL2ZssrcUhg+MqlyHIYL8+Rm4GBcY0LOM1N/+9jdnFMBAwuxfjKwMyvmewT8v0qFMLMnm9x6CCw469pfiO9Jkdi/30EA+Wtvl97/Xo1AMxjLo/vAZ9PWPQYn904i0y+a4RRPQIpwxtGO9evVyRksijtGz1MgFb2Bk0gDpstQWxkjvIEvNDZ/xHedg2McIizEWLatK6/gOTUTj0CCiKHr37u2iBtBcjI4YH8kvDkYiAdl3B2cVhkwmQMDBO+nQc3Qy1aCKLjI5A2MojjfSYW8jnFU4KTPloWIQ+AAAIABJREFUD81lzyO/hx7l8hFnOMaiDrtsDi6M1CxB9p///Mc5NaPpeZ6eeyaHHWUkkpJ9k6hP0mFfKZyb8MhUHozNLFPHflZchwOSJZppEzAqR9sz2hCcizgZ1R742vn+r//9haK/PGeFfEnfv3+2Ut9V12FHtJh3cKGLmQ6+I3qYiGi/zB/PtD/QmdR+M5qRLsIOvWHJeSZ0oIFoeC79XPYr5d5oP9fh8GPSR9RhlxppxnKaVR04T9B/P3GDCRm8KCscccLhaEH3WV4ZpyaTRHAKRvvvvlwsxYmTDaZ8lumgzaHN4n44DNFbGPrJDlzLvTI57GhP/MRCfme0VekmFkbvH51YwrWpEXRRXU+3Mkc0Tf1vrl9BHynVYUffg8kx/E7SrdAibiIgAiIgAiIgAiIgAuVFQA678qqPgubGG2jksCso5tgTZ+arn7HL8j84r5gpyfJgDGb9wUAbBx3L5OCso54x9FLv6YzU0YFwdMBPpBxL1RHNwqxnIkRYlpNBe1UvZkczWGfgjSGefGDc4H4YIzAEELXHjGgMDkSgYKDA6Or3SGK5M4znLImE8YRyYxBneU0MtixxRnrsT8SG88xwJk0/g9gz0d/yJeD1CEMnz2yhlywrdfpaMu2Hz6Kv/1q1ajkHPYZFDLDp6gmHDoama665xk1WwNnFcoikgTETh0w0csEbGNEfv5caOho9uA5DKJMFcO6RH29wRMuq0jq+QxPRRozGOIn22msvp9c+YgENO+CAA9wepDjbOBctw/CIvqJbLMXJcr44pIhww3DqNRujKUuTEQ2H0dlrKnuacq9M+WMfJIzI3ANnKDpO9B8c0c6oww79Z8JHpsgO8oNBGkMx58Io1QHouXrumRx26Dx756DdON0oD+dS/1WVh32TcKRSbpY4RTdS946iTBh6U/dkZT8l2jHP0udRf7836Iaiv+l0Jc7PpO/pf1XVddgRDc3yuNRNpiUhuRPf0XdkFQiuiY5rcnXY0YbghEIj0XB0DU3OpKv+c86hL46uomH0Qel/4oDy/XV0krz98pe/dNHIVZWHMuE043r25mRiBO0dyw6jc0ToEfXt97OmvNwbZx3LHUb7775cnENe0UVWzajqYMILLyZn8CI/fvKI1/VMDjuW4GQCBf1x2jjyw/LTTBypSn/5jjaHtodryC+OJdoHND2q67Tl7PdH/fq8VVWmUL/z/Sscdrx8PwuHNP2MTEu+hspL5RYBERABERABERCBciQgh1051kqB8uQ78NGBbYFup2RjIsAAGgfVlClTnMESozCRJRh5MYb4QTWzd3FosZ8GM35ZLo4IEQa8qZEnPlvRgXC6AT/GUQwCOOwYSLO3BTOKq3pxXwzfGKQxyGIwxmFH/sgHA3/2HuE8yoGhC6M7ZWQGNIYajAIsT0dEB7OJuR/569evn4vKwzhAeux9QUQL9yBN0taRDAJej3hGiLTEIVHJL8pIWaW/3z2fvv69w4aI3D/96U8bPQNEXrG0FrP3ib4lspjlJDPtLeeffm9gzOQ48udhMEw1sBJxhGMN5xiTBqrSOr7jHCYo4IRDt3DOcW90GccbRlyMrRhaMTZyHk4SXkysQCeJ1DjmmGPcnqFEHFM2jKs4/aKGZwxvXMNzhIZWlT/yhoZjWEY/TzrpJLvooovc/kbpHHapEdaej/8b5ZSvw477El2HE5Y0KA95o56qKg8aT1mYvAE32hiWSybC2k/giDrsqiqPL1eof/3vLxT9LXTbIn1P/0uqrsOOfibOJX7L9FEzHdH+a7Rdjepmpgg7/zvA6UU0HNqfSz8XbUWH/eQ0JhMQpc2ktNT2JNfy0DemX8ukCCZo0A4MGjTI9Y/p0+OsY0IDkzBYTYL7kjZOxkwOO5jQf+e66J5zmbhm+ty3p5kcdtQHk0GYFEK+ouOJTOlG25Uor3T1zLjAR/5lSjf0z1Ofa54Rnm36HLSzjLNw2rGKil/yNHReKr8IiIAIiIAIiIAIlCMBOezKsVYKlCffgY8ObAt0OyUbIwEG8xhwcdLh5MJpx75Jfk85ZuViGCYihPrFaHziiSdm3DODrEUHwtEBNs8LgzsM6tyPCIgzzjjDGVoxtlb1YuYzL5xvLAnHDFoMtZSDWcZnnXWWm3VM+kSo8D2DRwzbLEXHi/d+GSBmXBNhgeEB4wUGEa5h5jCResxgJs1sM5hjrBIlVUMCXo9wYuCM5vmo5BdlpKzS3+8eHF//TAbgd8xvGENcVc8ARli/70q2ZQ69gRGN4UVkBJ9Fj6jBkOgtHEPoEg6hqnTOf4fOoXcXXHCBc7rhQOJA74hUYEICkQZjxoxxS1Qy0QDDJs42IjMwpGGoxKiMI4o9ldinjkkJUcMzxjccfBi10Tyfh3R/MXrzIn9EZN99990b9hSCM04MvsNxFtX/bJxq4rBLvS+GRJZQ7tu3r8tLunL4z1LLg3GY5Z9ZXpNnIlt7Fi1P6P/7318o+luVrsTxnfQ9/S8qKQ47PxECZ10+/VxWt6CPjl7n47DDWYfTl33paBPoc9O3JT8462gfBwwY4DSSCSwjRoxwn9HXp02I6rf/fRfTYYc+p0Y45zJhItr+5uKwo++v6Lr0vzf/qa9/ng2eEV5EezKeo5/BErDDhg3bsCWBv05/RUAEREAEREAEREAEyoeAHHblUxcFz4nvwMtgXHDUBblB6gxWIiaY6Tp58mRnDGY5TAxGRCgQXccyQRhiq3JgZTNw8rxwDwb8zOhlBjFGiVxmqjODkxdGhTvvvNMZyok2YZCNYYKBIpF1zFAmcoI9qHA4Yqjed9993aAfgzX5x9hNZAj76eGkPOigg5xhn2VxuJY0TjnlFJc30taRDAKh6VFo5c32FHoecRkUo/fL1WHnl6585ZVXnM6xNBqOtO7du9sVV1yRs96xVO/IkSPt3nvvdZF15MdHP3MPnEosj8mSl1dffbWLRjj00EPdfXAoott+FjzRhkxMgBGahqMPLcXQ5pdYY/IGS6blqscYeceNG+eWSWaCRykddqkRdiyfdvzxxzsH5Z///OcqywMDXrQt0fJka8+iz0fo//vfn/qD8TwJ4pmeYxIcdjjImDji+7npIr3T6WxqP5e9Qv0Ei+o47GgjiBYjso4+Mf1c+vdMiOjUqZOxtDH9X5yI9L/RSKLMH3roIefcO/zww127kc5hRzQy7QUT+Vh+PpclMXGgeQc20YI+ks23p1VF2LGMJctZ+gi7qpZY9k8L98MBl+uSmNIrT67qv16PaF9ZppQJkDwjTA7y+5byvDGhkoh+xlrUBZOMdIiACIiACIiACIiACJQHATnsyqMeipIL34HXgKcouGO/CYPnp59+2u3z5pdgw0D88MMPuwE8jjGMvnyHQdRHHmTKSDYDJwP0/fbbz832xSlGxAlOMj+Yz/QXAzPRJCwPhIEgOhDEcP3EE0844zZ5JW2WumOJFgwMGE1Yto397FiuhWgVH5HRsmVLF4HCZva8mIVMmSk7e37ASEcyCISmR6GVN9tT6HmU2mGHwRRNYtIAhlsMnHvuuaczcGaL+EMD0dFp06Y5oxcGW/TKG70wdpI2kw4wXPMejWKCBdexdx57rBGJwDJoRE+zxwxGNpx4//73v90enmj5X/7yF0P/MOQSLXfrrbc6I28mHSYfaDH3xiBHHpk0gbOOMnOd19ViRtgtW7bM6T3ORgzTvK688krn6CTKOlN5YEZ7QrvE5A7aGNLy5cnWnmV7HkP73v/+1B+Mp+bFMz3HcnfY4Vwjwpt+KL8FHGS0BZl0yH+erp/LxAwiqqvjsKONYP9U+r+0P+ghTjucdCwlT/sAQ9oWNBBdJ4oPB59fAp82K+qwIw+sSEEELct3kib6mumgzSJtnmMfwcce2Cw/TTR7NocdXLiOKDvaE/rl9Ospm3f6pbu3Lz/ncg3XkgZpkWZU16VX6Shu/JnXIyL2eY5o/y+//HK3HyJLSjMxCecdzz3R/kSx4zj1Eys3TlGfiIAIiIAIiIAIiIAIFJuAHHbFJl7C+/kOvAY8JayEGtyagS0RGo888ohzarEXEjOBcdoxu/faa691+yMxALv//vuzbioeHQhHB/wYk4kAIdoExxhRHxiwMThj8E13MOjHgPr+++/bO++84waJGByYuekPvsdA/c9//tMN0CkHDkZe3AcnHsZcBvAYZHHasZ+H3yMGgwazjHkRccI1OC3feOONKg0D/v76Wx4EQtOj0Mqb7SnzPErtsCOfaCtOLSJ20Rf2CSLCDaMoBthMB4ZMDFzsFYo2e+MqhlteGE2ZuEAkNHrIfaLaiTZyHucQncAkCZhgvBw7dqwR+cdEDZZ/5DP2HCN6GmcbBtZoej6v3gCLsZe0Mdqh+WhqoR12REmznFu6pUhxWuKARO9xQGI8JHKE5TphmemAJw47GMMbQzIGXd8eZWvPMqUb6uf+96f+YDxPgHim51juDjscUSwXyBKBODeYrMGEgHRa7UuIFqE7rGqBFnE+bQVa7vWcPi596ugSjz4N/5d0nnvuObvrrrtc/z31fNil9p39NWg73xF1x3KZRGZH++8451iNgiU1iYqjXWGSQ6alpCkTLN577z03IeScc85xE+u8w8077JhUh76zJ15qxB7a7fvpaDrazqQ72i40P9NB+f1ERMYCfk9N0qLvH9V16VUmkj/8PKpH1A9tLKsG+JVYWP6bZ4flwonA5JnFsUd9VdXv+eGd9J8IiIAIiIAIiIAIiEChCMhhVyiyZZhutANfhllUlqoggJEVIwLGAYwKDJxxqLG/G/v/sMcFRlIi4aZOnbrBMJspyehAODrg53u/iXyTJk2cY4wB34QJE5yxIpquNxAThXfggQc6Rx8zfFmeM3Vgz3kMxHHqsS8eBvIePXrY/vvv7/biwAFHZAnpYFygzBgN/AxcZoYShYIDkdm4GCRIizQzGa+jedX/pScQmh6FVt5sT5jnUQ4OO3SDCQoYIdkrE4Mj+9g9//zzTm/TGU0xaOHk45yuXbs6o+gxxxxjGDr9Ur6nnXaasWSZX8rXG8OiOkX66O1NN93krvcRCkxEeO2111zeMAxjeGVWfOqSmehjugMDHctzsvwmjkiWNL7xxhvdhA8iNHB2FSrCDv1H29M57CirXwIN4ysGapYfZdkujMLpWFM+8nvbbbfZhRde6CJGWC7u73//u1tiFKNvtvYsHaOQP/O/PxnA43kKxDM9x3J32KHVaDb9Z/q5rPBQVWQYji2iltFj+qxoK/pFlJJ3sFUnwi4acUzbw0Q8Jmikm8BA28Hn9PGJBiS/7EsW7b9TLr+nHO0Jv/Mnn3zSRQ+mc8bQJjz22GNuIgXjCKL9br/9dhs/frxz4KQ67Fhik3FHar+edohJc7RZTCxB13ECEbmFNmc6UscZXMO1qfyjui69ykTyh59H9YjnhjES/RwmAjFhhv4EDlKcdjz7jCupVxx3jDMztcU/vJP+EwEREAEREAEREAERKBQBOewKRbYM04124Mswi8pSDgSYOXvwwQc7IzAzI5k5y/89e/Z0TjJm1Uaj2tIlGx0IRwf8RG8QxcZechgRmP3qly5joI6hAYcaL6LmMCJ8/PHHzoDqHXFE5zEDmEFi6sHgHuM1kSw46DAmY/hgg3SW8GEpHp5XBoyk/8EHHzjDAXnEYYeRgvMY3GMsJ61MhuvU++p9+RAITY9CK2+2J83zKAeHHXnFwInW9e7d200EQGOIAn7ppZecwRGDptc7HEQsT4ZO4RQjKhijF9eSBsuXYbzFCYU+E23AxALSotykhV759JjRjq6zJxLLnDGJgWgP9irCMIwWE92M1qGXOBMxFuPMI7KD9NBgnx5aTBuAs44oDNLjOtLHoMr5hXLYUQ6WX2MZNjQa465fShlulBU2RP2h+7DjL8uBUlbaCs6BDy/KhaERJ98FF1zgmFIe6ofIcvYElMMu269t4+/9708G8I3Z5POJeKanVkqHHY4JJimwEgN9WCJ5cfLjfPITvNBxdPK3v/2tc16gR+yTyUoW5D3az+U6IutwZDFpDoeHj8imX0yftboOO5bDZIUMdI30Lr74YqdttCNoIGniZEMLyQ/9XSbOMWmBsrEnGX1j2hcf6ZdaLpwxlIuyE81H3x+N9e0F7QG6i4MOjaWvT3qp+gozHJM4eZgwx2RB+vs+ypl8ofNPPfWUi1YkX0zcYO80nIssIYpOe13nPZ/x3cknn7xh7z6YMmGPPj/5i45TpFfpf2fRTzPpEfxZDQDnLBMl6ZewpCr9F9pU+hgPPPCA69vwDFFP0QlG0XvpfxEQAREQAREQAREQgcIQkMOuMFzLMtVMHfiyzKwylZEAgygcZwMGDHADLGbP8sLAy2csecI52Y7oQDjqsMNAgJH42Wef3WBYxQCLkQCDBsZsliVjYI0RAEMwS7oxSGcAyICdfN53330bzRRmAIhxg8E8hmcMCgwYMRSwnwhL96TOAmaQSTQLDkD2d2IpFyJNDjnkEFdmZjxrUJmtxsvr+9D0KLTyZnvaPI9ycdhhDMXgia4RYYAmMYkAfbrjjjvcHnMYaonmJVKBPTRxTKGHaBf6SVTECy+8sGECA9qHBqKF6NaRRx7p9GrcuHHuXugr+yVhPGP5MKKjiWzwS7PxHc43opLR9OHDhzsHHOmRP4ym/fr1c449nIdoMUtvYpi96qqrnOEUQy3lYRkz8o+RlPQK5bDDyE20CdEf5JFJFUOGDHHRfCx9RrQ0xmKM0ZdeeqnLP+XBoM4ypBjO4ctSoLDGsceyzxixYUMbwYQQJqZgMIYP2p+tPcv2PIb2vf/9yQAeT82LZ3qOpXLYoed+ZQY0kMlgOCiIIMJBx5KL3omEzqJNfgIBkcFEMafr5z700EMucoyJGKSJdqUu4V5dhx1929dff91IF63cfPPNndPkiCOOcH1vlqjk2aJP/OKLL7p2iEhuysJEENqVTTbZxLU/9MN9ZBT9Z8qFAw0nG1rMUojkm/YBhyPtAS/2TyV6GUccesCEEJYJxZnm9RWHHtHiMMKxyFiAvaaJ1KLNY7IF5+LYY5II53Ie7E855RQbOnSoczIShccLhyOf8R3lhiP9+dNPP905POHCEdV16VX631n000x6RFsJWxzPtK30RXDEsiQszzP9MfoLRNuxooqfEBNNX/+LgAiIgAiIgAiIgAgUnoAcdoVnXDZ3yNSBL5sMKiM5EWCghXGXwa4f4DPI5z3Lhf3lL39xg7FsiUUHwlGHnV/6B6ccEXw4yxh8Y8w4++yznUEYQzMDf/bfuP76650xgAE9eWHmJp9nGvAR0UI0CUZsHHws68NAEUMEg/7owaxlDNoYKWrVquWW3MFBiDGYsuhIFoHQ9Ci08mZ7Gj2PcnHYeQMnesWymDiHmHFOpBhay/KRGLeeeOIJ58DDEYezDj3kPAy8GEd9ZABOKYzARClgMMXRRLoYMm+99VY3keE///mPc07dfPPNbo9ONBNnHbPc0UWiyrzhEmMo0Xw44rzjivOIrGYpTRyIaDFRecOGDbPf/e53xn6mGE25L8t9wtynVyiHHY44Jo5gfMVIjCOOSEPaDPJPHmHj2zEccTBM5YODlFn+sB4zZozbU4koDMqD/uNEPfHEE3+whGa29izb8xja9/73JwN4PDUvnuk5lsphR3QWkxfoo6IvOLZwSOGcYFIAGokTiugyooJxXvh+LlqUqZ9LlDIrW+D8oj+MZqO9fqn46jrsyCdtBpMUaGvQN5wnLCePY439PpmMQfpMAMFBxkQRIpeJRqPtoe+MNvql5GnL6L9TPqKpmKzhzyXfRBoyCQJ9pU2jbWPswDmkAyOW2acfTnk4qMfjjz/efYeu42BDk8877zznbGRiH9FYTCxh0iCON/LGWICJJeg1DiAm9vHiPZ/xHedwLs478pY64TCq69Kr9L+z6KfZ9Mg/H4zvqFfGXdQpy5IyHqM+WJqVMRxjL/oLTPTRIQIiIAIiIAIiIAIiUDwCctgVj3XJ75StA1/yDCoDORFgMM4sWmbTMngl2szPsMUATNQG52Q7ogPhqMOO6xnUYVxlRiyGg5///OfOkIChAkMwy6zx4n9eDPa9QQBDNZFvmZZU8QZoBvcYdaNLykXzT1r9+/d3kRXMBOX+RJxg2GU5Hh3JIhCaHoVW3mxPo+dRLg478ovxFMMUjjaMpUQjoGcYcDFmeb3jf/QOwyoz0XGYsYQaERveIcZMdrQTYzDLnTE5AYOovxYjpU8PIy3viS7GoYfTjeUuiRLxkcP8RTMxnrHM27nnnusiIUjH669PDz3lPkS5sYcobYXfE9SnVyiHHQZwnGwYgYnCwPiHgZe8sU8Ujjsma/i9THkOcEKylCg8OY8ypb5gT9tCVB3GRSI6iB5Jbedyac+yPZMhfe9/fzKAx1Pr4pmeY6kcdl4vWZkB3UFbWZWBviN/cY7hBKMvjc6iW0TksYwmy7gzOQxdTdfPRdfYlxTnUrSfW12HHdRoM+jf0o6w7xx9cfKIhqOD/I8DBSci7RHOMPSfiR5MHCGPvPySx74/TF5oM3CmMVmCqDk/oc63Oeitb9t8e8G+rLQXqfoKHxxtTMwjP7Tb6Dq6zMQ59rtGg9F1Jm0Q/czymqyiwUQ830Z5Xff/8x3nMPGOa7iWcYc/orouvfJkqv6bix7xfPDs06cgQpI9d3n2abOZFMkzRZ+FumWSEXXhHbhV313fioAIiIAIiIAIiIAIxEFADrs4KCYkjVw68AkpStDZZDDL4J4BFjN9ibZgIM+MXBxrzKpNHfBmguVnwjLbGCNApuu9AYLZygMHDnTGDwyrRIL4wTcDeIwYRJlgVGX2LEZvDNaZDr4j2oKIQK4jD+Ql05KeGMOJdDnppJOcsYVrWNYo230y3V+fl5ZAaHoUWnmzPV0YidAvlt9iKUS/91u263L9niV3MdRyD16857Nsh494wGiJIRI989F2Xu8wnmJoJBIBhxgONoy93lmXeg+Mp/fff78zppIPltlEO9FMnx7/E4Xnl4QkKoLnJZ1xDMMpzkEiLYg0w3CM9pKed9iRHhrN0mmDBw92hlBvTPV5I8IN/cTojBE3k/7782lTaFtoYziXa7iWNEjLHxgAiQhhIgWRHT5qkPIRaReNiPYTN3BqwpPykH8MwZSHv95QzfKfGIExwkfLk2t75vMZ+l/pUbxPgHim54kDBm1H29D6TDrj24Ns/UB/l+jvHW0ljdQDPSZK7KyzzvpBvxV9wYGH498vIYnWUodoL/1Q8otmca7XaTQWhxHOPKLxWAI52v+M6mSu5fG6jtOOvHHvVA2kzUFLiaxjKUocZ0QP4ohjDz2iB2kTcDiSlj9wujG5gbLiGGOv0Gh7lkt74XWdtow6JH/kiXaGiXSXXHKJm7DCfWFJf51lNskr5WEZY86nTLx4z2d8xzmcyzXRNi+XevZl1d/vCVRHj/id0Ddi7EV0PP0Jtllgb0Qi7oi2JJKSSFDOo4+Uyxjz+9zonQiIgAiIgAiIgAiIQD4E5LDLh1pCr6lOBz6hRQwm2wyWGDRhoKBeefGegVd0wJsJCjNhGQwT7TBjxowqrydN7ofxBQMI+15guGU5HSLviOCYNGmSW8KNiBKMsDjkfDRHujzwHedw7syZM10eyAt5Srf0Cp9hpMVZSX65Jpf7pLu3Pis9gdD0KLTyZnvC0DA0i98yRiC0Jd3vPls6mb4nfdJFr3jxPlcjEzqKNqE15JHJET76gv1+0DoMuz7vnMs16fTOR3qga5w/bdo0t38dmol2oqFoKZpKPuFAWqnRDallJD2cgETIcT57G5EfHIwsccayaOSXCAkcbGgqaUXLTjo42sgXWppL+0E7QN44l2u4ljRSy817jLvkkWce5xrsiBjkGpim5oXz0XHPh/Nx+BEVApvU8lCHtAHpylOd9iyVZ6jvpUfx1rx4pufJ7xJN47eL/mXSGTSB7zinqn6gv0u633uqrnAe2sJnqf1WtJEXzgccW6k6y3v0LfX8fPq5qTqZa3nIK5q5aNEimz59utNvlmdmqUyWWqa9YPUMlknGsYX+k3+uQVd5ocV8RlqpB313VrqItmfoa2r7Q9+9qvbC6zr5Y387r+vUG8xS+VM/5Ie84hTFaUgZcHDy4j2f8R3ncC7XRI9c6jl6jf431/biXM4lItH/TmiDeb6Ijj/nnHNc5CUruLCcLE5r9n8cNGhQ2glAYi4CIiACIiACIiACIhA/ATns4mdatinKoFC2VZOojDGAxqjA4B8jM3sgMIBn0J6rszBRBVZmC0IgND0KrbwFeWhKkCh6h5MI5xeG3rfeestpXdTxlEvW0EeMnmglmol2oqGkhaamM1hmS5c0SQ/HHWnhqMMAihMsarjNllbc33vDNex4YQyvqo3wfPit4Ngst/LEzaeU6UmP4qUvnvHyjDs1329FG3ll01t/fin6uegkjjgmL+DUwjnml+6sSj9zYZbanqGv+bQ/5I9JKrnqOufjSKQMLHvJi/d8xnc64ieQrx5RJ0Tws+w2UfREudepU8dtWUA0JNsiMJkGhzfPKM5gHSIgAiIgAiIgAiIgAoUhIIddYbiWZar5duDLsjDKVEkJMOjnxWCbF0aEmhoSSlog3bzoBELTo9DKW/QHqoA3JHKAl9c7/3++t/R66dPzelrT9DCe8appevnmI9N1vryZvo9+TqQLr3ItTzS/SfxfehRvrYlnvDwLkZrXRf832z38eV6nq6tj2dLP9D0TLXh5/fN6mOn86n7u2y9fLl/OXNPx+cuVhz/fl8P/9Z/nel+dlzuBfPWIOsERh6OayE72aGQpVvY5ZP9Hou1YfvXQQw/dECVJfeoQAREQAREQAREQARGIn4AcdvEzLdsU8+3Al22BlDEREIHEEghNj0Irb2IfTGVcBAIgID2Kt5LFM16eSk0ERCB/AjXVI5zFRNGxLGvPnj3d3rs46+rXr2+tWrWyXXbZxe1VzvfzuTcEAAAgAElEQVSsQEDEJc4+HSIgAiIgAiIgAiIgAvERkMMuPpZln1JNO/BlX0BlUAREIDEEQtOj0MqbmAdRGRWBAAlIj+KtdPGMl6dSEwERyJ9AHHpEBCZLa0cdd0Tabb755ta2bVvr0qWLjRo1ysaPH++cdvnnWFeKgAiIgAiIgAiIgAhECchhFyVSwf/H0YGvYDwqmgiIQBEJhKZHoZW3iI+SbiUCIlBNAtKjagLLcrp4ZgGkr0VABIpGIC49YrlUIujYR/GUU06xXr16uQi7hg0bWt26da1169Y2dOhQu+OOO4x7Lly4MK+9eIsGRjcSAREQAREQAREQgQQRkMMuQZVV06zG1YGvaT50vQiIgAiEpkehlVdPuAiIQPkSkB7FWzfiGS9PpSYCIpA/gTj1iD0PWSJz9uzZNmXKFBs8eLAdffTRhtOuVq1a1rx5c9tuu+1s4MCBNnz4cPvmm2+0p3n+VacrRUAEREAEREAERGADATnsNqCo/DdxduArn5ZKKAIiUEgCoelRaOUt5LOjtEVABGpGQHpUM37Rq8UzSkT/i4AIlIpAIfRo7dq1Nm/ePBsxYoSdffbZ1r59e+esw2mH86537952xhlnOKcezj2cfDj7dIiACIiACIiACIiACORHQA67/Lgl8qpCdOATCUKZFgERKDmB0PQotPKW/AFTBkRABDISkB5lRJPXF+KZFzZdJAIiUAAChdIjlshctGiRzZgxwy2DyXKYLIvJ8pgNGjSwli1bumUz+/fv7/a+mzt3rpx2BahfJSkCIiACIiACIhAGATnswqhnV8pCdeADQqiiioAIxEQgND0KrbwxPSZKRgREoAAEpEfxQhXPeHkqNREQgfwJFFqPVqxYYePHj7dRo0ZZly5drG3bts5pV79+fdt5552tZ8+e9uSTT9o777xjS5cutVWrVtl///vf/AukK0VABERABERABEQgQAJy2AVU6YXuwAeEUkUVARGoIYHQ9Ci08tbw8dDlIiACBSQgPYoXrnjGy1OpiYAI5E+g0HqE8w2n3fz5823ChAl23333WadOnaxNmzaG065Ro0bOcXfQQQc5x97bb7/tnHb5l0hXioAIiIAIiIAIiEB4BOSwC6jOC92BDwiliioCIlBDAqHpUWjlreHjoctFQAQKSEB6FC9c8YyXp1ITARHIn0Cx9GjNmjX26aef2osvvmhHHHGEde3a1Ro3bmz16tWzFi1aWMeOHW3kyJH22GOPGctjLlu2TJF2+VerrhQBERABERABEQiMgBx2AVV4sTrwASFVUUVABPIkEJoehVbePB8LXSYCIlAEAtKjeCGLZ7w8lZoIiED+BIqpR6tXr7bly5fb1KlTXbTdkUcead26dXORdnXq1HF73LFM5vXXX2+jR492Trv8S6YrRUAEREAEREAERCAcAnLYhVPXVswOfEBYVVQREIE8CISmR6GVN49HQpeIgAgUiYD0KF7Q4hkvT6UmAiKQP4Fi69H69ett0aJFNm3aNBs0aJD16dPHLY9JtF3t2rVtiy22sLPOOsuuu+46mz59ui1YsMDWrVunaLv8q1hXioAIiIAIiIAIBEBADrsAKtkXsdgdeH9f/RUBERCBKIHQ9Ci08kbrW/+LgAiUDwHpUbx1IZ7x8lRqIiAC+RMohR7htGOJzDlz5tiHH35oQ4YMsRNOOMHtZ7fpppta06ZNrV27dnbqqafasGHD7Msvv3T74LEfng4REAEREAEREAEREIGNCchhtzGTiv2kFB34ioWpgomACNSIQGh6FFp5a/Rw6GIREIGCEpAexYtXPOPlqdREQATyJ1BKPVq7dq2LoLvtttvsggsusB133NFF2NWqVcsaNGhgvXr1sv79+9sbb7xhX3zxha1cudK4RocIiIAIiIAIiIAIiMAPCchh90MeFf1fKTvwFQ1WhRMBEag2gdD0KLTyVvuB0AUiIAJFIyA9ihe1eMbLU6mJgAjkT6DUekS03ZIlS1wU3T333GNXXXWVtW3b1jnscNqxRGaPHj3s+OOPt3fffddmz57tlsjMv8S6UgREQAREQAREQAQqj4AcdpVXpxlLVOoOfMaM6QsREIHgCISmR6GVN7gHWgUWgQQRkB7FW1niGS9PpSYCIpA/gXLRo2+//dYmTJhg9913n+25557Wvn17q1evntWvX986dOhg3bt3t3HjxtnkyZOdg2/VqlXa1y7/ateVIiACIiACIiACFUZADrsKq9CqilMuHfiq8qjvREAEwiAQmh6FVt4wnmKVUgSSSUB6FG+9iWe8PJWaCIhA/gTKRY/Ynw6n3cKFC23ixIn2wAMP2B577GHbbrutc9oRbceSmfvuu6+NGTPGXn31VcNpp0MEREAEREAEREAERMBMDruAnoJy6cAHhFxFFQERyEAgND0KrbwZql0fi4AIlAEB6VG8lSCe8fJUaiIgAvkTKDc9Yo+6zz77zF5++WU7+uijbe+997amTZu6aLvGjRu7yLsRI0bYww8/7JbHZDlNnH06REAEREAEREAERCBkAnLYBVT75daBDwi9iioCIhAhEJoehVbeSHXrXxEQgTIiID2KtzLEM16eSk0ERCB/AuWoR2vWrHHRdp9//rmLpDvmmGNsn332cZF2tWvXttatW9tOO+1kV1xxhd199922dOnS/AHoShEQAREQAREQARGoAAJy2FVAJeZahHLswOead50nAiJQWQRC06PQyltZT6tKIwKVRUB6FG99ime8PJWaCIhA/gTKVY+ImluxYoXNnDnT/vjHP9qxxx5rW221lRFlV6dOHWvevLmdfvrpdvnll9unn35q8+bNs3Xr1inaLv9HQVeKgAiIgAiIgAgkmIAcdgmuvOpmvVw78NUth84XARFIPoHQ9Ci08ib/CVUJRKByCUiP4q1b8YyXp1ITARHIn0A56xFOO5xwOONwyuGcw0mHsw6nHc47nHg483Dq4dzDyaclMvN/HnSlCIiACIiACIhAMgnIYZfMessr1+Xcgc+rQLpIBEQgsQRC06PQypvYB1MZF4EACEiP4q1k8YyXp1ITARHIn0BS9IhlL1n+kmUwWQ6TZTFZHrN+/fpuuUyWzXz11VeNZTS//fZbY1lNHSIgAiIgAiIgAiIQCgE57EKpaTNLSgc+oCpRUUUgWAKh6VFo5Q32wVbBRSABBKRH8VaSeMbLU6mJgAjkTyApekTU3JIlS2z27Nn28MMP24gRI6x9+/Yuyq5evXrWtGlT23vvve3oo4+2119/3dkx1q5dmz8YXSkCIiACIiACIiACCSIgh12CKqumWU1KB76m5dT1IiAC5U8gND0Krbzl/wQqhyIQLgHpUbx1L57x8lRqIiAC+RNImh6tWrXKRdKNGTPG9t13X9txxx2tQYMGLtJu2223tT322MM59F5++WVbuHChi7bTEpn5Px+6UgREQAREQAREIBkE5LBLRj3FksukdeBjKbQSEQERKEsCoelRaOUty4dOmRIBEXAEpEfxPgjiGS9PpSYCIpA/gaTpEc43nHZE27322ms2duxY6969u3Xo0ME57Yi2I/Juzz33tPvuu88mTJjgnHb5E9KVIiACIiACIiACIlD+BOSwK/86ii2HSevAx1ZwJSQCIlB2BELTo9DKW3YPnDIkAiKwgYD0aAOKWN6IZywYlYgIiEAMBJKqRyx3OWvWLHvrrbesb9++1qNHD9tiiy1ctB0Rd23btrWrrrrK7rnnHvvyyy+dg2/9+vUxEEt2EuvWrbOvv/7avvrqK7dsKPWvlxjoGdAzUKpnAC1Ck9AmHSIgAjUjIIddzfgl6mpEm6UlePFehwiIgAiUikBoehRaeUv1XOm+IiAC2QlIj7Izqs4Z4lkdWjpXBESgkASSrEc47VauXGlffPGFvfHGG9a/f3/r1auXc9rVqlXLOfBYMvPiiy+2UaNG2YIFCyz0fe0wjB933HEuKhE23tajv9/ZvMRBHPQMFO8ZQIOIkEaT0CYdIiACNSMgh13N+CXq6iR34BMFWpkVARHISiA0PQqtvFkfAJ0gAiJQMgLSo3jRi2e8PJWaCIhA/gSSrkcskblixQoXRTds2DA79dRTrV27dta0aVPbdNNNrVGjRtavXz+76KKL7MMPP7Q5c+bYmjVrLNRoO6IN99tvP9t+++1tu+22k8Puf5PT5aQpnpNGrMXaPwNoEFqEJqFNOkRABGpGQA67mvFL1NVJ78AnCrYyKwIiUCWB0PQotPJWWfn6UgREoKQEpEfx4hfPeHkqNREQgfwJVIIe4bRjOTUi6KZPn27XXXednXXWWS7Crnbt2ta4cWNr06aN9enTxwYNGmTTpk2zRYsWBem0o76JamGfv0mTJmk5TC0JqmdAz0DJngE0CC1Ck9AmHSIgAjUjIIddzfgl6upK6MAnCrgyKwIikJFAaHoUWnkzVry+EAERKDkB6VG8VSCe8fJUaiIgAvkTqDQ9WrZsmY0ePdquv/5623nnna1169ZWp04dq1+/vnXr1s2OPPJImzBhgk2dOtWWL19uq1evzh9eAq+stPpOYBUoyyIgAv8jID3SoyAC8RKQwy5enmWdmgS0rKtHmROBoAiEpkehlTeoh1mFFYGEEZAexVth4hkvT6UmAiKQP4FK0yOi7XDazZ071x577DEbOXKkdezY0Vq0aGH16tVz0XZdu3a1I444wl588UX79NNP3RKZ+RNM1pWVVt/Joq/cioAIpBKQHqXS0HsRqDkBOexqzjAxKUhAE1NVyqgIVDyB0PQotPJW/AOsAopAgglIj+KtPPGMl6dSEwERyJ9AperRqlWr7O2337bx48fbQQcd5KLt2M+OSDuWx+zUqZPdd999Ltpu/vz5bh88nH2VflRqfVd6val8IlCJBKRHlVirKlMpCchhV0r6Rb63BLTIwHU7ERCBjARC06PQypux4vWFCIhAyQlIj+KtAvGMl6dSEwERyJ9ApeoRzjecdkuXLrV33nnHnnzySevZs6dz3OG0q1u3rrVt29a6dOlio0aNco69FStW5A8yIVdWan0nBL+yKQIikEJAepQCQ29FIAYCctjFADEpSUhAk1JTyqcIVD6B0PQotPJW/hOsEopAcglIj+KtO/GMl6dSEwERyJ9ApevRunXr3PKYH3zwgfXv39969eplLVu2tAYNGjinHXvcDR061O644w6bMWOGLVq0yNavX58/0DK/stLru8zxK3siIAIpBKRHKTD0VgRiICCHXQwQk5KEBDQpNaV8ikDlEwhNj0Irb+U/wSqhCCSXgPQo3roTz3h5KjUREIH8CYSgRzjtVq9ebbNnz7YpU6bYGWecYb1797aGDRtarVq1rHnz5ta+fXs7++yzbcSIETZv3jxbu3Zt/lDL+MoQ6ruM8StrIiACKQSkRykw9FYEYiAgh10MEJOShAQ0KTWlfIpA5RMITY9CK2/lP8EqoQgkl4D0KN66E894eSo1ERCB/AmEpEc44b755hsbPny4DRw40Lbddltr1qyZc9rhvDv66KNt8ODBzqmHcw8nH86+SjpCqu9KqjeVRQQqkYD0qBJrVWUqJQE57EpJv8j3loAWGbhuJwIikJFAaHoUWnkzVry+EAERKDkB6VG8VSCe8fJUaiIgAvkTCE2PWO5y4cKFRrlHjhxpQ4YMMZbFZE87nHatWrWyww8/3AYMGGBTp061+fPnV9QSmaHVd/6/DF0pAiJQaALSo0ITVvqhEZDDLqAal4AGVNkqqgiUOYHQ9Ci08pb546fsiUDQBKRH8Va/eMbLU6mJgAjkTyBUPVqxYoU9/vjjdvvtt1uXLl2sbdu2tvnmm1u9evWsU6dOdsghh9gzzzxj7H23dOlSW7VqVf6Qy+jKUOu7jKpAWREBEfgfAemRHgURiJeAHHbx8izr1CSgZV09ypwIBEUgND0KrbxBPcwqrAgkjID0KN4KE894eSo1ERCB/AmEqkf//e9/bfny5W6/Ohxzd999t+2yyy4uwq5+/frWqFEj23nnna1nz54bHHcskZn0I9T6Tnq9Kf8iUIkEpEeVWKsqUykJyGFXSvpFvjcCuv3227v13SdNmuSWjuAzvcRAz4CegWI/A2gQe02gSdy70g/KKP3V76zYvzPdT89cumcgNP0tdPsifdfvLN3vTJ/puSjFMxC6vq9Zs8Y++ugje+655+zQQw+1zp07O2cdkXYtWrSwjh072l//+ld76qmnbO7cubZs2TLD2ZfUg2eM8RQv3usQAREQgVIRkB6VirzuW6kE5LCr1JpNU66ZM2fabrvt5maatWvXbkPnznfy9Pe7zq44iIOegcI/A2gQ+0qgSWhTpR/S38I/U/rdirGegdyegdD0t9Dti/Q9t+dOv09x0jNQ+GdA+m5G5ByOOJa/fPbZZ+3nP/+5devWzYi0q1OnjrVp08Z23XVXu/HGG+2RRx5xkXmFbicKlb4M5IUiq3RFQASqS0B6VF1iOl8EqiYgh13VfCrq29mzZ1vv3r3duu4+0kMDp8IPnMRYjPUMbPwMoEHsMYEmoU2Vfkh/N34G9LsQEz0DpXkGQtPfQrcv0vfSPMeVoh84WJo1a2aNGze2TTfd1L14z2d8VynlVDmK8zuRvn+n+OvXr7f58+fbxx9/bIMGDbI+ffpY69atXbRd7dq1XbTdOeecYzfccIN98cUXtnDhQlu3bl3iou1kIC90C6/0RUAEciUgPcqVlM4TgdwIyGGXG6eKOItOKEaFWbNmaRlMLQWqZ0DPQMmfAbQITUKbKv2Q/mppLAYxeolBuTwDIelvodsX6bt+1zX5XU+ZMsUuueQS69+/v3Pa4azjPZ/xXU3S1rVhPpvS9+9UH20m2m7OnDku2u68886zvn37WsOGDZ1jvGnTps4pPmDAALviiivceatWrSp0kxFr+vzGvTOc9zpEQAREoFQEpEelIq/7VioBOewqtWZVLhEQAREQAREQAREQAREQAREQgbIlsHjxYhflM3jwYMOBwIv3RP7wnQ4REIGaEVi7dq2Ltrv11lvt/PPPd3tKN2/e3GrVqmUNGjSwww47zE477TR7++233cTmlStXGtck4ZCBPAm1pDyKQBgEpEdh1LNKWTwCctgVj7XuJAIiIAIiIAIiIAIiIAIiIAIiIAKOgBx2ehBEoPAEWCKT3xrRh3feeaddeuml1rZtW+ewI+KuRYsW1qNHDzv++OPt3XffTcwKIDKQF/7Z0R1EQARyIyA9yo2TzhKBXAnIYZcrKZ0nAiIgAiIgAiIgAiIgAiIgAiIgAjERkMMuJpBKRgRyILBixQp7+umn7a677rI99tjD2rdvb3Xr1rV69epZhw4drHv37jZu3DibPHmyLVmyxFgi87///W8OKZfmFBnIS8NddxUBEdiYgPRoYyb6RARqQkAOu5rQ07UiIAIiIAIiIAIiIAIiIAIiIAIikAcBOezygKZLRCBPAjjfcNotWLDAJk6caA888IB17drVRdvVr1/fRdx17NjRRds99thj9uabbzqnXZ63K/hlMpAXHLFuIAIikCMB6VGOoHSaCORIQA67HEHpNBEQAREQAREQAREQAREQAREQARGIi4AcdnGRVDoikDsB9qj77LPPbNKkSdanTx/bc889rUmTJobTrlmzZrbjjjvaLbfcYmPHjrU5c+bY0qVLyzLSTgby3OtcZ4qACBSWgPSosHyVengE5LALr85VYhEQAREQAREQAREQAREQAREQgRITkMOuxBWg2wdLYM2aNS7abtq0afbSSy/ZUUcdZXvttZdbHrN27drWunVr22mnnezqq6+2e++91zntyg2WDOTlViPKjwiES0B6FG7dq+T/n707Abd+rPfHfzJlKPNYxgcZIzKVWUhEMkTGcpKMh1SEDBkqOZEOJ4QSToaIUhE5ykzKnOHwQ2aSOeJ3/6/3/T9fv233PPt59rPX3mt6reta197PXmt9v/f9+ixf1/V9X5/7Hh0Bgd3ouDoqAQIECBAgQIAAAQIECBCYoIDAboI0XiAw6gJZIjPdcw888EDZZ599ypZbblnmmWeeMuOMM5ZpppmmzDrrrGXXXXctRx11VEmw98wzz5Q33nijY7rt3CAf9a+IExAgMIkCrkeTCOVtBCZRQGA3iVDeRoAAAQIECBAgQIAAAQIEWiUgsGuVpOMQmDyBN998s2SJzKeffrrce++95ZBDDik77bRTDe2mmGKKulTmvPPOW3bYYYdywAEHlEceeaR25iXsa/fDDfJ2V8D5CRBoBFyPGgk/CbRGQGDXGkdHIUCAAAECBAgQIECAAAECkywgsJtkKm8kMOoCzz//fDn11FPLoYceWhZddNEy++yzl6mmmqrMMMMMZe211y7bbbdduf7662tH3iuvvFKyrGY7H26Qt1PfuQkQGCjgejRQw+8ERi4gsBu5oSMQIECAAAECBAgQIECAAIFhCQjshsXlzQRGVSBdcwntHn300XLOOeeUY445piy44IK122766acvs8wyS1ljjTXK1ltvXW644YaSG9TpzmvXww3ydsk7LwECgwVcjwaL+DeBkQkI7Ebm59MECBAgQIAAAQIECBAgQGDYAgK7YZP5AIFRF3j11VfLNddcU84777yy6qqrlkUWWaQksJtuuunKwgsvXD784Q/X1/Ke5557ruT97Vgi0w3yUf8qOAEBApMo4Ho0iVDeRmASBQR2kwjlbQQIECBAgAABAgQIECBAoFUCArtWSToOgdYJJHxLCJf/PrME5gUXXFCDu4R1Ce3yXGihhcoqq6xSzj333Bru5f1j/XCDfKzFnY8AgQkJuB5NSMbfCUyegMBu8tx8igABAgQIECBAgAABAgQITLaAwG6y6XyQwKgLZLnLRx55pNx88811Gcwsh5llMdNtl33t5ptvvrpsZpbPzDKaWU5zLDvt3CAf9a+AExAgMIkCrkeTCOVtBCZRQGA3iVDeRoAAAQIECBAgQIAAAQIEWiUgsGuVpOMQGB2BhHbpnnvggQdqt912221X1l577RraTTnllGX22Wcviy66aDn00EPLqaeeWp599tkx29fODfLRqbmjEiAwfAHXo+Gb+QSBoQQEdkPpeI0AAQIECBAgQIAAAQIECIyCgMBuFFAdkkCLBdI19/LLL9duuwMOOKDssMMOZd555y0zzTRTmWKKKcqMM85Ydtppp3LwwQeXu+++uzzxxBPl9ddfL2+++WaLR/L2w7lB/nYP/yJAoH0Crkfts3fm3hQQ2PVmXc2KAAECBAgQIECAAAECBDpYQGDXwcUxNAIDBBLavfHGG+WZZ54p999/f/nWt75V9thjjzLbbLOVaaaZpoZ288wzT9lyyy3LPvvsUzvyXnjhhVFdItMN8gEF8isBAm0VcD1qK7+T96CAwK4Hi2pKBAgQIECAAAECBAgQINDZAgK7zq6P0REYn8CLL75Yzj777HL00UeXpZZaqsw999xl6qmnLtNNN11ZZZVVymabbVZ+//vfl/vuu6+89NJL5bXXXhvfYUb8NzfIR0zoAAQItEjA9ahFkA5D4H8FBHa+CgQIECBAgAABAgQIECBAYIwFBHZjDO50BFogkG67dM89/vjj5cILLyzf+973yiKLLFJmmWWWurddlspceeWVy6abblp+97vflXvvvbcukdmCU7/tEG6Qv43DPwgQaKOA61Eb8Z26JwUEdj1ZVpMiQIAAAQIECBAgQIAAgU4WENh1cnWMjcDQAn//+9/LTTfdVC666KKy9tprlyWWWKLMMMMMNbTLHnfLL798Oeuss8qVV15Zl9LMPngJ+1r1cIO8VZKOQ4DASAVcj0Yq6PME3i4gsHu7h38RIECAAAECBAgQIECAAIFRFxDYjTqxExAYNYGEbwnt0m13yy23lEsuuaSss846NbjL8pjTTjttWXDBBcuKK65YTjvttHLppZeWhHaterhB3ipJxyFAYKQCrkcjFfR5Am8XENi93cO/CBAgQIAAAQIECBAgQIDAqAsI7Ead2AkIjLrAG2+8UZ588sly++23lx133LGsu+66ZfbZZy/vete7asdduu0OOeSQcsopp5RHHnmk5L/7N998c8TjcoN8xIQOQIBAiwRcj1oE6TAE/ldAYOerQIAAAQIECBAgQIAAAQIExlhAYDfG4E5HYJQEEtql2y6BXLrtdt5557LhhhvWwG7KKacss846axk3blzZd999y3HHHVeXyPzHP/4xotG4QT4iPh8mQKCFAq5HLcR0KAKlFIGdrwEBAgQIECBAgAABAgQIEBhjAYHdGIM7HYFRFkho9/jjj5cjjjii7LLLLmWBBRYos8wyS5liiilqx92nPvWp8sUvfrHccccd9X2vvfZaSdg3OQ83yCdHzWcIEBgNAdej0VB1zH4WENj1c/XNnQABAgQIECBAgAABAgTaIiCwawu7kxIYNYHsa5cA7q9//WvJDewTTjih7L///mWOOeYoU089dXn3u99d5pprrrLJJpuU3Xbbrdx99921225ylsh0g3zUyujABAgMU8D1aJhg3k5gIgICu4kAeZkAAQIECBAgQIAAAQIECLRaQGDXalHHI9A5Ai+//HK5+OKLy4knnliWWWaZMs8885RpppmmTD/99GW55ZarS2ZefvnltdvuxRdfLOm2G87DDfLhaI3dexO+5tqe0PaZZ54Z8TPHmZxAdyQzzvnGd878LUu5ZkzPPvtsyXf81VdfLQmqx/eY0HHG915/624B16Purp/Rd56AwK7zamJEBAgQIECAAAECBAgQINDjAgK7Hi+w6fW1QEKMl156qTz11FPl17/+dfnBD35QFl988TL77LOX6aabrnbbfeADHygf+9jHyhVXXFHuuuuu8vrrr0+ymRvkk0w1pm/Mdf0//uM/yuGHH16+/OUv130Ls3fh5D6zvGoCsrF65Hv7wgsv1OfAIC7h23PPPVceeOCB8vWvf70cdNBB5Wc/+1m56qqramg3eHzN+/OZ/O7R2wKuRxjTHmYAACAASURBVL1dX7MbewGB3dibOyMBAgQIECBAgAABAgQI9LmAwK7PvwCm3xcC6ZzLnnW/+c1vyrrrrluWXnrpGtal0y7LY+bfp59+ernsssvK008/XUO+gUHJhJDcIJ+QTHv/ns6zhFnZw3CrrbYqW2yxxYieu+66aw19R3tWCdUSDCZgznfr4Ycfrt10zXnzer6fCZYztx133LF+b3/xi1/UTrvmffnuvvLKK+X555+v3/s777xzWEF0cxw/u0vA9ai76mW0nS8gsOv8GhkhAQIECBAgQIAAAQIECPSYgMCuxwpqOgQmIPD3v/+9diwluMsymBtuuGFdFjOhXZbJfM973lOWXXbZunxmltHMUoMTe7hBPjGh9rz+6KOP1mD2fe97X5l55pnLu971rhE9l1xyyfLQQw+N+mQS1n3zm98s++23X9lnn31qF93Azr7szfiXv/ylXHvttWWxxRYr733ve+t7s09j/l/WPBLWXXnlleWss84qq622WllvvfVKTDx6W8D1qLfra3ZjLyCwG3tzZyRAgAABAgQIECBAgACBPhcQ2PX5F8D0+0ogHUrZ0+zuu+8uu+22W9lkk03KnHPOWcOcqaeeuswxxxxl//33LwlAcvM7YUlCkgl127lB3plfn4Raq666apl33nnLtNNOW975znfW3xdYYIEyOc8c65FHHhn1yaZ7bo899iif/vSna/dclvDM97V55LuY4O3666+vYXMCyXQSnnTSSbWbrnlfloG94IILynHHHVcWWmih2kE6FoFjc34/2yPgetQed2ftXQGBXe/W1swIECBAgAABAgQIECBAoEMFBHYdWhjDIjBKAgk9skTm448/Xm6//fay99571+USZ5hhhjLFFFOUWWaZpYY6u+++e+12yvvSnTe+hxvk41Np/9+awC7h3HzzzVdWXHHFct1119UQNjUb7jNhXb43o/1IqJZuvizTuuWWW9Y99wYGdgmO0/mZYO+iiy4qP/3pT8sf//jHcs8997xtycssCXrggQeW7bbbrsw000w1tMucPXpbwPWot+trdmMvILAbe3NnJECAAAECBAgQIECAAIE+FxDY9fkXwPT7VuAf//hHDT6+853v1OUH04k066yzlimnnLJ23G288cblC1/4Qg1EEtgktBsc2rhB3plfnyawW3DBBUue6ZDL38bykW7Ogc9JOXfzfcoSntl3b3CHXY6R72H2prvlllvKTTfdVB588MHy2GOPve27mZAvn80xcqwElwK7SalAd7+n+f6od3fX0eg7R0Bg1zm1MBICBAgQIECAAAECBAgQ6BMBgV2fFNo0CYxHIIHKc889Vx5++OFyyimnlEMOOaQunZhuuwQds88+e90Lbccdd6zdeE8++eTbghE3yMeD2gF/andg13yvsqRq/h/zwgsvTHBZ1YFczfdpqMAuXXY5foK7PF9//fWS8HngQ2A3UKN/fm++PwK7/qm5mY6ugMBudH0dnQABAgQIECBAgAABAgQI/JOAwO6fSPyBQN8JZJnBSy+9tJx22ml1+cR0ZWXvs+mmm64sscQSZZ111im//OUva7ddwpcEJQlO3CDvzK/KaAd2Ccyy7GSWpswzAdkrr7xSl6vMEqoJgG+99db6fcnPO+64o3b4JfDNdy3fn+aR3/O3fC5702Xfvemnn75stNFGZZdddim33XZb7aB78cUX6zkSzjVLuqazLv8Py2v5PqYD9Kmnnip33nln/WyOkWPlmDl29r/LuBNS55lAMcfIuTP+HHeoR86R7r6Bn8tnBneeDnUMr42egOvR6Nk6cn8KCOz6s+5mTYAAAQIECBAgQIAAAQJtFBDYtRHfqQl0iECCiIQmCV6uvPLKcuaZZ5Zll122zDPPPDW0S8fTUkstVT7ykY+Uiy++uC5FmKDFDfIOKeCgYYx2YJfQ6+CDDy577LFHfe6333418P3FL35RNttss7L66quXcePG1f3zsofewgsvXD760Y+W7bffvvz2t7+tAV6CrjwT5l1++eUlS7CusMIK5Z3vfGfdS3GOOeaoQdtKK61UNtxww/Jf//Vf9X35ziUE3HTTTesxv/vd75ZzzjmnhnYJ63bdddfy8Y9/vC6DmWNkX8YcM8ded911y0EHHVSOOuqokqVgjzzyyLLeeuuVTTbZpPzud78r995779v2whvEWjsFf/jDH9a9Hddff/06hoxlcOfp4M/599gIuB6NjbOz9I+AwK5/am2mBAgQIECAAAECBAgQINAhAgK7DimEYRDoAIEsL5jQIuFFQo8PfvCDZaaZZqpdSlkec7HFFivf+973yoUXXli7km6//fYy//zz2yOsA2o3cAijHdglGNttt93KlltuWUOrbbbZpvzgBz8o3//+98saa6xRll566TL33HOX2Wabrcw888z155JLLlnWXHPN8qMf/aj85je/eavTLoHXr3/96xoG5z3TTDNNDdnyuTnnnLMea6211ipnnHFGfd/9999fbrjhhtoJmvcfeuih9dzpfEtw9pnPfKYeK2FzjpHALsfMez/0oQ+VL3/5y/UzCe0OOOCA+vfllluufqezJ97A7r+Bpvk9nXXf/OY3y5577lne//73170Bs5eewG6wVHv+LbBrj7uz9q6AwK53a2tmBAgQIECAAAECBAgQINChAgK7Di2MYRFok0C6nl566aVy99131267dEytssoqNbRL8JEgJt12Rx99dPnGN75Rwxh7RrWpWBM47WgHdk888URJSJcAbvHFFy+LLLJI7ahLKLbddtvVLrd8N5pwK511Cd9mnHHGusRquu0eeOCBGtplScp77rmnnHzyybVrb9ZZZ60B2wc+8IG6FOsRRxxRg8A//OEP9TuZz1199dUly7YmRP7iF79Y0mXXLI157rnn1n+nGzTHyHc2x0xH4AknnFDSBZjlX9NJ+pOf/KS8973vrd/hvffeuxx77LF1qcwJsNYlNXPcfP9XXnnl8slPfrIu9WlJzAmJje3fBXZj6+1svS8gsOv9GpshAQIECBAgQIAAAQIECHSYgMCuwwpiOAQ6QCB7lGWPr/vuu68kyNhiiy3q8pgJXKaeeuoacDTLIaYDT2DXAUUbMIQmsEtdsiTliiuuWJcxzd+H8xy8R1xzigR2W221Ve0wS4dlutlynux3mAAtIdtZZ51Vl7E85phjyle/+tWy0EIL1eAsy1Smoy37zOX/P9kDL3ve/fznPy8nnnhiyevZPzHdcFmqMvsqXnTRRTXUe/DBB0ueCewStKWDrgnacqzsQ9cEcZ/4xCfqMXKsHDPHTmfotddeW2688caSzrhLLrmkdogm0EvQeOCBB9Y97pp5Nj+zZGw679Ldl6U145p9HXfYYYfaXde8z8/2Cgjs2uvv7L0nILDrvZqaEQECBAgQIECAAAECBAh0uIDArsMLZHgE2iSQ0C5LZCacueuuu+reX1lu8N3vfnddZjBBXZ5ZclBg16YiTeC0TWCXEG2GGWaonW0J7VZdddVhPdMJN3CPuOZ0TWCXzsscP0tf7rvvvuW4446r+xpm6cgXX3yxPvP/mHTFZZ+7dOXlOzPvvPOWn/3sZ+WPf/xjDdn+8Y9/1G67fM8SAOaY2aNur732Kg899FB9Ld/FV199tTzyyCMTDOwSrCW0SwCYz+YYOVaOmWNnn8YcI+Fbnv/zP/9Tl/DMHntZ7jUhXEKfjGfgI+/Ncpnnn39+DQoTAKZj79RTT6372g18r9/bJyCwa5+9M/emgMCuN+tqVgQIECBAgAABAgQIECDQwQICuw4ujqER6ACBhBfPPvtsXbLwa1/7Wll00UXrUoRTTjllecc73lH+5V/+RWDXAXUaOIQmsEswNt1009VnlpDM0pXDeS6//PK1W+70009/WzA1MLBLB1sCu3TSnXfeeTWkGziW/J5uzSyhuvvuu9fAbq655qrLUV533XU1QGve3wQu73rXu2pXZ0LAZ555pnm5BmlDBXbNG/OZfDadoTnWhALldBBuvPHGteMvVume+/Of/1yXhE341zwSAl522WXllFNOKRl7Arvs5XjxxRfX9zbv87O9As33Z0L1bu/onJ1A9wkI7LqvZkZMgAABAgQIECBAgAABAl0uILDr8gIaPoExEEi33fPPP1/38DrzzDPr3mTp3pp++ulraOcG+RgUYRinGBjYDeywW2211cpwnhtssEE5/vjjS/aFS8dc8xgc2CXsuv7668vjjz9exrefWz579tlnv7Xn4cDAK11vzaMJXMYqsEuQmKBxzz33rMt1ZpnNdNGlmy5ddc0jgXXC6iyBmX3zEnrmPU899VTJfxsenSHQfH9cjzqjHkbR/QICu+6voRkQIECAAAECBAgQIECAQJcJCOy6rGCGS6CNAllO8KqrrqrhS/YYGzduXJlqqqkm2MHUxqH29ambwC6havYdTMiU/eCy79xwnjvttFP54Q9/WPd6GxisDQ7ssuTk7bffXrvwBnamNUV46aWXavddwrGMJc8sn5k95fJa82gCl7EK7F544YU6v8MOO6wGdnPOOWftoks3Xbrq8sh8nnzyybLbbrvVbrz3vOc9ZZlllqmdeDEZ33yb+fg5tgLN90dgN7buzta7AgK73q2tmREgQIAAAQIECBAgQIBAhwoI7Dq0MIZFoAMFEk4ktMt1Ix1GP/3pT8vcc88tsOuwWjWBXYKLhGkrr7xyueWWW+p+hAnbJvWZoCrdcYODqcGBXc6Tfeom1G02vsCuWUKznYFdlnu9//77yxVXXFG/w7PMMkvtoks3Xbrq8kin3X333VeXy8w8N9xww7LLLrvUEE9Y11lffIFdZ9XDaLpfQGDX/TU0AwIECBAgQIAAAQIECBDoMgGBXZcVzHAJdIBAlj3M/l/ZgyzLIepo6YCiDBhCE9hl37o8V1111ZK/teoxvsAuYcmEHp0a2OV7nFAy4fPiiy9e0mH38Y9/vHbT5e95Pctm3nrrrWWxxRar+9dtt9125YADDngr0JvQnP197AUEdmNv7oy9LSCw6+36mh0BAgQIECBAgAABAgQIdKCAwK4Di2JIBLpAoOlOSlgnsOusggnsnin77rtv2WKLLUqW1xzq+5lQ7tFHHy3bbLNNWX311UuWEV1hhRVqV91f//rX8utf/7qcdNJJNcyba665ysknn1wuvfTSt5bM7KzK9/doBHb9XX+zb72AwK71po5IgAABAgQIECBAgAABAgSGFBDYDcnjRQIEhhBwg3wInDa+JLCb9MAuZXr66afLHnvsUff5m2OOOWo33W233Va7En/84x+Xo446qgZ2733ve8v5559fO/KyVKZHZwm4HnVWPYym+wUEdt1fQzMgQIAAAQIECBAgQIAAgS4TENh1WcEMl0AHCbhB3kHFGDAUgd3wAruBS3YmsEsn3SmnnFLOOuussuOOO9ZlMrO0aDrvsuddwjr71w34wnXIr65HHVIIw+gZAYFdz5TSRAgQIECAAAECBAgQIECgWwQEdt1SKeMk0HkCbpB3Xk0yom4P7GaYYYa6nGWWtUz3W/PIMqyPPPJIufrqq0u63Waeeeay9957l2OPPbbk/2XN45lnhhfYvfLKK+W3v/1tOf3008vcc89dEtodffTR5fjjjy8bbbRRXSpzqaWWKuuss05dPrM5j5+dJeB61Fn1MJruFxDYdX8NzYAAAQIECBAgQIAAAQIEukxAYNdlBTNcAh0k4AZ5BxVjwFB6IbDbbLPNyj777DMmgd2bb75ZA7/bb7+9vP/9769hYM6f5zzzzFPmnXfe8rnPfa4cdthhJfvaeXSmgOtRZ9bFqLpXQGDXvbUzcgIECBAgQIAAAQIECBDoUgGBXZcWzrAJdICAG+QdUITxDKEJ7BZYYIEy//zzl5VXXrlkT7Z0nk3OMyFVloF8/fXX69meeOKJstVWW5VVVlmlTDvttCXnyXdhQo+BS07OPvvsJc9jjjmmnHfeeSWvNY8cY6GFFirvete7ysc+9rGyyy671CUon3/++Xr+l19+eZI77L70pS+VLbfcsh5rvvnmK3/6059q2Pbiiy+WHGfwkpaZX5a7XHXVVcsiiyxS1l577bLGGmuUmWaaqXbd7bfffuXEE08sGYtHZwq4HnVmXYyqewUEdt1bOyMnQIAAAQIECBAgQIAAgS4VENh1aeEMm0AHCLhB3gFFGM8QmsAuQdWss85aO8Q+//nPlywxOTnPQw89tPzxj3+soVyWpRytwO6hhx4qSy+9dF3qMkteZhnKdLV9//vfLzfffHO56667ygMPPDBJS2IecMABZdttt62BXUK33XffvWQe55xzTrn00ktraDeQLgFelt9M0PepT32qdta9+93vLlNMMUV5z3veU375y1+WO++8s7z22msDP+b3DhJwPeqgYhhKTwgI7HqijCZBgAABAgQIECBAgAABAt0kILDrpmoZK4HOEnCDvLPq0YxmYGA344wz1o627MW2xRZbTNYzy0Fm37h77rmndtmNVmCX/enS4ZauwNlmm63+zLkTvl1++eXlhhtuqF1wE9vDLh2BRx55ZElIOcsss5QYbLrppmWnnXYq3/nOd8oZZ5xRXnjhhYbrrZ/PPfdc+eY3v1l23XXXev6pppqqvPOd7yzjxo2r88/4Elh6dKaA61Fn1sWouldAYNe9tTNyAgQIECBAgAABAgQIEOhSAYFdlxbOsAl0gIAb5B1QhPEMoQnssvfa1FNPXbvEZphhhtptluUmh/tceOGF6/KVCcyydORoBXYJzP793/+97LXXXmWOOeaoy20mbMuSmwntvve979Uut4kFdq+++mq57rrryrnnnluWXHLJGljmOAkBV1xxxbL55puXxx9//J/kms/95Cc/KXPNNVeZZpppyrLLLls22WST8vDDDwvr/kmss/7getRZ9TCa7hcQ2HV/Dc2AAAECBAgQIECAAAECBLpMQGDXZQUzXAIdJOAGeQcVY8BQEkYllMredQnbEniN5LnCCiuUiy++uNxyyy01sHvqqafKHnvsUbvW3ve+99WuuHSfTeiRPeMuueSSctJJJ5XllluuPvN7/pbXmkf2lzv77LPLt7/97fqe7GeX0HGJJZaoS2OefPLJ5c9//nO58cYb6/5573//++vfTz311LftLZe99rJ85hVXXFE22GCDeqx07S244IJlrbXWKtttt10NHZvzNj+z3OWtt95a5zrPPPOU6aabrqy55pplhx12KE8++WTzNj87VMD1qEMLY1hdKyCw69rSGTgBAgQIECBAgAABAgQIdKuAwK5bK2fcBNov4AZ5+2swvhG88cYbtYMsnXap0Uif6S5LsJbuuuz19uabb5aEdgkGs+9cwrqcc0KPfCafzzKUOVae+T1/y2vNI7/n788++2xdfvP2228v1157bQ3ocr7nn3++LsmZceScOU6Wv8zfBx4nx0v49sorr5THHnusPPjgg+X666+vXXd333133QdvfEtb5jPZpy771SWwy/5/Bx98cEkgOL4lNJtx+9kZAq5HnVEHo+gdAYFd79TSTAgQIECAAAECBAgQIECgSwQEdl1SKMMk0IECbpB3YFF6YEgDA75HH320hm5DBYITm3I+m+AuxxpfUNh8PkFguvfOO++8GthlWc4sw5nuwpdeeql5m58dKuB61KGFMayuFRDYdW3pDJwAAQIECBAgQIAAAQIEulVAYNetlTNuAu0XcIO8/TXo1REktMsznXDj64Yb7ryb4zTHHd/n06135JFHll122aXMPffcZbHFFis333xz7SZMV6FHZwu4HnV2fYyu+wQEdt1XMyMmQIAAAQIECBAgQIAAgS4XENh1eQENn0AbBdwgbyO+U49YICHcM888UwO5J554ou57t+eee9b9/8aNG1dWXHHFujTn4KU7R3xiBxgVAdejUWF10D4WENj1cfFNnQABAgQIECBAgAABAgTaIyCwa4+7sxLoBQE3yHuhiv07h+yVd+CBB9aOuu2337588pOfLHPNNVddDnOnnXYqhx56aA300pXn0fkCrkedXyMj7C4BgV131ctoCRAgQIAAAQIECBAgQKAHBAR2PVBEUyDQJgE3yNsE77QtEXjqqafKzjvvXDbeeOOy1lprlZVXXrnMNttsZb755isHHXRQOfnkk8vzzz/fknM5yOgLuB6NvrEz9JeAwK6/6m22BAgQIECAAAECBAgQINABAgK7DiiCIRDoUgE3yLu0cIZdBR577LEa1i277LJl9tlnr5116bLLspj33HNPSQeeveu658vietQ9tTLS7hAQ2HVHnYySAAECBAgQIECAAAECBHpIQGDXQ8U0FQJjLOAG+RiDO11LBZ588smy4447lnXXXbcstdRSZbnlliv/9m//Vo4++ujy9NNPl3/84x8tPZ+Dja6A69Ho+jp6/wkI7Pqv5mZMgAABAgQIECBAgAABAm0WENi1uQBOT6CLBdwg7+LiGXp54403SkK7dNo99NBD5eGHH6571j333HM667rw++F61IVFM+SOFhDYdXR5DI4AAQIECBAgQIAAAQIEelFAYNeLVTUnAmMj4Ab52Dg7CwECExdwPZq4kXcQGI6AwG44Wt5LgAABAgQIECBAgAABAgRaICCwawGiQxDoUwE3yPu08KZNoAMFXI86sCiG1NUCAruuLp/BEyBAgAABAgQIECBAgEA3CgjsurFqxkygMwTcIO+MOhgFAQKluB75FhBorYDArrWejkaAAAECBAgQIECAAAECBCYqILCbKJE3ECAwAQE3yCcA488ECIy5gOvRmJM7YY8LCOx6vMCmR4AAAQIECBAgQIAAAQKdJyCw67yaGBGBbhFwg7xbKmWcBHpfwPWo92tshmMrILAbW29nI0CAAAECBAgQIECAAAECRWDnS0CAwOQKuEE+uXI+R4BAqwVcj1ot6nj9LiCw6/dvgPkTIECAAAECBAgQIECAwJgLCOzGnNwJCfSMgBvkPVNKEyHQ9QKuR11fQhPoMAGBXYcVxHAIECBAgAABAgQIECBAoPcFBHa9X2MzJDBaAm6Qj5as4xIgMFwB16Phink/gaEFBHZD+3iVAAECBAgQIECAAAECBAi0XEBg13JSByTQNwJukPdNqU2UQMcLuB51fIkMsMsEBHZdVjDDJUCAAAECBAgQIECAAIHuFxDYdX8NzYBAuwTcIG+XvPMSIDBYwPVosIh/ExiZgMBuZH4+TYAAAQIECBAgQIAAAQIEhi0gsBs2mQ8QIPC/Am6Q+yoQINApAq5HnVIJ4+gVAYFdr1TSPAgQIECAAAECBAgQIECgawQEdl1TKgMl0HECbpB3XEkMiEDfCrge9W3pTXyUBAR2owTrsAQIECBAgAABAgQIECBAYEICArsJyfg7AQITE3CDfGJCXidAYKwEXI/GStp5+kVAYNcvlTZPAgQIECBAgAABAgQIEOgYAYFdx5TCQAh0nYAb5F1XMgMm0LMCrkc9W1oTa5OAwK5N8E5LgAABAgQIECBAgAABAv0rILDr39qbOYGRCrhBPlJBnydAoFUCrketknQcAv+/gMDON4EAAQIECBAgQIAAAQIECIyxgMBujMGdjkAPCbhB3kPFNBUCXS7getTlBTT8jhMQ2HVcSQyIAAECBAgQIECAAAECBHpdQGDX6xU2PwKjJ+AG+ejZOjIBAsMTcD0anpd3E5iYgMBuYkJeJ0CAAAECBAgQIECAAAECLRYQ2LUY1OEI9JGAG+R9VGxTJdDhAq5HHV4gw+s6AYFd15XMgAkQIECAAAECBAgQIECg2wUEdt1eQeMn0D4BN8jbZ+/MBAi8XcD16O0e/kVgpAICu5EK+jwBAgQIECBAgAABAgQIEBimgMBumGDeToDAWwJukL9F4RcCBNos4HrU5gI4fc8JCOx6rqQmRIAAAQIECBAgQIAAAQKdLiCw6/QKGR+BzhVwg7xza2NkBPpNwPWo3ypuvqMtILAbbWHHJ0CAAAECBAgQIECAAAECgwQEdoNA/JMAgUkWcIN8kqm8kQCBURZwPRplYIfvOwGBXd+V3IQJECBAgAABAgQIECBAoN0CArt2V8D5CXSvgBvk3Vs7IyfQawKuR71WUfNpt4DArt0VcH4CBAgQIECAAAECBAgQ6DsBgV3fldyECbRMwA3yllE6EAECIxRwPRohoI8TGCQgsBsE4p8ECBAgQIAAAQIECBAgQGC0BQR2oy3s+AR6V8AN8t6trZkR6DYB16Nuq5jxdrqAwK7TK2R8BAgQIECAAAECBAgQINBzAgK7niupCREYMwE3yMeM2okIEJiIgOvRRIC8TGCYAgK7YYJ5OwECBAgQIECAAAECBAgQGKmAwG6kgj5PoH8F3CDv39qbOYFOE3A96rSKGE+3Cwjsur2Cxk+AAAECBAgQIECAAAECXScgsOu6khkwgY4RcIO8Y0phIAT6XsD1qO+/AgBaLCCwazGowxEgQIAAAQIECBAgQIAAgYkJCOwmJuR1AgQmJOAG+YRk/J0AgbEWcD0aa3Hn63UBgV2vV9j8CBAgQIAAAQIECBAgQKDjBAR2HVcSAyLQNQJukHdNqQyUQM8LuB71fIlNcIwFBHZjDO50BAgQIECAAAECBAgQIEBAYOc7QIDA5Aq4QT65cj5HgECrBVyPWi3qeP0uILDr92+A+RMgQIAAAQIECBAgQIDAmAsI7Mac3AkJ9IyAG+Q9U0oTIdD1Aq5HXV9CE+gwAYFdhxXEcAgQIECAAAECBAgQIECg9wUEdr1fYzMkMFoCuUE+bty4ssACC5Srr7665N+eDHwHfAfa8R3INSjXolyTcn4PAgRGJiCwG5mfTxMgQIAAAQIECBAgQIAAgWELCOyGTeYDBAj8r8DDDz9cll9++TLnnHOW+eefv94szw1zTwa+A74DY/0dyDUo16Jck3Jt8iBAYGQCAruR+fk0AQIECBAgQIAAAQIECBAYtoDAbthkPkCAwP8KPPbYY2XjjTcu1etBTAAAIABJREFUyy233FuddmN9k975BEO+A74D+Q6ksy7XolyTcm3yIEBgZAICu5H5+TQBAgQIECBAgAABAgQIEBi2gMBu2GQ+QIDA/wq88cYb9cb4I488YilMy4H6DvgOtP07kGtRwrpcmzwIEBiZgMBuZH4+TYAAAQIECBAgQIAAAQIEhi0gsBs2mQ8QIECAAAECBAgQ6GkBgV1Pl9fkCBAgQIAAAQIECBAgQKATBQR2nVgVYyJAgAABAgQIECDQPgGBXfvsnZkAAQIECBAgQIAAAQIE+lRAYNenhTdtAgQIECBAgAABAhMQENhNAMafCRAgQIAAAQIECBAgQIDAaAkI7EZL1nEJECBAgAABAgQIdKeAwK4762bUBAgQIECAAAECBAgQINDFAgK7Li6eoRMgQIAAAQIECBAYBQGB3SigOiQBAgQIECBAgAABAgQIEBhKQGA3lI7XCBAgQIAAAQIECPSfgMCu/2puxgQIECBAgAABAgQIECDQZgGBXZsL4PQECBAgQIAAAQIEOkxAYNdhBTEcAgQIECBAgAABAgQIEOh9AYFd79fYDAkQIECAAAECBAgMR0BgNxwt7yVAgAABAgQIECBAgAABAi0QENi1ANEhCBAgQIAAAQIECPSQgMCuh4ppKgQIECBAgAABAgQIECDQHQICu+6ok1ESIECAAAECBAgQGCsBgd1YSTsPAQIECBAgQIAAAQIECBD4XwGBna8CAQIECBAgQIAAAQIDBQR2AzX8ToAAAQIECBAgQIAAAQIExkBAYDcGyE5BgAABAgQIECBAoIsEBHZdVCxDJUCAAAECBAgQIECAAIHeEBDY9UYdzYIAAQIECBAgQIBAqwQEdq2SdBwCBAgQIECAAAECBAgQIDCJAgK7SYTyNgIECBAgQIAAAQJ9IiCw65NCmyYBAgQIECBAgAABAgQIdI6AwK5zamEkBAgQIECAAAECBDpBQGDXCVUwBgIECBAgQIAAAQIECBDoKwGBXV+V22QJECBAgAABAgQITFRAYDdRIm8gQIAAAQIECBAgQIAAAQKtFRDYtdbT0QgQIECAAAECBAh0u4DArtsraPwECBAgQIAAAQIECBAg0HUCAruuK5kBEyBAgAABAgQIEBhVAYHdqPI6OAECBAgQIECAAAECBAgQ+GcBgd0/m/gLAQIECBAgQIAAgX4WENj1c/XNnQABAgQIECBAgAABAgTaIiCwawu7kxIgQIAAAQIECBDoWAGBXceWxsAIECBAgAABAgQIECBAoFcFBHa9WlnzIkCAAAECBAgQIDB5AgK7yXPzKQIECBAgQIAAAQIECBAgMNkCArvJpvNBAgQIECBAgAABAj0pILDrybKaFAECBAgQIECAAAECBAh0soDArpOrY2wECBAgQIAAAQIExl5AYDf25s5IgAABAgQIECBAgAABAn0uILDr8y+A6RMgQIAAAQIECBAYJCCwGwTinwQIECBAgAABAgQIECBAYLQFBHajLez4BAgQIECAAAECBLpLQGDXXfUyWgIECBAgQIAAAQIECBDoAQGBXQ8U0RQIECBAgAABAgQItFBAYNdCTIciQIAAAQIECBAgQIAAAQKTIiCwmxQl7yFAgAABAgQIECDQPwICu/6ptZkSIECAAAECBAgQIECAQIcICOw6pBCGQYAAAQIECBAgQKBDBAR2HVIIwyBAgAABAgQIECBAgACB/hEQ2PVPrc2UAAECBAgQIECAwKQICOwmRcl7CBAgQIAAAQIECBAgQIBACwUEdi3EdCgCBAgQIECAAAECPSAgsOuBIpoCAQIECBAgQIAAAQIECHSXgMCuu+pltAQIECBAgAABAgRGW0BgN9rCjk+AAAECBAgQIECAAAECBAYJCOwGgfgnAQIECBAgQIAAgT4XENj1+RfA9AkQIECAAAECBAgQIEBg7AUEdmNv7owECBAgQIAAAQIEOllAYNfJ1TE2AgQIECBAgAABAgQIEOhJAYFdT5bVpAgQIECAAAECBAhMtoDAbrLpfJAAAQIECBAgQIAAAQIECEyegMBu8tx8igABAgQIECBAgECvCgjserWy5kWAAAECBAgQIECAAAECHSsgsOvY0hgYAQIECBAgQIAAgbYICOzawu6kBAgQIECAAAECBAgQINDPAgK7fq6+uRMgQIAAAQIECBD4ZwGB3T+b+AsBAgQIECBAgAABAgQIEBhVAYHdqPI6OAECBAgQIECAAIGuExDYdV3JDJgAAQIECBAgQIAAAQIEul1AYNftFTR+AgQIECBAgAABAq0VENi11tPRCBAgQIAAAQIECBAgQIDARAUEdhMl8gYCBAgQIECAAAECfSUgsOurcpssAQIECBAgQIAAAQIECHSCgMCuE6pgDAQIECBAgAABAgQ6R0Bg1zm1MBICBAgQIECAAAECBAgQ6BMBgV2fFNo0CRAgQIAAAQIECEyigMBuEqG8jQABAgQIECBAgAABAgQItEpAYNcqScchQIAAAQIECBAg0BsCArveqKNZECBAgAABAgQIECBAgEAXCQjsuqhYhkqAAAECBAgQIEBgDAQEdmOA7BQECBAgQIAAAQIECBAgQGCggMBuoIbfCRAgQIAAAQIECBAQ2PkOECBAgAABAgQIECBAgACBMRYQ2I0xuNMRIECAAAECBAgQ6HABgV2HF8jwCBAgQIAAAQIECBAgQKD3BAR2vVdTMyJAgAABAgQIECAwEgGB3Uj0fJYAAQIECBAgQIAAAQIECEyGgMBuMtB8hAABAgQIECBAgEAPCwjseri4pkaAAAECBAgQIECAAAECnSkgsOvMuhgVAQIECBAgQIAAgXYJCOzaJe+8BAgQIECAAAECBAgQINC3AgK7vi29iRMgQIAAAQIECBAYr4DAbrws/kiAAAECBAgQIECAAAECBEZPQGA3eraOTIAAAQIECBAgQKAbBQR23Vg1YyZAgAABAgQIECBAgACBrhYQ2HV1+QyeAAECBAgQIECAQMsFBHYtJ3VAAgQIECBAgAABAgQIECAwtIDAbmgfrxIgQIAAAQIECBDoNwGBXb9V3HwJECBAgAABAgQIECBAoO0CAru2l8AACBAgQIAAAQIECHSUgMCuo8phMAQIECBAgAABAgQIECDQDwICu36osjkSIECAAAECBAgQmHQBgd2kW3knAQIECBAgQIAAAQIECBBoiYDAriWMDkKAAAECBAgQIECgZwQEdj1TShMhQIAAAQIECBAgQGAsBd54443yxBNPlEcffbT8n//zfzwZDOs7cNttt5WDDz647LTTTmXGGWesz/yev+U13yn/TQ33O5BrUa5JuTZ5ECBAgAABAgQIdJ+AwK77ambEBAgQIECAAAECBAh0gEBujH/6058uq6++ellkkUXKAgss4Mlgkr8D888/f5lllllqUDfFFFOUPBPc5W95zffJf0/D+Q7kGpRrUa5JuTZ5ECBAgAABAgQIdJ+AwK77ambEBAgQIECAAAECBAh0gMBf/vKXssYaa5Rx48aVBRdcUMAirPMd8B1o23cg16Bci3JNyrXJgwABAgQIECBAoPsEBHbdVzMjJkCAAAECBAgQIECgAwSyXF26WhZaaKFy9dVXW8LQkpi+A74DbfsO5BqUa1GuSbk2eRAgQIAAAQIECHSfgMCu+2pmxAQIECBAgAABAgQIdIBAboo3S9a5Qd4BBTEEAn0s4HrUx8U3dQIECBAgQKBnBAR2PVNKEyFAgAABAgQIECBAYCwF3CAfS23nIkBgKAHXo6F0vEaAAAECBAgQ6A4BgV131MkoCRAgQIAAAQIECBDoMAE3yDusIIZDoI8FXI/6uPimToAAAQIECPSMgMCuZ0ppIgQIECBAgAABAgQIjKWAG+Rjqe1cBAgMJeB6NJSO1wgQIECAAAEC3SEgsOuOOhklAQIECBAgQIAAAQIdJuAGeYcVxHAI9LGA61EfF9/UCRAgQIAAgZ4RENj1TClNhAABAgQIECBAgACBsRRwg3wstZ2LAIGhBFyPhtLxGgECBAgQIECgOwQEdt1RJ6MkQIAAAQIECBAgQKDDBNwg77CCGA6BPhZwPerj4ps6AQIECBAg0DMCArueKaWJECBAgAABAgQIECAwlgJukI+ltnMRIDCUgOvRUDpeI0CAAAECBAh0h4DArjvqZJQECBAgQIAAAQIECHSYgBvkHVYQwyHQxwKuR31cfFMnQIAAAQIEekZAYNczpTQRAgQIECBAgAABAgTGUsAN8rHUdi4CBIYScD0aSsdrBAgQIECAAIHuEBDYdUedjJIAAQIECBAgQIAAgQ4TcIO8wwpiOAT6WMD1qI+Lb+oECBAgQIBAzwgI7HqmlCZCgAABAgQIECBAgMBYCrhBPpbazkWAwFACrkdD6XiNAAECBAgQINAdAgK77qiTURIgQIAAAQIECBAg0GECbpB3WEEMh0AfC7ge9XHxTZ0AAQIECBDoGQGBXc+U0kQIECBAgAABAgQIEBhLATfIx1LbuQgQGErA9WgoHa8RIECAAAECBLpDQGDXHXUySgIECBAgQIAAAQIEOkzADfIOK4jhEOhjAdejPi6+qRMgQIAAAQI9IyCw65lSmggBAgQIECBAgAABAmMp4Ab5WGo7FwECQwm4Hg2l4zUCBAgQIECAQHcICOy6o05GSYAAAQIECBAgQIBAhwm4Qd5hBTEcAn0s4HrUx8U3dQIECBAgQKBnBAR2PVNKEyFAgAABAgQIECBAYCwF3CAfS23nIkBgKAHXo6F0vEaAAAECBAgQ6A4BgV131MkoCRAgQIAAAQIECBDoMAE3yDusIIZDoI8FXI/6uPimToAAAQIECPSMgMCuZ0ppIgQIECBAgAABAgQIjKWAG+Rjqe1cBAgMJeB6NJSO1wgQIECAAAEC3SEgsOuOOhklAQIECBAgQIAAAQIdJuAGeYcVxHAI9LGA61EfF9/UCRAgQIAAgZ4RENj1TClNhAABAgQIECBAgACBsRRwg3wstZ2LAIGhBFyPhtLxGgECBAgQIECgOwQEdt1RJ6MkQIAAAQIECBAgQKDDBNwg77CCGA6BPhZwPerj4ps6AQIECBAg0DMCArueKaWJECBAgAABAgQIECAwlgJukI+ltnMRIDCUgOvRUDpeI0CAAAECBAh0h4DArjvqZJQECBAgQIAAAQIECHSYgBvkHVYQwyHQxwKuR31cfFMnQIAAAQIEekZAYNczpTQRAgQIECBAgAABAgTGUsAN8rHUdi4CBIYScD0aSsdrBAgQIECAAIHuEBDYdUedjJIAAQIECBAgQIAAgQ4TcIO8wwpiOAT6WMD1qI+Lb+oECBAgQIBAzwgI7HqmlCZCgAABAgQIECBAgMBYCrhBPpbazkWAwFACrkdD6XiNAAECBAgQINAdAgK77qiTURIgQIAAAQIECBAg0GECbpB3WEEMh0AfC7ge9XHxTZ0AAQIECBDoGQGBXc+U0kQIECBAgAABAgQIEBhLATfIx1LbuQgQGErA9WgoHa8RIECAAAECBLpDQGDXHXUySgIECBAgQIAAAQIEOkzADfIOK4jhEOhjAdejPi6+qRMgQIAAAQI9IyCw65lSmggBAgQIECBAgAABAmMp4Ab5WGo7FwECQwm4Hg2l4zUCBAgQIECAQHcICOy6o05GSYAAAQIECBAgQIBAhwm4Qd5hBTEcAn0s4HrUx8U3dQIECBAgQKBnBAR2PVNKEyFAgAABAgQIECBAYCwF3CAfS23nIkBgKAHXo6F0vEaAAAECBAgQ6A4BgV131MkoCRAgQIAAAQIECBDoMAE3yDusIIZDoI8FXI/6uPimToAAAQIECPSMgMCuZ0ppIgQIECBAgAABAgQIjKWAG+Rjqe1cBAgMJeB6NJSO1wgQIECAAAEC3SEgsOuOOhklAQIECBAgQIAAAQIdJuAGeYcVxHAI9LGA61EfF9/UCRAgQIAAgZ4RENj1TClNhAABAgQIECBAgACBsRRwg3wstZ2LAIGhBFyPhtLxGgECBAgQIECgOwQEdt1RJ6MkQIAAAQIECBAgQKDDBPrtBvmbb75Z/vrXv5Znnnlmkp7PPvtsee6558rf/va38uqrr5a///3v5f/+3//bEVXMXPLs5Ees4vbyyy9X76eeeqo89thj5dFHHy1/+ctf6s8nnnii5O8xfuGFF8obb7wxrHl1g0Mn16iTxtZv16NOsjcWAgQIECBAgECrBAR2rZJ0HAIECBAgQIAAAQIE+kqg326QJ6w74ogjyr777jvR53777VcOPPDAcuyxx5aTTjqp/Pa3vy033XRTDe3a/SVJEJZwK89OCRDHZ5Kw7qqrrioXXnhh+cpXvlJ22WWXstFGG5X11luvrLXWWuUjH/lI2WabbcrOO+9cnc8444wa4k3qvBLWJVDNs9PDy/H5+NvbBfrtevT22fsXAQIECBAgQKA3BAR2vVFHsyBAgAABAgQIECBAYIwF+u0GeTq5dt1117LFFlsM+dxyyy3LVlttVbbddtuyzz77lAMOOKCcfvrp5YILLigPPvhg7Qh7/fXXazfYWJUsnWevvfZaPffjjz9eO9WefPLJMR3DpM414Vm6GPP9OvPMM8txxx1Xtt5667LhhhuW5ZdfviyzzDJl8cUXL0sttVRZc801ywYbbFCdDz/88HLDDTeUe++9t3blxXh8jxw/3Y+Z//33318eeOCB8o9//GN8b/W3LhLot+tRF5XGUAkQIECAAAECkywgsJtkKm8kQIAAAQIECBAgQIDA/xPotxvkDz30UFlyySXLu971rkl6vvvd7y4zzTRTmXnmmctcc81VFlxwwbLZZpuVPffcs/z5z3+uodRYdHY1Adjdd99du9R23HHHctppp5Wf//znNdj6fxVt/28JzhKkpTtxhx12KAsttFCZc8456/O9731vWXHFFcuHP/zhstpqq5VVVlmljBs3rsw333xl1llnLXPMMUcN9NKFd91119XAb3xBXDolDzvssLL33nvXoO/rX/96Xeq0/bM3gpEI9Nv1aCRWPkuAAAECBAgQ6FQBgV2nVsa4CBAgQIAAAQIECBDoaIF+u0HezPcd73hHmWGGGcqMM85Yw6IFFligTOg5zzzz1LAuIV+Cu5VWWql84hOfKFdeeWVJgDahLrBWFj7dddn37eabb65LSmYpyeOPP76cd9555aWXXmrlqUZ0rCzP+fzzz5f77ruvJFRcZ511ymyzzVZDz0UXXbR21sUuHY7pYNx8881raPeBD3ygGs8+++xl7rnnru/LMpoTWoI0nZKf//zn6+cTCmaJ03T0eXS3QPPfZ/5bzO8eBAgQIECAAAEC3ScgsOu+mhkxAQIECBAgQIAAAQIdINBvN8ib+U4//fR1ecaEPrfccksNB/La4GeWZrz88svLOeecUwOmBFAJ7WaZZZa6jGM+/9hjj436cox///vfa3h1/vnn12AxnWrHHHNMxwV2L7/8crn00kvLKaecUuaff/7aNZf96hLeXX/99TXIi9cTTzxRsqxnnn/5y19q8Pnd7363fPnLX64BX8LR9ddfv+5tl269wY90Si6xxBK1ay/LlwrsBgt157+b/z4Fdt1ZP6MmQIAAAQIECERAYOd7QIAAAQIECBAgQIAAgckQ6Lcb5M18Ewily2tiQU+65xLaJWz6yle+Urbffvu6bGM689IVtvHGG9elMdNVlu6ySXlkecs8s9Tj+JZ7HN8xXn311bpE5E9+8pO3OtEmN7BrztuMY3znm9y/vfjiiyVj/Na3vlWDtywput1229XlMRPUJXgc3yNdgumoS2g377zz1s7H+G6yySblkUce+ad9+oZbx/GdM12LeaZuk1q78R2n+VvjOdzjNfVojtPPP5u6Cuz6+Vtg7gQIECBAgEC3Cwjsur2Cxk+AAAECBAgQIECAQFsE+u0GeTPfSQ3sUpTXXnutJDDLkot33nln2Xrrrcuqq65al3lMuHTyySfXrrJ0l03skTDnhRdeKM8991xd4jIhVkKjiT1aFdjlXDlnutoyn4wjQVOrHs8++2w54IADyrbbblsS1r3nPe+pHYpZIjOOEwrG8veEdvfff3/51Kc+VZfJTCi68MILlxtvvLHuiTfQaXLqOHCOmXPm//TTT5eEjKndhMY28HMT+r2pa2qbWk0omBz4+QR1eV/qManfg4Gf78Xfm7oK7HqxuuZEgAABAgQI9IuAwK5fKm2eBAgQIECAAAECBAi0VKDfbpA38x1OYDcQPAHPPvvsUzbbbLO6B172ZzvqqKPKWWedVYOfge/N7wly0n3317/+tYYyDz/8cLnjjjvKn/70p3LttdfWzr2EVFniMUs/JkRKsNV03uXzCZTy2i9+8Yty4okn1g6/LMn5ta99rZx00knlnnvuqUtL5nMDQ60maMyYswRlzv0///M/9ZzXXHNN+cMf/lBuvfXWugxo9sdLeJfAaSTBVcb/pS99qWSZyhgn0Mw8c/yBYxvs1Pw7Y91zzz3LpptuWhZccMGy3HLL1cAuS2cmVMszv6fjMcfO0qYbbbRR2WWXXcptt91WX8t7BgZmmU/O3dQhHXsPPvhgXQo1ewKmHtmLMCFmnJrPj88hx8n+eXlfwsmY5Zl533XXXeX222+v9Yhz6pbwrjlOapqa5L35/AMPPFDfe91119X55DOpUQzyfcn7WxmmNsad/LP571Ng18lVMjYCBAgQIECAwNACAruhfbxKgAABAgQIECBAgACB8Qr02w3yZr6TG9glCErQdcEFF5S55567BkYf+9jHyhe+8IUa5AxETuCSUOfUU08tRx55ZMlebiuvvHJZaKGFynzzzVeyD11Cp3HjxpWlllqqLreZPdwS+jQdVwl9sn/escceWz784Q+XxRZbrEw99dRlqqmmqp/LPm6rrLJKDbgSviXYS6jULOWZsCwB2FZbbVXe//73l0UXXbSeM+fOGJpQbK211ipHH310+fGPf1xDu4HzGM7vCaOaDrsYxyj77t10001vC9EmdMz43nDDDeXKK6+s+/P97Gc/qxYJyRLIZT/BLEO6wgorlHe+851liimmqAFmHFdaaaX6Wt6TEC7hWB45Zj6fsDMh52qrrVaWWWaZuhdgPpe99hZZZJHykY98pHZPXnTRRXX50YGhXzPeHGfXXXct22yzTTnkkENqWPud73ynfP3rX6/HTG1jnJqcffbZ5aqrrqqhXb4LCQoT1CbQzNKqqXlqnzHkmc9lGdAcP8dLoNfqDshmHp36s/nvU2DXqRUyLgIECBAgQIDAxAUEdhM38g4CBAgQIECAAAECBAj8k0C/3SBv5ju5gV2ClxwjQUwCr3R4fehDH6pBT7qmmkc6oxLupPstwU46wJZffvnyvve9r8wzzzxlzjnnrEHTHHPMUWaeeeb674RmCdZ+85vf1HAqgVM63s4888y6J1w+n4AtYd2UU05ZA78ERAni1l9//fLHP/6xdm4laMrn/vu//7uGfelWW3311WswlQAtz7nmmqvMOuusdZ+5/DuB1R577FG+8Y1v1G64V1555a3OsGZOk/IznWFHHHFE2Xnnnes+dJnfCSecUC6++OIavCWAyrEzxhg13WfNseObjsMsPZqlMBOOpuMsQWDCrl//+tc1WFtyySXLNNNMUwO7xm/ppZeur+U9CS/jl/AynXMJ+/bff/+y44471tAzAVkMUod0SeZnPr/GGmuU448/voaFOe9gh3T3ffKTnyxrrrlmnWPM9t577/K5z32u1iPLeGYp0ARxp59+erniiitqLbLcZ+aTLsnUeO21164hXXwyjuaZoCqBZPx+//vf1/0RM4/BTo1Xr/1s/vsU2PVaZc2HAAECBAgQ6CcBgV0/VdtcCRAgQIAAAQIECBBomUC/3SBv5ju5gV3g072W5QuXXXbZGnolbEnHV5YzbB4Jrr75zW+W3XffvQYzCemyN1uCuwRCWcry+9//fjnuuONqiLTJJpuU2WefvYZHG2644VsdewlrbrnlltpZ1gROCYRmmGGG8olPfKJ89rOfrWHeD37wgxq0JRDL8pPpaEsnWfaAS/iRbq6vfOUrNZD70Y9+VPLMUp75W+aR4C/BVbq8zjjjjNrhlrBquI8sAZmgMMePS8LFHDtLW6Z78Fvf+lY9duaUJSrH18UW38w7r+XZdAym6zABaPYMPPjgg6t9Qrt0pa2zzjo1KMxreU/ToZjQba+99qodiKlBwsn4brfdduW73/1urcG3v/3t2nm34oor1kA1++7F67TTTqvh6UCHhH8J9eIUt4Sl6VZMl1469BKcfvCDHyzrrrtu+e1vf1uDxyx3muAxrzXvT10S9qXjL8Fenvvtt18N6vJawuB0VOY7k067LNPZD6Fd89+nwG64/+V5PwECBAgQIECgcwQEdp1TCyMhQIAAAQIECBAgQKCLBPrtBnkz35EEdilvljdMwJNQKh1e6c5KMJNHAqZ02yWQaYK4BEX5d5Y6zJKL6QL71a9+VZfWTAfebrvtVjvu0qGVTrp0xaWbq1naMgFclqxMN1fOl9Au3WJZXjHLWKZzK+HU3/72t7of22WXXVa75maaaaay+OKLl1VXXbUGhdlrL4Fanvn9P/7jP2qQlHNmicmEhgkRL7zwwpKusOE+ErSlE+7nP/95Db1yvIw3IdjWW29dA8yEU1lSNMtWppsu4VqW8kzYmBAvXXYxHPhIN1667BKK5tjNXn7TTjtt7XCMcwK2vNbsA5fxJ+zafPPN63KZGUvCtX/9138tX/3qV0uW20wNzj333HLKKafUWqVbMt+NdNwdfvjhNbzMmJqwLIFdLNPpmGAtnXQJ19I5mXqkMy4dePk9HXX33ntv7fZLvfMdyfclYV++Owl0E7Qm2EsnXuY0cGnNHD/nStiX79Ngk4E+vfJ789+nwK5XKmoeBAgQIECAQD8KCOz6sermTIAAAQIECBAgQIDAiAX67QZ5M9+RBnYJmT7+8Y/XjqmERum5jSlBAAAgAElEQVQiy7GbYCnLU6ZLK8FPlrrcdttt6/KG6bxLt1S6tvIzoVL2ubvrrrvKZpttVoOlhHYJgJoAMCFYgrimc61ZxjH74iWsS9iVY+XceV+Cn3RrZcnLvDf/TqCX92WpzHTB5ZnfE/Jlec8cJ2FSzr3TTjuVww47rGSsk/NIV1yOm737Dj300BpuJThsnhlTut0SSMWoCbjS6ZbQ7cEHH6zhXOYz8JHAKmFe5hqvdLWl0zDhZrro4pXX8p7s/ZelRTOGBGrpHkwN4pIQLeFf3ps65L1xS9fk7373u9otmc8kjEs3Xf7edAI2gV2W1Jxuuulqx17qkK7E1D/GCVrzM8YJ2po9/ZrgMt2H2aMvS6YmDGzqkTGkOzIB4jHHHPPW0qUxTMiZevX6o/nvU2DX65U2PwIECBAgQKCXBQR2vVxdcyNAgAABAgQIECBAYNQE+u0GeTPfkQZ2CWUSFGWpx3SmNQFDE9hlD7V0R2WvtQRFWXoyIdH4HuneyvGyTGP2mksA2ByveX9Cneuuu6785Cc/qcFausUS6px33nlv64RLANQsGZlzZ3zZPy5LUDahU3PM/EwYmE63Sy65pIZoccl4EzJNaLwDPz+h3xOGXXrppTVoytKcSyyxRB13grN0B+Y8CdtmmWWW2lGYPeH23HPPut9fAsT4JTBMoNl0tw0818TqmBAuwVdCwJwzYdkXv/jFugxmgrHBj5wjY77vvvvKeuutV7sSE3gmULz99ttrsJb3DAzspp566jqnH/7whxNcQjTBXfa3yzEzhgS7CRITGqZ7cvAjdb7mmmvK2WefXesRnyyrmu7KdCD2+qOp6+Dvf6/P2/wIECBAgAABAr0kILDrpWqaCwECBAgQIECAAAECYybQbzfIm/m2IrDbYost6tKGAwO7FC6dYAleEsqkEywhUM6bzq/BjyYoSlfZZz7zmboXWzq3BgcWkxrYJTBMaJcOt3T5ZXnKdGYlrBtf8JW/Z7nN888/v3Z0xWXLLbesS22OJLBr5pVwLPPPWLJnX5aBTDC58cYb1yU7s0Tl9NNPX7vV0oGXkCyhVvaBy3KdE1qac2J1zNizZ172gMucsiTnUEFZ6pIxN3sP7rrrrjVMTCdgQtKEpanBwMAugWOWt0ygF+Px+WZ5zswl58/+ddk/L2NPUDq+R47RfHeWWWaZGghmmc7MI6Furz+aug7+/vf6vM2PAAECBAgQINBLAgK7XqqmuRAgQIAAAQIECBAgMGYC/XaDvJlvKwK7psMuHXHZ0yzHbh5NYJVOr3RZZWnEhEF5Nv/OsprZC+/uu+8uv//972tQlq68kXTYNedPaJglF3OuhGYJ8RJi5W8ZS8KfhEkJ09KB1+wJN1KX5vzNz8YhAWL2cUv4le697Oe3zjrrlJVXXrmGkwm0EtalCy2BZZbnTFdiQrvMYXB34MTqmHlmX8CNNtqoBnZZPjN7yuVYQ+0FF6cEi9njLt1tWb4zy1Fmn7ksn9kEdlkyM8uHpnMwS2aOL4zN3/Ja3pN5JbDbYIMNardjjjPUM2PNnnc5fxP05fvS64+mrgK7Xq+0+REgQIAAAQK9LCCw6+XqmhsBAgQIECBAgAABAqMm0G83yJv5jjSYaoKb7GWWTqvsOZdjD3wkrErIkzAue8ilu+xrX/ta+fznP1922GGHsv7669clMLOXW3OchHXveMc7JrvDrjl/E9ilc++cc84pp5xySg3AEpRtvfXWdTnPFVdcsaSLK11uc8wxR5lyyilruJXOwX333XdES2I248jPOKTzL0tOJsDMnn0J8LJfW8yuv/762v12xBFH1GUxE95l2cwEeFnW81e/+lVdtnNgV9rE6phQcptttilZjjNzS/j1wAMPDBnWZawZY4LFk046qX4uS48ee+yx5YILLqjLczZ1T6CUEDDdbwldBz/in4AtnXkJ92Kb0C5B5EorrVSXS004O6HnCiusUA2affISbI7vPIPP2+3/buoqsOv2Sho/AQIECBAg0M8CArt+rr65EyBAgAABAgQIECAw2QL9doO8me9IAruEMTlOAq8EMAliEgg99NBDb9Wh2csu70tX2X/+53/WrrKddtqphmVZGjGhTLqnElAlVErwl4BmpIFdutGyRGOWarz66qvrPm4HHXRQ2X777WsX30c+8pEaFC6++OJl3LhxdSnMBFNTTDHFiAK7zDk2OXc61bK044SW4mygmmAry4f++Mc/rmP9wAc+UEOuqaaaqvqeddZZdR45XvOYWB0T2G211Vblwx/+8FtdaukonNgjAesVV1xRTjvttPq5wXsFNoFdOirzTOCWvw1+pLsuAVv8E4jGNkt+5njpuMv3Zahns+dfOuwWWWSRsvbaa4/3PIPP2+3/buoqsOv2Sho/AQIECBAg0M8CArt+rr65EyBAgAABAgQIECAw2QL9doO8me/kBnZNEPeHP/yhBjYJ2BK8ZOnFZsnChDUJjPbff/+y7bbb1vfNPffcdb+zvDdh3eabb1522WWXss8++9RlH4877riSzrYEMznm4MAiYVW6tRL+JSQcHCQ1X4B0od1xxx3lsssuK2ussUZZbLHFSvZhS2iUgHD11VevQVb2yzvwwAPL4YcfXsPEb3zjG2W22Wab7MAuXXQJ6mKQgC3LSF555ZV1f7zBy1k2Y21+xuv1119/6/Nnn3127UbMeLLsZPaTS3dilhNtHhOr48DALoHocsstV5cAbT4/oZ+jFdhNPfXUtQszNdh9993rHoFf+tKXhvy599571+9Hluc8+uijy3PPPTehYffM35u6Dv7+98wETYQAAQIECBAg0AcCArs+KLIpEiBAgAABAgQIECDQeoF+u0HezHdyA7uES1lm8r//+79rCJYlLNPF9elPf7qGdE1wlb3htttuu7LmmmvWICzLOy6//PI1MEtYlhDqsMMOK8ccc0zdQ+78888vn/3sZ2uYN/3009fALvufpQMtj0kN7BI4JSj70Y9+VLLUZrr/Etbl949+9KNls802K3vttVcNE7NX2w9/+MN6/gRs6eaaXJcEmemqS5fht771rTq3//qv/6rLWWaZyUl9ZPzZL64ZT5bGzPKhWUo0S2k2j4nVMYFdapIlMROWLrvssrUrMuMc6pGxXnrppeXkk09+a0nM73znO+WnP/3p25bEnFiHXeqWJT+vvfbautzpNNNMU4PdBKZZ+jPLbE7sme/Gv//7v5cTTjihdh8mEO31R1NXgV2vV9r8CBAgQIAAgV4WENj1cnXNjQABAgQIECBAgACBURPotxvkzXwnN5hKKJUwJ91ps8wyS13m8N/+7d9KQp10QA0MzBI6pEss3XfZt+7WW2+tyxo++eST5amnnqodY/lMQqIs1/iFL3zhrcAu+56li++ZZ56p+79NamCXY//rv/5rWXfddevYsjdeQrnLL7+8BlaPP/543T8u4Vfmkq61LEeZ19OJNrkuCcJyzD/96U81mEpXX+adOWWuk/pIp13CzoHjSfCWbsVYNI+J1TEOn/vc58p6661XlxpNLTK2eA8V2iUUy3KYhxxySN1DL0uVZj+77GuXOk3qkpgJbvP+u+66qy47muVOsw/dlltuWe65557yt7/9bchn5hqH1CZ+Ext349LtP5u6Cuy6vZLGT4AAAQIECPSzgMCun6tv7gQIECBAgAABAgQITLZAv90gb+Y73GAqAUxCsyz5mM64hGLpXsvSlF//+tdrR1vCnpdeeql2rH3ve9+rr6VDLHvHZQ+5gR1iAwvW7OOW/e2yv1yWxEzQduONN5YET3l9cGCXIDAdWOedd1558cUX3zpcArlPfvKTtZsvy0kutNBC5Te/+U0NfhKGDX7kbwmVfvWrX404sEuolFAye67l3CuttFJd+jOdggmvYjixR5b0zN57v/jFL+pSnvHbcccdy8EHH/w2v4nV8emnny577rln2WSTTWpgly7D7CeXfeXSJTmhR4K0dL5lOcoEsll+NN2K6ahMGDupgV2On6VAE7gttdRSNbhNh+Wmm25aw9nx1aIZUwzyXbrlllvqkqLpWkzHYNNt2byvF382dRXY9WJ1zYkAAQIECBDoFwGBXb9U2jwJECBAgAABAgQIEGipQL/dIG/mO9zALoHZNddcU/eQyz50CXKyzGV+v+GGG2qQl0AlXWv/+Z//WTvCEvgk0Dv++OPLRRddVMO8wcVLt1e6qdL9lUAnHV1TTjllDeyagGlCgd1RRx1V94sbGNglUMredePGjasB3IorrlgSmCUEGt8jwdCPf/zjukxj5jNcl4HHzFyyDGRCqcwloV2Cx3hccsklNbQb+P7x/Z6Ov+ynl868fD7BZJbYzN59A+c5sTpmXuksTLiaeeU5MFgd37kT5CXQy/iz513On/Dxpptuql1umd9wArsElAl4t9pqq/KhD32ojuF973tfXfLz/vvvH29wmCAvIV+WBf3gBz9Yz/+pT32qfPGLX6ydkeMbdy/9ramrwK6XqmouBAgQIECAQL8JCOz6reLmS4AAAQIECBAgQIBASwT67QZ5M98sUbjxxhuX3XbbrQYkCc0GP9OlleUIE0JlecLsyZautmbpyIQv6Yj785//XDuiEtAMXjIzgV32IcsedQmjEpwlGEowkxAwwdIdd9xRO9wWX3zxGhK94x3vqPvONYFd3p9urQSD5557bt2TLWHgAQccULIPXUKmnDfBXpbWXHvttcuiiy5ax7nCCiuUO++8s76eczbnzjjymXRvffvb367daOkYTGC3+eabT3ZAFK9ddtmlbLDBBrWzLUFZlg9NaJeQKh2DcUgnW7oR88zv+Vu6yDLWPfbYo3YJ5rMJ/E455ZS6r1y69JpH6ph95Jo67r777vX4mVPmlmNefPHFJZ2O6a5LHbJvYELOfDbvi39c88yxE67dfPPNdd/B+GVZz4RmGVPqlPoOJ7DLWPMdynzyXYtv5nPWWWeV3//+9/X7lvlnvHmmgy8OV111VQ1REwpnP8N8NscYztKijVO3/Wz++xTYdVvljJcAAQIECBAg8P8EBHb/z8JvBAgQIECAAAECBAgQmGSBfrtB3sx36qmnLosttlhJB1pCu3333fdtz3Q0ZUnF7D2XfdA+/OEP1+AnHXBZpjFhUfY2y1KS6fxq9kVLCJQw5swzz6xdeNNOO20NgLIP25VXXlmXe0xI9sADD9QuqgRwm222WVlttdVqoJP3jy+wS9iWvc8uu+yyGsTlfena2nDDDWsI9YMf/KCGSQnFsoRkQruEbwmqspxk9t1LsJhALx13t912Wx1/OtASPGZeCYcSBH784x8vCcAmJyBK+HX99dfXYDFdfhlDuuQSVCXE23rrrWtAeOKJJ9auuXTO5fejjz66pJMs1hlLPpMuvU984hN13gnYBi6pmTpm3Ansst/fMsssUzvoUpMsJZkutSxBevfdd5d11lmn1nruueeuHWtf+9rXygknnFDDuSy/ee2115Zf/vKXZeedd67h2EwzzVTPn+AxAV+C3Ka+ww3smu9DQrosT5pjZ4nMNddcs4atF1xwQa1FxpHv0hlnnFENll122VqPhI3Nkpw5Vq8/mv8+BXa9XmnzI0CAAAECBHpZQGDXy9U1NwIECBAgQIAAAQIERk2g326QN/OdaqqpaoiU0Cf7nG2xxRZve6bLLGHRxz72sbLkkkvWJSYTZuW58MILl1VXXbUu85ilLNMd1Tzye/7285//vIZECcwSJiU0ShiTvdl+97vf1fAuQUz2S1t33XVLOuESUqSrK0tipovviiuuqF1jTWdcxp7PpvsrwU/GtfLKK9eOtkMOOaSGVAnlEj4m/ErolfAre+OlGy9hX8LELLeYceQzCeZynIRe6QCbc845a2CUPfrSDTfcRzr4EhqmS2z11VevVgk4M973v//9NfhMt9h+++1Xl7rMcpf5PX9bZZVV3trvLd1l6SzL+NL5luMOfCR4jFnelzkmDPvc5z5Xu/kSjKYG6ZpLwLbDDjuUtdZaq84tAdhnP/vZ8pWvfKX89Kc/rQ7pnEynYgLF7LuXYC81Pvzww+uymumuax7DDexSu+wRmH0EE7AmxEx4ucQSS9Sxpv75rqQeGcORRx5ZEtYlEM77sjTnr3/969qFOfB71oyn1342/30K7HqtsuZDgAABAgQI9JOAwK6fqm2uBAgQIECAAAECBAi0TKDfbpA38/2Xf/mXktAunXbp0kon2MBnQqaEcwmDslRlur223Xbbstdee9XlGbN0Yrq+0lE2+JG/Pf744zV8SZdWQqKEYQmXEsjl3wljEgolnMkxDzrooPLd7363dollKcgEfccdd1y58MIL39r7LuFPAqOEaQn5EoKl0y57rSXEO+ecc2pQlu65BGbpVktIlmNlLgkBc+78nH/++Wt4llAswWH2e1t//fXrEpAJlRJIPvjgg/8UlA2e6/j+nXGm6zCddlmWMt2FCSwTBmbMecYj48ozv2d88Unwtv3225cvf/nLtVMu3YiDw7qcM0tHZk+6WKRG0003XXVI0JXQK+FogrYmQLzuuutqcJkANgY5b4K5gc/UJOHl/vvvX5fSTCg4uLNvuIFdxpqgLUt0XnrppeX000+vewzmPPHIOPKdyDP/jkFqmSA234cspZpOwfF9z8Zn3+1/a/77FNh1eyWNnwABAgQIEOhnAYFdP1ff3AkQIECAAAECBAgQmGyBfrtBnv3eEkYlEBjqmeAnwUmClYRN6cL76le/WvejyzKL6frKnnETeiQsSgiW8Cj7oC2yyCI1KEswk8As4VCWRsxSm1l2MXu8ZXnEBDoJB9NZlaUiE3gN3Lst4U2WuEzXXJb0TGdc04l13nnnlWuuuabuuZcxJsxKQJVgMO9pwqn8nlDuox/9aA3H0nGXrrS8f9NNN62dbgnyEliNLyyb0JwH/j2fi/Wtt95aO+g+85nP1E7DOCQwi0MznvzeLGuZ2mTPu+w9F+PMfeBSmM05EqSdeuqpNbRL6JmgrzHN8ppnn312DQ3z2dQiwd+hhx5alzhdeuml6/tTh6YeOX/MU+u4DwxKm3PmZ4LYdF9mnHnm9/xtYo+EdtmrMNYJMLP3YdNt1zhk/JlHOhOzTOrPfvazkqCxX8K6GPbb9Whi3xuvEyBAgAABAgS6UUBg141VM2YCBAgQIECAAAECBNou0G83yBOyJUjKvCf2TMiT56OPPlrDo4Rl6ZRK+DKxICtBUUKl7H+W/dTS9ZYlKbNP2eWXX1474PL3HL85bsKpdKYlKGu6u1566aW3BVbZSy3vT0iUY2a/tptuuqkuAZlgKuFOxpYxZg+6dITlPQl+EkLlmd/ztzhk2cucN8+8P8fN3ycWSE7KF7cZRwyeeOKJulRmlodM91+WiMz+fXnm9/wtHqlJ3h/n1Gp8YV3OPdA3e/s1e9HdeOON5emnn64hXfPZmGUsccs4smxogsTsW5flKFOPLDWafQVT69RtsHsz34wpRnHNM78PFdw2n8vP1CbOMY/xwLokrL366qtrLfOdyHHz3nymmcfAY/Xq7/12PerVOpoXAQIECBAg0N8CArv+rr/ZEyBAgAABAgQIECAwmQJukE8m3CR+LGFLgpcEUAmWEljdd999NZh69dVXJxr8Teg0CaGee+65GkIlaEvIlb8NfuRveS0BXAKiPPP7hN4/+POt/HfCpwRh+c7FIuFanvk9f5scj8Y3YWUTrA4VoDXvTz3uvPPOGno29ZhYCNtKi8F1+cMf/vBWgDrU+Fs5hk48lutRJ1bFmAgQIECAAAECwxMQ2A3Py7sJECBAgAABAgQIECBQBdwgH/0vQkKiPNP1lmf2eMtzpI+EPnkm4Bkq5GleT2CWZ/PvkZ5/uJ9vHDL3ODTjaUyGe7zm/c1xE7hNSujWvL/V9WjGM6k/mzo0Ds2/J/Xzvfg+16NerKo5ESBAgAABAv0mILDrt4qbLwECBAgQIECAAAECLRFwg7wljA5CgEALBFyPWoDoEAQIECBAgACBNgsI7NpcAKcnQIAAAQIECBAgQKA7Bdwg7866GTWBXhRwPerFqpoTAQIECBAg0G8CArt+q7j5EiBAgAABAgQIECDQEgE3yFvC6CAECLRAwPWoBYgOQYAAAQIECBBos4DArs0FcHoCBAgQIECAAAECBLpTwA3y7qybURPoRQHXo16sqjkRIECAAAEC/SYgsOu3ipsvAQIECBAgQIAAAQItEXCDvCWMDkKAQAsEXI9agOgQBAgQIECAAIE2Cwjs2lwApydAgAABAgQIECBAoDsF3CDvzroZNYFeFHA96sWqmhMBAgQIECDQbwICu36ruPkSIECAAAECBAgQINASATfIW8LoIAQItEDA9agFiA5BgAABAgQIEGizgMCuzQVwegIECBAgQIAAAQIEulPADfLurJtRE+hFAdejXqyqOREgQIAAAQL9JiCw67eKmy8BAgQIECBAgAABAi0RcIO8JYwOQoBACwRcj1qA6BAECBAgQIAAgTYLCOzaXACnJ0CAAAECBAgQIECgOwXcIO/Ouhk1gV4UcD3qxaqaEwECBAgQINBvAgK7fqu4+RIgQIAAAQIECBAg0BIBN8hbwuggBAi0QMD1qAWIDkGAAAECBAgQaLOAwK7NBXB6AgQIECBAgAABAgS6U8AN8u6sm1ET6EUB16NerKo5ESBAgAABAv0mILDrt4qbLwECBAgQIECAAAECLRFwg7wljA5CgEALBFyPWoDoEAQIECBAgACBNgsI7NpcAKcnQIAAAQIECBAgQKA7Bdwg7866GTWBXhRwPerFqpoTAQIECBAg0G8CArt+q7j5EiBAgAABAgQIECDQEgE3yFvC6CAECLRAwPWoBYgOQYAAAQIECBBos4DArs0FcHoCBAgQIECAAAECBLpTwA3y7qybURPoRQHXo16sqjkRIECAAAEC/SYgsOu3ipsvAQIECBAgQIAAAQItEXCDvCWMDkKAQAsEXI9agOgQBAgQIECAAIE2Cwjs2lwApydAgAABAgQIECBAoDsF3CDvzroZNYFeFHA96sWqmhMBAgQIECDQbwICu36ruPkSIECAAAECBAgQINASATfIW8LoIAQItEDA9agFiA5BgAABAgQIEGizgMCuzQVwegIECBAgQIAAAQIEulPADfLurJtRE+hFAdejXqyqOREgQIAAAQL9JiCw67eKmy8BAgQIECBAgAABAi0RcIO8JYwOQoBACwRcj1qA6BAECBAgQIAAgTYLCOzaXACnJ0CAAAECBAgQIECgOwXcIO/Ouhk1gV4UcD3qxaqaEwECBAgQINBvAgK7fqu4+RIgQIAAAQIECBAg0BIBN8hbwuggBAi0QMD1qAWIDkGAAAECBAgQaLOAwK7NBXB6AgQIECBAgAABAgS6U8AN8u6sm1ET6EUB16NerKo5ESBAgAABAv0mILDrt4qbLwECBAgQIECAAAECLRFwg7wljA5CgEALBFyPWoDoEAQIECBAgACBNgsI7NpcAKcnQIAAAQIECBAgQKA7Bdwg7866GTWBXhRwPerFqpoTAQIECBAg0G8CArt+q7j5EiBAgAABAgQIECDQEgE3yFvC6CAECLRAwPWoBYgOQYAAAQIECBBos4DArs0FcHoCBAgQIECAAAECBLpTwA3y7qybURPoRQHXo16sqjkRIECAAAEC/SYgsOu3ipsvAQIECBAgQIAAAQItEXCDvCWMDkKAQAsEXI9agOgQBAgQIECAAIE2Cwjs2lwApydAgAABAgQIECBAoDsF3CDvzroZNYFeFHA96sWqmhMBAgQIECDQbwICu36ruPkSIECAAAECBAgQINASATfIW8LoIAQItEDA9agFiA5BgAABAgQIEGizgMCuzQVwegIECBAgQIAAAQIEulPADfLurJtRE+hFAdejXqyqOREgQIAAAQL9JiCw67eKmy8BAgQIECBAgAABAi0RcIO8JYwOQoBACwRcj1qA6BAECBAgQIAAgTYLCOzaXACnJ0CAAAECBAgQIECgOwXcIO/Ouhk1gV4UcD3qxaqaEwECBAgQINBvAgK7fqu4+RIgQIAAAQIECBAg0BIBN8hbwuggBAi0QMD1qAWIDkGAAAECBAgQaLOAwK7NBXB6AgQIECBAgAABAgS6U8AN8u6sm1ET6EUB16NerKo5ESBAgAABAv0mILDrt4qbLwECBAgQIECAAAECLRFwg7wljA5CgEALBFyPWoDoEAQIECBAgACBNgsI7NpcAKcnQIAAAQIECBD4/9q5gxOFgiAIoBuFRwUz0Dx+1kaiYBTCLO1hI1jUKt8HD3uy+9Uwh1+4BAhkCnhBnpmbqQk0CriPGlO1EwECBAgQIPBtAgq7b0vcvgQIECBAgAABAgQI/IvAvCA/Ho/rcDisy+Wy5m8fBs6AM/COMzB30NxFcyfN93sIECBAgAABAgTyBBR2eZmZmAABAgQIECBAgACBDxC4Xq/rfD6v3W639vv982X5vDD3YeAMOAOvPgNzB81dNHfS3E0eAgQIECBAgACBPAGFXV5mJiZAgAABAgQIECBA4AME7vf72rZtnU6nv1/avfolve9TDDkDzsCcgfll3dxFcyfN3eQhQIAAAQIECBDIE1DY5WVmYgIECBAgQIAAAQIEPkDg8Xg8X4zfbjf/CtO/A3UGnIG3n4G5i6asm7vJQ4AAAQIECBAgkCegsMvLzMQECBAgQIAAAQIECBAgQIAAAQIECBAgQIAAAQJFAgq7ojCtQoAAAQIECBAgQIAAAQIECBAgQIAAAQIECBAgkCegsMvLzMQECBAgQIAAAQIECBAgQIAAAQIECBAgQIAAAQJFAgq7ojCtQoAAAQIECBAgQIAAAQIECBAgQIAAAQIECBAgkCegsMvLzMQECBAgQIAAAQIECBAgQIAAAQIECBAgQIAAAQJFAgq7ojCtQoAAAQIECBAgQIAAAQIECBAgQIAAAQIECBAgkCegsMvLzMQECOdrKVYAAAi/SURBVBAgQIAAAQIECBAgQIAAAQIECBAgQIAAAQJFAgq7ojCtQoAAAQIECBAgQIAAAQIECBAgQIAAAQIECBAgkCegsMvLzMQECBAgQIAAAQIECBAgQIAAAQIECBAgQIAAAQJFAgq7ojCtQoAAAQIECBAgQIAAAQIECBAgQIAAAQIECBAgkCegsMvLzMQECBAgQIAAAQIECBAgQIAAAQIECBAgQIAAAQJFAgq7ojCtQoAAAQIECBAgQIAAAQIECBAgQIAAAQIECBAgkCegsMvLzMQECBAgQIAAAQIECBAgQIAAAQIECBAgQIAAAQJFAgq7ojCtQoAAAQIECBAgQIAAAQIECBAgQIAAAQIECBAgkCegsMvLzMQECBAgQIAAAQIECBAgQIAAAQIECBAgQIAAAQJFAgq7ojCtQoAAAQIECBAgQIAAAQIECBAgQIAAAQIECBAgkCegsMvLzMQECBAgQIAAAQIECBAgQIAAAQIECBAgQIAAAQJFAgq7ojCtQoAAAQIECBAgQIAAAQIECBAgQIAAAQIECBAgkCegsMvLzMQECBAgQIAAAQIECBAgQIAAAQIECBAgQIAAAQJFAgq7ojCtQoAAAQIECBAgQIAAAQIECBAgQIAAAQIECBAgkCegsMvLzMQECBAgQIAAAQIECBAgQIAAAQIECBAgQIAAAQJFAgq7ojCtQoAAAQIECBAgQIAAAQIECBAgQIAAAQIECBAgkCegsMvLzMQECBAgQIAAAQIECBAgQIAAAQIECBAgQIAAAQJFAgq7ojCtQoAAAQIECBAgQIAAAQIECBAgQIAAAQIECBAgkCegsMvLzMQECBAgQIAAAQIECBAgQIAAAQIECBAgQIAAAQJFAgq7ojCtQoAAAQIECBAgQIAAAQIECBAgQIAAAQIECBAgkCegsMvLzMQECBAgQIAAAQIECBAgQIAAAQIECBAgQIAAAQJFAgq7ojCtQoAAAQIECBAgQIAAAQIECBAgQIAAAQIECBAgkCegsMvLzMQECBAgQIAAAQIECBAgQIAAAQIECBAgQIAAAQJFAgq7ojCtQoAAAQIECBAgQIAAAQIECBAgQIAAAQIECBAgkCegsMvLzMQECBAgQIAAAQIECBAgQIAAAQIECBAgQIAAAQJFAgq7ojCtQoAAAQIECBAgQIAAAQIECBAgQIAAAQIECBAgkCegsMvLzMQECBAgQIAAAQIECBAgQIAAAQIECBAgQIAAAQJFAgq7ojCtQoAAAQIECBAgQIAAAQIECBAgQIAAAQIECBAgkCegsMvLzMQECBAgQIAAAQIECBAgQIAAAQIECBAgQIAAAQJFAgq7ojCtQoAAAQIECBAgQIAAAQIECBAgQIAAAQIECBAgkCegsMvLzMQECBAgQIAAAQIECBAgQIAAAQIECBAgQIAAAQJFAgq7ojCtQoAAAQIECBAgQIAAAQIECBAgQIAAAQIECBAgkCegsMvLzMQECBAgQIAAAQIECBAgQIAAAQIECBAgQIAAAQJFAgq7ojCtQoAAAQIECBAgQIAAAQIECBAgQIAAAQIECBAgkCegsMvLzMQECBAgQIAAAQIECBAgQIAAAQIECBAgQIAAAQJFAgq7ojCtQoAAAQIECBAgQIAAAQIECBAgQIAAAQIECBAgkCegsMvLzMQECBAgQIAAAQIECBAgQIAAAQIECBAgQIAAAQJFAgq7ojCtQoAAAQIECBAgQIAAAQIECBAgQIAAAQIECBAgkCegsMvLzMQECBAgQIAAAQIECBAgQIAAAQIECBAgQIAAAQJFAgq7ojCtQoAAAQIECBAgQIAAAQIECBAgQIAAAQIECBAgkCegsMvLzMQECBAgQIAAAQIECBAgQIAAAQIECBAgQIAAAQJFAgq7ojCtQoAAAQIECBAgQIAAAQIECBAgQIAAAQIECBAgkCegsMvLzMQECBAgQIAAAQIECBAgQIAAAQIECBAgQIAAAQJFAgq7ojCtQoAAAQIECBAgQIAAAQIECBAgQIAAAQIECBAgkCegsMvLzMQECBAgQIAAAQIECBAgQIAAAQIECBAgQIAAAQJFAgq7ojCtQoAAAQIECBAgQIAAAQIECBAgQIAAAQIECBAgkCegsMvLzMQECBAgQIAAAQIECBAgQIAAAQIECBAgQIAAAQJFAgq7ojCtQoAAAQIECBAgQIAAAQIECBAgQIAAAQIECBAgkCegsMvLzMQECBAgQIAAAQIECBAgQIAAAQIECBAgQIAAAQJFAgq7ojCtQoAAAQIECBAgQIAAAQIECBAgQIAAAQIECBAgkCegsMvLzMQECBAgQIAAAQIECBAgQIAAAQIECBAgQIAAAQJFAgq7ojCtQoAAAQIECBAgQIAAAQIECBAgQIAAAQIECBAgkCegsMvLzMQECBAgQIAAAQIECBAgQIAAAQIECBAgQIAAAQJFAgq7ojCtQoAAAQIECBAgQIAAAQIECBAgQIAAAQIECBAgkCegsMvLzMQECBAgQIAAAQIECBAgQIAAAQIECBAgQIAAAQJFAgq7ojCtQoAAAQIECBAgQIAAAQIECBAgQIAAAQIECBAgkCegsMvLzMQECBAgQIAAAQIECBAgQIAAAQIECBAgQIAAAQJFAgq7ojCtQoAAAQIECBAgQIAAAQIECBAgQIAAAQIECBAgkCegsMvLzMQECBAgQIAAAQIECBAgQIAAAQIECBAgQIAAAQJFAgq7ojCtQoAAAQIECBAgQIAAAQIECBAgQIAAAQIECBAgkCegsMvLzMQECBAgQIAAAQIECBAgQIAAAQIECBAgQIAAAQJFAgq7ojCtQoAAAQIECBAgQIAAAQIECBAgQIAAAQIECBAgkCegsMvLzMQECBAgQIAAAQIECBAgQIAAAQIECBAgQIAAAQJFAgq7ojCtQoAAAQIECBAgQIAAAQIECBAgQIAAAQIECBAgkCfw4yFAgAABAgQIECBAgAABAgQIECBAgAABAgQIECBA4H0Cv0mjhXObnduLAAAAAElFTkSuQmCC;fontSize=17;" vertex="1" parent="1">
          <mxGeometry x="510.31" y="-584" width="699.69" height="304.04" as="geometry" />
        </mxCell>
        <mxCell id="Cau-QvMtGqhSYi-_3m7i-34" style="edgeStyle=orthogonalEdgeStyle;rounded=0;orthogonalLoop=1;jettySize=auto;html=1;exitX=0;exitY=0.75;exitDx=0;exitDy=0;entryX=1;entryY=0.5;entryDx=0;entryDy=0;fontSize=17;" edge="1" parent="1" source="Cau-QvMtGqhSYi-_3m7i-2" target="Cau-QvMtGqhSYi-_3m7i-7">
          <mxGeometry relative="1" as="geometry">
            <Array as="points">
              <mxPoint x="1190" y="610" />
            </Array>
          </mxGeometry>
        </mxCell>
        <mxCell id="Cau-QvMtGqhSYi-_3m7i-45" style="edgeStyle=orthogonalEdgeStyle;rounded=0;orthogonalLoop=1;jettySize=auto;html=1;exitX=1;exitY=0.5;exitDx=0;exitDy=0;fontSize=17;fontColor=#000000;entryX=0;entryY=0.5;entryDx=0;entryDy=0;" edge="1" parent="1" source="Cau-QvMtGqhSYi-_3m7i-2" target="Cau-QvMtGqhSYi-_3m7i-5">
          <mxGeometry relative="1" as="geometry">
            <mxPoint x="1660" y="523" as="targetPoint" />
          </mxGeometry>
        </mxCell>
        <mxCell id="Cau-QvMtGqhSYi-_3m7i-47" style="edgeStyle=orthogonalEdgeStyle;rounded=0;orthogonalLoop=1;jettySize=auto;html=1;exitX=1;exitY=0.75;exitDx=0;exitDy=0;entryX=0;entryY=0.5;entryDx=0;entryDy=0;fontSize=17;fontColor=#000000;" edge="1" parent="1" source="Cau-QvMtGqhSYi-_3m7i-2" target="Cau-QvMtGqhSYi-_3m7i-3">
          <mxGeometry relative="1" as="geometry">
            <Array as="points">
              <mxPoint x="1540" y="710" />
            </Array>
          </mxGeometry>
        </mxCell>
        <mxCell id="Cau-QvMtGqhSYi-_3m7i-71" style="edgeStyle=orthogonalEdgeStyle;rounded=0;orthogonalLoop=1;jettySize=auto;html=1;entryX=0;entryY=0.5;entryDx=0;entryDy=0;fontSize=17;fontColor=#000000;" edge="1" parent="1" source="Cau-QvMtGqhSYi-_3m7i-2" target="Cau-QvMtGqhSYi-_3m7i-4">
          <mxGeometry relative="1" as="geometry">
            <Array as="points">
              <mxPoint x="1580" y="420" />
              <mxPoint x="1580" y="420" />
            </Array>
          </mxGeometry>
        </mxCell>
        <mxCell id="Cau-QvMtGqhSYi-_3m7i-2" value="Interactor" style="rounded=0;whiteSpace=wrap;html=1;fontSize=17;fillColor=#fff2cc;strokeColor=#d6b656;" vertex="1" parent="1">
          <mxGeometry x="1190" y="370" width="350" height="406" as="geometry" />
        </mxCell>
        <mxCell id="Cau-QvMtGqhSYi-_3m7i-3" value="Entity" style="rounded=0;whiteSpace=wrap;html=1;fontSize=17;fillColor=#e1d5e7;strokeColor=#9673a6;" vertex="1" parent="1">
          <mxGeometry x="1750" y="650" width="120" height="120" as="geometry" />
        </mxCell>
        <mxCell id="Cau-QvMtGqhSYi-_3m7i-4" value="Entity" style="rounded=0;whiteSpace=wrap;html=1;fontSize=17;fillColor=#e1d5e7;strokeColor=#9673a6;" vertex="1" parent="1">
          <mxGeometry x="1750" y="360" width="120" height="120" as="geometry" />
        </mxCell>
        <mxCell id="Cau-QvMtGqhSYi-_3m7i-5" value="Entity" style="rounded=0;whiteSpace=wrap;html=1;fontSize=17;fillColor=#e1d5e7;strokeColor=#9673a6;" vertex="1" parent="1">
          <mxGeometry x="1750" y="512.5" width="120" height="120" as="geometry" />
        </mxCell>
        <mxCell id="Cau-QvMtGqhSYi-_3m7i-75" style="edgeStyle=orthogonalEdgeStyle;rounded=0;orthogonalLoop=1;jettySize=auto;html=1;entryX=-0.001;entryY=0.196;entryDx=0;entryDy=0;entryPerimeter=0;fontSize=17;fontColor=#000000;" edge="1" parent="1" source="Cau-QvMtGqhSYi-_3m7i-6" target="Cau-QvMtGqhSYi-_3m7i-2">
          <mxGeometry relative="1" as="geometry" />
        </mxCell>
        <mxCell id="Cau-QvMtGqhSYi-_3m7i-6" value="Interactor input interface&amp;nbsp;" style="rounded=0;whiteSpace=wrap;html=1;fontSize=17;" vertex="1" parent="1">
          <mxGeometry x="910" y="420" width="160" height="60" as="geometry" />
        </mxCell>
        <mxCell id="Cau-QvMtGqhSYi-_3m7i-61" style="edgeStyle=orthogonalEdgeStyle;rounded=0;orthogonalLoop=1;jettySize=auto;html=1;exitX=0;exitY=0.5;exitDx=0;exitDy=0;fontSize=17;fontColor=#000000;" edge="1" parent="1" source="Cau-QvMtGqhSYi-_3m7i-7">
          <mxGeometry relative="1" as="geometry">
            <mxPoint x="730" y="610" as="targetPoint" />
          </mxGeometry>
        </mxCell>
        <mxCell id="Cau-QvMtGqhSYi-_3m7i-7" value="&lt;span style=&quot;font-size: 17px;&quot;&gt;Interactor output interface&amp;nbsp;&lt;/span&gt;" style="rounded=0;whiteSpace=wrap;html=1;fontSize=17;" vertex="1" parent="1">
          <mxGeometry x="910" y="580" width="160" height="60" as="geometry" />
        </mxCell>
        <mxCell id="Cau-QvMtGqhSYi-_3m7i-58" style="edgeStyle=orthogonalEdgeStyle;rounded=0;orthogonalLoop=1;jettySize=auto;html=1;exitX=0;exitY=0.75;exitDx=0;exitDy=0;entryX=1;entryY=0.5;entryDx=0;entryDy=0;fontSize=17;fontColor=#000000;" edge="1" parent="1" source="Cau-QvMtGqhSYi-_3m7i-8" target="Cau-QvMtGqhSYi-_3m7i-16">
          <mxGeometry relative="1" as="geometry">
            <Array as="points">
              <mxPoint x="650" y="650" />
            </Array>
          </mxGeometry>
        </mxCell>
        <mxCell id="Cau-QvMtGqhSYi-_3m7i-72" style="edgeStyle=orthogonalEdgeStyle;rounded=0;orthogonalLoop=1;jettySize=auto;html=1;entryX=0;entryY=0.5;entryDx=0;entryDy=0;fontSize=17;fontColor=#000000;" edge="1" parent="1" source="Cau-QvMtGqhSYi-_3m7i-8" target="Cau-QvMtGqhSYi-_3m7i-6">
          <mxGeometry relative="1" as="geometry">
            <Array as="points">
              <mxPoint x="790" y="450" />
              <mxPoint x="790" y="450" />
            </Array>
          </mxGeometry>
        </mxCell>
        <mxCell id="Cau-QvMtGqhSYi-_3m7i-8" value="Presenter" style="rounded=0;whiteSpace=wrap;html=1;fontSize=17;fillColor=#f8cecc;strokeColor=#b85450;" vertex="1" parent="1">
          <mxGeometry x="650" y="382" width="120" height="406" as="geometry" />
        </mxCell>
        <mxCell id="Cau-QvMtGqhSYi-_3m7i-56" style="edgeStyle=orthogonalEdgeStyle;rounded=0;orthogonalLoop=1;jettySize=auto;html=1;exitX=0;exitY=0.5;exitDx=0;exitDy=0;fontSize=17;fontColor=#000000;" edge="1" parent="1" source="Cau-QvMtGqhSYi-_3m7i-16" target="Cau-QvMtGqhSYi-_3m7i-53">
          <mxGeometry relative="1" as="geometry">
            <Array as="points">
              <mxPoint x="290" y="660" />
              <mxPoint x="290" y="660" />
            </Array>
          </mxGeometry>
        </mxCell>
        <mxCell id="Cau-QvMtGqhSYi-_3m7i-16" value="View input interface" style="rounded=0;whiteSpace=wrap;html=1;fontSize=17;" vertex="1" parent="1">
          <mxGeometry x="385" y="620" width="160" height="60" as="geometry" />
        </mxCell>
        <mxCell id="Cau-QvMtGqhSYi-_3m7i-73" style="edgeStyle=orthogonalEdgeStyle;rounded=0;orthogonalLoop=1;jettySize=auto;html=1;entryX=-0.003;entryY=0.154;entryDx=0;entryDy=0;entryPerimeter=0;fontSize=17;fontColor=#000000;" edge="1" parent="1" source="Cau-QvMtGqhSYi-_3m7i-20" target="Cau-QvMtGqhSYi-_3m7i-8">
          <mxGeometry relative="1" as="geometry" />
        </mxCell>
        <mxCell id="Cau-QvMtGqhSYi-_3m7i-20" value="View Event handle interface" style="rounded=0;whiteSpace=wrap;html=1;fontSize=17;" vertex="1" parent="1">
          <mxGeometry x="385" y="415" width="160" height="60" as="geometry" />
        </mxCell>
        <mxCell id="Cau-QvMtGqhSYi-_3m7i-41" value="Data Store" style="rounded=0;whiteSpace=wrap;html=1;fontSize=17;" vertex="1" parent="1">
          <mxGeometry x="1210" y="830" width="120" height="120" as="geometry" />
        </mxCell>
        <mxCell id="Cau-QvMtGqhSYi-_3m7i-42" value="Network&lt;br&gt;Service" style="rounded=0;whiteSpace=wrap;html=1;fontSize=17;" vertex="1" parent="1">
          <mxGeometry x="1400" y="830" width="120" height="120" as="geometry" />
        </mxCell>
        <mxCell id="Cau-QvMtGqhSYi-_3m7i-54" style="edgeStyle=orthogonalEdgeStyle;rounded=0;orthogonalLoop=1;jettySize=auto;html=1;exitX=1;exitY=0.25;exitDx=0;exitDy=0;entryX=0;entryY=0.5;entryDx=0;entryDy=0;fontSize=17;fontColor=#000000;" edge="1" parent="1" source="Cau-QvMtGqhSYi-_3m7i-53" target="Cau-QvMtGqhSYi-_3m7i-20">
          <mxGeometry relative="1" as="geometry">
            <Array as="points">
              <mxPoint x="280" y="445" />
            </Array>
          </mxGeometry>
        </mxCell>
        <mxCell id="Cau-QvMtGqhSYi-_3m7i-53" value="&lt;span style=&quot;font-size: 17px&quot;&gt;View&lt;br&gt;or&lt;br&gt;viewcontroller&lt;br&gt;&lt;/span&gt;" style="rounded=0;whiteSpace=wrap;html=1;labelBackgroundColor=none;fontSize=17;fillColor=#ffe6cc;strokeColor=#d79b00;" vertex="1" parent="1">
          <mxGeometry x="160" y="370" width="120" height="405" as="geometry" />
        </mxCell>
        <mxCell id="Cau-QvMtGqhSYi-_3m7i-64" style="edgeStyle=orthogonalEdgeStyle;rounded=0;orthogonalLoop=1;jettySize=auto;html=1;entryX=0.5;entryY=0;entryDx=0;entryDy=0;fontSize=17;fontColor=#000000;" edge="1" parent="1" source="Cau-QvMtGqhSYi-_3m7i-63" target="Cau-QvMtGqhSYi-_3m7i-53">
          <mxGeometry relative="1" as="geometry">
            <Array as="points">
              <mxPoint x="220" y="260" />
              <mxPoint x="220" y="260" />
            </Array>
          </mxGeometry>
        </mxCell>
        <mxCell id="Cau-QvMtGqhSYi-_3m7i-65" style="edgeStyle=orthogonalEdgeStyle;rounded=0;orthogonalLoop=1;jettySize=auto;html=1;exitX=0.5;exitY=1;exitDx=0;exitDy=0;entryX=0.5;entryY=0;entryDx=0;entryDy=0;fontSize=17;fontColor=#000000;" edge="1" parent="1" source="Cau-QvMtGqhSYi-_3m7i-63" target="Cau-QvMtGqhSYi-_3m7i-8">
          <mxGeometry relative="1" as="geometry">
            <Array as="points">
              <mxPoint x="710" y="240" />
            </Array>
          </mxGeometry>
        </mxCell>
        <mxCell id="Cau-QvMtGqhSYi-_3m7i-66" style="edgeStyle=orthogonalEdgeStyle;rounded=0;orthogonalLoop=1;jettySize=auto;html=1;entryX=0.5;entryY=0;entryDx=0;entryDy=0;fontSize=17;fontColor=#000000;" edge="1" parent="1" source="Cau-QvMtGqhSYi-_3m7i-63" target="Cau-QvMtGqhSYi-_3m7i-2">
          <mxGeometry relative="1" as="geometry">
            <Array as="points">
              <mxPoint x="1365" y="330" />
              <mxPoint x="1365" y="330" />
            </Array>
          </mxGeometry>
        </mxCell>
        <mxCell id="Cau-QvMtGqhSYi-_3m7i-63" value="WireFrame / Router" style="rounded=0;whiteSpace=wrap;html=1;labelBackgroundColor=none;fontSize=17;fillColor=#dae8fc;strokeColor=#6c8ebf;" vertex="1" parent="1">
          <mxGeometry x="160" y="120" width="1380" height="120" as="geometry" />
        </mxCell>
      </root>
    </mxGraphModel>
  </diagram>
</mxfile>
